<svg xmlns="http://www.w3.org/2000/svg" width="6998" height="1137" viewBox="0 0 6998 1137" version="1.1"><path d="M 868.200 16.200 C 866.447 17.953, 866.676 21.187, 869.979 41.331 C 877.652 88.118, 880.784 157.094, 876.920 194.144 C 874.342 218.857, 875.679 264.856, 879.503 283 C 880.257 286.575, 881.147 291.525, 881.482 294 C 883.073 305.754, 891.708 330.998, 899.095 345.487 C 917.446 381.483, 944.767 404.027, 996 425.450 C 999.575 426.945, 1003.850 428.770, 1005.500 429.506 C 1032.124 441.377, 1038.631 444.490, 1047 449.361 C 1050.025 451.122, 1054.025 453.448, 1055.889 454.531 C 1072.546 464.207, 1097.168 489.864, 1104.323 505 C 1104.713 505.825, 1106.362 508.525, 1107.987 511 C 1109.613 513.475, 1111.940 517.525, 1113.160 520 C 1114.380 522.475, 1116.324 526.075, 1117.480 528 C 1118.636 529.925, 1120.422 533.525, 1121.449 536 C 1122.476 538.475, 1124.417 542.975, 1125.763 546 C 1129.563 554.543, 1129.796 555.119, 1132.031 561.500 C 1142.276 590.747, 1150.885 623.406, 1155.490 650.500 C 1160.339 679.031, 1161.829 688.977, 1163.432 703.500 C 1164.221 710.650, 1165.335 720.775, 1165.909 726 C 1168.534 749.922, 1172.360 805.163, 1173.942 842 C 1174.913 864.618, 1176.561 872.212, 1180.625 872.800 C 1192.457 874.512, 1193.937 732.886, 1183.088 637 C 1182.062 627.925, 1181.448 619.038, 1181.724 617.250 C 1182.008 615.418, 1181.791 614, 1181.229 614 C 1180.680 614, 1179.911 611.412, 1179.521 608.250 C 1178.142 597.070, 1166.637 559.933, 1161.438 549.880 C 1160.619 548.296, 1160.159 547, 1160.416 547 C 1161.321 547, 1150.324 523.909, 1143.033 510.500 C 1138.848 502.803, 1122.642 478.675, 1115.228 469.105 C 1112.078 465.038, 1109.050 460.988, 1108.500 460.105 C 1107.950 459.222, 1105.700 456.454, 1103.500 453.954 C 1082.493 430.077, 1055.062 395.736, 1052 389.478 C 1051.725 388.916, 1050.112 386.441, 1048.417 383.978 C 1045.105 379.169, 1036.496 363.734, 1033.928 358 C 1033.065 356.075, 1031.378 352.475, 1030.178 350 C 1027.221 343.899, 1021.923 329.226, 1017.540 315 C 1014.819 306.167, 1007.753 274.914, 1008.343 274.324 C 1008.539 274.128, 1010.618 279.712, 1012.964 286.734 C 1015.310 293.755, 1017.628 299.927, 1018.115 300.450 C 1018.602 300.972, 1019 301.990, 1019 302.711 C 1019 303.432, 1019.941 306.154, 1021.091 308.761 C 1028.450 325.445, 1031.269 331.679, 1032.051 333 C 1032.539 333.825, 1033.841 336.300, 1034.944 338.500 C 1036.048 340.700, 1037.339 343.175, 1037.815 344 C 1038.290 344.825, 1039.943 347.975, 1041.488 351 C 1043.033 354.025, 1044.793 357.121, 1045.399 357.880 C 1046.004 358.640, 1047.850 361.634, 1049.500 364.534 C 1054.840 373.919, 1060.294 382.405, 1063.685 386.603 C 1065.508 388.860, 1067 391.094, 1067 391.568 C 1067 392.042, 1067.892 393.345, 1068.982 394.465 C 1070.072 395.584, 1074.857 401.450, 1079.615 407.500 C 1096.560 429.044, 1106.789 439.910, 1110.182 439.970 C 1111.918 440.001, 1124 424.700, 1124 422.471 C 1124 421.797, 1124.722 420.646, 1125.604 419.914 C 1126.486 419.181, 1127.613 417.664, 1128.108 416.541 C 1128.603 415.418, 1130.581 411.649, 1132.504 408.165 C 1134.427 404.681, 1136 401.342, 1136 400.744 C 1136 400.147, 1136.607 398.947, 1137.348 398.079 C 1138.090 397.210, 1139.390 394.475, 1140.237 392 C 1141.084 389.525, 1142.993 384.350, 1144.479 380.500 C 1145.966 376.650, 1147.866 370.575, 1148.701 367 C 1149.537 363.425, 1150.882 357.800, 1151.689 354.500 C 1155.162 340.300, 1154.409 299.473, 1150.389 284 C 1149.603 280.975, 1148.751 277.375, 1148.496 276 C 1148.241 274.625, 1146.648 269.450, 1144.956 264.500 C 1143.263 259.550, 1141.286 253.699, 1140.561 251.497 C 1138.919 246.504, 1130.327 228.650, 1125.404 220 C 1123.369 216.425, 1121.068 212.375, 1120.290 211 C 1110.018 192.842, 1082.794 159.702, 1061.694 139.670 C 1049.438 128.033, 1029.753 110.543, 1024.281 106.426 C 1021.411 104.267, 1013.986 98.630, 1007.781 93.900 C 977.891 71.115, 939.606 48.081, 895.500 26.347 C 871.965 14.750, 870.277 14.123, 868.200 16.200 M 618.500 469.653 C 616.300 471.616, 611.350 475.586, 607.500 478.474 C 603.650 481.363, 599.409 484.913, 598.076 486.363 C 596.742 487.813, 595.211 489, 594.672 489 C 594.134 489, 591.362 491.137, 588.513 493.750 C 578.094 503.303, 570.115 510, 569.153 510 C 568.610 510, 568.017 510.337, 567.833 510.750 C 567.650 511.163, 565.025 513.510, 562 515.967 C 558.975 518.424, 553.887 522.811, 550.693 525.717 C 547.499 528.623, 544.269 531, 543.516 531 C 542.762 531, 541.325 532.013, 540.323 533.250 C 538.053 536.052, 519.376 551.985, 518.293 552.042 C 517.857 552.065, 515.250 554.311, 512.500 557.033 C 509.750 559.756, 507.035 561.987, 506.466 561.991 C 505.897 561.996, 502.987 564.475, 500 567.500 C 497.013 570.525, 494.196 573, 493.741 573 C 493.285 573, 491.142 574.638, 488.978 576.641 C 486.813 578.643, 484.020 580.970, 482.771 581.811 C 481.522 582.652, 478.231 585.401, 475.459 587.920 C 468.705 594.056, 457.163 603.401, 455.711 603.910 C 455.068 604.135, 452.558 606.160, 450.134 608.410 C 443.955 614.142, 444.054 614.056, 438.500 618.597 C 435.750 620.845, 432.750 623.093, 431.833 623.592 C 430.916 624.092, 427.879 626.668, 425.083 629.318 C 422.287 631.968, 420 633.858, 420 633.518 C 420 633.177, 418.538 634.299, 416.750 636.010 C 414.962 637.722, 408.325 643.306, 402 648.420 C 395.675 653.535, 389.643 658.682, 388.595 659.859 C 387.547 661.037, 386.264 662, 385.744 662 C 385.223 662, 382.567 664.138, 379.841 666.750 C 377.115 669.362, 374.689 671.391, 374.450 671.258 C 374.210 671.124, 371.268 673.599, 367.911 676.758 C 364.554 679.916, 361.063 682.920, 360.154 683.433 C 359.244 683.946, 356.301 686.100, 353.613 688.220 C 349.100 691.780, 345.571 694.746, 333.056 705.500 C 328.591 709.337, 323.062 714.011, 314.524 721.167 C 312.337 723, 309.552 725.465, 308.335 726.644 C 307.117 727.823, 305.930 728.597, 305.696 728.363 C 305.462 728.129, 302.322 730.539, 298.719 733.719 C 295.115 736.898, 289.127 741.975, 285.412 745 C 281.696 748.025, 276.934 752.206, 274.828 754.292 C 272.723 756.378, 270.993 757.728, 270.985 757.292 C 270.976 756.856, 270.639 756.974, 270.235 757.553 C 269.566 758.511, 237.941 784.757, 225.618 794.579 C 222.803 796.823, 219.882 799.411, 219.128 800.329 C 218.373 801.248, 217.298 802, 216.739 802 C 216.181 802, 213.822 803.688, 211.498 805.750 C 209.174 807.813, 204.263 811.975, 200.585 815 C 196.907 818.025, 191.076 822.975, 187.626 826 C 184.177 829.025, 177.397 834.650, 172.561 838.500 C 167.724 842.350, 162.695 846.533, 161.384 847.795 C 160.073 849.058, 159 849.845, 159 849.545 C 159 849.245, 158.160 849.787, 157.134 850.750 C 155.100 852.658, 146.986 859.629, 143 862.893 C 141.625 864.019, 138.925 866.309, 137 867.981 C 125.966 877.569, 124.191 879, 123.334 879 C 122.816 879, 120.866 880.575, 119 882.500 C 117.134 884.425, 115.044 886, 114.355 886 C 113.666 886, 111.978 887.462, 110.605 889.250 C 108.323 892.220, 105.995 894.197, 93.632 903.664 C 91.360 905.405, 87.925 908.215, 86 909.910 C 78.908 916.153, 72.237 921.716, 68.419 924.570 C 66.264 926.181, 63.680 928.513, 62.677 929.750 C 61.675 930.988, 60.402 932, 59.849 932 C 59.296 932, 55.569 934.942, 51.567 938.538 C 38.563 950.223, 43.036 952.643, 66.500 946.619 C 82.653 942.473, 98.983 938.956, 106.551 937.995 C 110.430 937.502, 116.955 936.450, 121.051 935.656 C 128.365 934.239, 136.597 933.090, 154.500 930.987 C 159.450 930.406, 167.325 929.476, 172 928.921 C 240.223 920.819, 363.259 921.098, 447.500 929.547 C 481.095 932.916, 490.405 933.931, 497.500 935.001 C 500.800 935.498, 507.100 936.359, 511.500 936.914 C 515.900 937.469, 523.550 938.435, 528.500 939.061 C 533.450 939.688, 539.525 940.558, 542 940.995 C 544.475 941.432, 550.325 942.336, 555 943.004 C 559.675 943.672, 570.025 945.488, 578 947.040 C 585.975 948.592, 594.975 950.161, 598 950.527 C 601.025 950.893, 606.650 951.999, 610.500 952.985 C 616.812 954.602, 620.123 955.291, 628 956.628 C 629.375 956.862, 635.086 958.183, 640.691 959.564 C 646.296 960.946, 652.596 962.296, 654.691 962.564 C 656.786 962.832, 659.850 963.462, 661.500 963.964 C 668.850 966.200, 679.990 969.007, 680.710 968.805 C 681.144 968.683, 685.325 969.763, 690 971.205 C 694.675 972.647, 700.704 974.128, 703.397 974.497 C 708.105 975.141, 709.020 975.432, 713.538 977.720 C 714.660 978.288, 717.585 979.061, 720.038 979.439 C 724.137 980.069, 734.285 983.087, 749.500 988.202 C 752.800 989.311, 757.750 990.796, 760.500 991.502 C 763.250 992.209, 767.975 993.678, 771 994.768 C 774.025 995.858, 778.300 997.294, 780.500 997.959 C 782.700 998.624, 786.408 1000.030, 788.739 1001.084 C 791.071 1002.138, 793.771 1003.003, 794.739 1003.006 C 795.708 1003.010, 797.799 1003.690, 799.388 1004.518 C 800.976 1005.346, 804.753 1006.745, 807.782 1007.625 C 810.811 1008.506, 815.587 1010.296, 818.395 1011.603 C 821.203 1012.911, 824.513 1013.985, 825.750 1013.990 C 826.987 1013.996, 828 1014.398, 828 1014.883 C 828 1015.369, 829.013 1016.007, 830.250 1016.301 C 833.489 1017.071, 840.857 1019.834, 845.500 1022.021 C 850.021 1024.150, 861.980 1029.008, 863.500 1029.333 C 864.050 1029.450, 866.694 1030.773, 869.376 1032.273 C 872.058 1033.773, 874.664 1035, 875.168 1035 C 875.671 1035, 879.006 1036.366, 882.578 1038.037 C 886.150 1039.707, 889.448 1040.841, 889.906 1040.558 C 890.364 1040.275, 892.035 1041.161, 893.620 1042.528 C 895.204 1043.894, 897.400 1045.271, 898.500 1045.589 C 899.600 1045.906, 902.975 1047.336, 906 1048.766 C 909.025 1050.197, 913.075 1052.072, 915 1052.934 C 916.925 1053.795, 918.650 1054.838, 918.833 1055.250 C 919.017 1055.662, 919.743 1056, 920.448 1056 C 921.153 1056, 922.874 1056.900, 924.273 1058 C 925.671 1059.100, 927.419 1060.012, 928.158 1060.026 C 928.896 1060.040, 931.954 1061.615, 934.954 1063.526 C 943.873 1069.208, 952.791 1067.665, 946.952 1061.449 C 945.687 1060.102, 944.138 1059, 943.511 1059 C 942.884 1059, 939.164 1056.300, 935.243 1053 C 931.323 1049.700, 927.752 1046.998, 927.308 1046.995 C 926.863 1046.993, 925.062 1045.643, 923.304 1043.995 C 921.547 1042.348, 919.704 1041, 919.209 1041 C 918.715 1041, 917.495 1040.100, 916.500 1039 C 915.505 1037.900, 914.152 1037, 913.495 1037 C 912.838 1037, 910.320 1035.549, 907.900 1033.775 C 905.480 1032.001, 903.205 1030.538, 902.845 1030.525 C 902.485 1030.511, 900.883 1029.375, 899.285 1028 C 897.687 1026.625, 895.884 1025.401, 895.277 1025.279 C 894.671 1025.158, 892.497 1023.920, 890.448 1022.529 C 888.398 1021.138, 886.264 1020, 885.705 1020 C 885.146 1020, 883.214 1018.875, 881.411 1017.500 C 879.608 1016.125, 877.808 1015, 877.411 1015 C 877.014 1015, 875.296 1013.944, 873.594 1012.654 C 871.892 1011.364, 868.700 1009.484, 866.500 1008.477 C 864.300 1007.469, 861.263 1005.794, 859.750 1004.754 C 858.237 1003.715, 857 1003.150, 857 1003.500 C 857 1003.850, 855.763 1003.255, 854.250 1002.179 C 852.737 1001.102, 847.675 998.320, 843 995.997 C 838.325 993.674, 833.375 991.122, 832 990.327 C 829.412 988.831, 821.821 985.258, 814 981.855 C 811.525 980.778, 807.864 979.020, 805.864 977.948 C 803.864 976.877, 801.700 976, 801.054 976 C 800.409 976, 795.971 974.147, 791.191 971.882 C 786.411 969.616, 781.600 967.414, 780.500 966.988 C 779.400 966.561, 774.900 964.766, 770.500 963 C 761.555 959.408, 748.812 954.627, 742 952.306 C 739.525 951.462, 733.900 949.424, 729.500 947.776 C 725.100 946.128, 720.468 944.592, 719.207 944.362 C 717.946 944.133, 713.552 942.610, 709.443 940.977 C 705.334 939.345, 701.641 938.092, 701.236 938.193 C 700.831 938.294, 696.107 936.942, 690.738 935.188 C 685.369 933.435, 680.194 932, 679.238 931.999 C 678.282 931.999, 675.133 931.099, 672.239 929.999 C 669.346 928.900, 665.948 928, 664.689 928 C 663.430 928, 661.934 927.534, 661.364 926.964 C 660.794 926.394, 658.487 925.706, 656.237 925.435 C 653.987 925.164, 648.176 923.611, 643.323 921.983 C 638.470 920.356, 633.375 919.010, 632 918.993 C 629.506 918.963, 611.707 914.555, 610.122 913.576 C 609.663 913.292, 607.310 912.822, 604.894 912.532 C 602.477 912.242, 595.100 910.697, 588.500 909.099 C 581.900 907.500, 573.800 905.634, 570.500 904.950 C 567.200 904.267, 561.350 902.889, 557.500 901.890 C 553.650 900.890, 546.900 899.592, 542.500 899.006 C 538.100 898.419, 532.475 897.563, 530 897.102 C 518.772 895.012, 499.506 891.915, 489 890.510 C 482.675 889.665, 470.975 888.098, 463 887.029 C 455.025 885.959, 438.600 884.143, 426.500 882.992 C 414.400 881.842, 400.675 880.474, 396 879.953 C 361.372 876.092, 248.510 876.506, 223.152 880.587 C 218.894 881.272, 218.832 881.242, 220.142 879.143 C 220.879 877.965, 221.935 876.990, 222.491 876.977 C 223.046 876.964, 225.141 875.502, 227.147 873.727 C 229.153 871.952, 233.130 868.700, 235.984 866.500 C 250.670 855.180, 262.697 845.329, 264.323 843.288 C 265.325 842.030, 266.694 841, 267.364 841 C 268.035 841, 270.571 838.975, 273 836.500 C 275.429 834.025, 277.909 832, 278.512 832 C 279.115 832, 281.128 830.432, 282.985 828.515 C 284.843 826.598, 286.577 825.244, 286.838 825.505 C 287.100 825.766, 289.420 824.072, 291.995 821.740 C 294.570 819.408, 299.560 815.250, 303.084 812.500 C 306.608 809.750, 311.406 805.755, 313.746 803.623 C 316.086 801.490, 318 800.023, 318 800.363 C 318 800.988, 319.896 799.541, 325.024 795 C 326.577 793.625, 331.092 790.025, 335.058 787 C 339.024 783.975, 345.784 778.491, 350.082 774.814 C 354.379 771.137, 360.281 766.586, 363.198 764.700 C 366.114 762.814, 369.591 760.086, 370.924 758.636 C 372.258 757.186, 373.789 756, 374.328 756 C 374.866 756, 377.618 753.862, 380.442 751.250 C 383.267 748.638, 389.557 743.350, 394.420 739.500 C 399.283 735.650, 404.936 731.046, 406.982 729.268 C 409.028 727.490, 410.995 726.328, 411.351 726.685 C 411.708 727.041, 412 726.557, 412 725.608 C 412 724.659, 412.381 724.118, 412.847 724.405 C 413.313 724.693, 415 723.544, 416.597 721.851 C 418.194 720.158, 421.300 717.630, 423.500 716.232 C 425.700 714.834, 430.250 711.285, 433.611 708.345 C 436.972 705.405, 440.124 703, 440.615 703 C 441.107 703, 443.757 700.730, 446.504 697.955 C 450.917 693.498, 455.725 689.678, 460.921 686.500 C 461.820 685.950, 466.526 682.125, 471.377 678 C 476.229 673.875, 481.104 669.983, 482.212 669.352 C 483.319 668.720, 486.312 666.194, 488.862 663.738 C 491.413 661.282, 495.975 657.461, 499 655.247 C 502.025 653.034, 506.051 649.598, 507.946 647.611 C 509.842 645.625, 511.909 644, 512.541 644 C 513.173 644, 514.505 643.100, 515.500 642 C 516.495 640.900, 517.820 640, 518.443 640 C 519.066 640, 521.781 637.760, 524.477 635.023 C 527.173 632.286, 529.554 630.221, 529.768 630.435 C 529.982 630.649, 532.484 628.622, 535.329 625.932 C 538.173 623.241, 540.950 621.026, 541.500 621.011 C 542.050 620.995, 544.157 619.412, 546.183 617.491 C 548.209 615.571, 550.187 614, 550.580 614 C 550.972 614, 553.416 612.087, 556.011 609.750 C 562.844 603.595, 568.728 599, 569.778 599 C 570.280 599, 571.547 598.053, 572.595 596.895 C 573.642 595.738, 580.286 590.225, 587.358 584.645 C 594.430 579.065, 603.880 571.433, 608.358 567.685 C 612.836 563.937, 617.175 560.612, 618 560.295 C 618.825 559.979, 621.823 557.475, 624.662 554.731 C 627.501 551.987, 631.404 548.788, 633.334 547.621 C 638.449 544.530, 650.728 534.860, 656.500 529.376 C 659.250 526.764, 661.725 524.560, 662 524.479 C 664.628 523.707, 667.826 521.914, 668.914 520.604 C 671.069 518.007, 683.448 519.040, 710.500 524.073 C 713.800 524.687, 718.525 525.403, 721 525.664 C 726.997 526.296, 745.084 531.465, 752.229 534.589 C 757.833 537.039, 762 536.801, 762 534.032 C 762 533.539, 762.788 532.879, 763.750 532.566 C 764.712 532.253, 767.241 530.343, 769.370 528.322 C 771.498 526.301, 774.873 523.549, 776.870 522.207 C 781.666 518.981, 790.356 512.214, 794.322 508.617 C 796.070 507.031, 798.962 505.112, 800.750 504.353 C 805.636 502.278, 793.081 493, 785.387 493 C 784.609 493, 783.191 492.559, 782.236 492.020 C 778.803 490.083, 752.287 481.876, 743.500 480.030 C 740.200 479.337, 736.150 478.424, 734.500 478 C 732.850 477.576, 728.800 476.694, 725.500 476.040 C 722.200 475.386, 717.925 474.455, 716 473.972 C 712.160 473.008, 697.968 471.169, 694 471.121 C 692.625 471.105, 684.975 470.411, 677 469.579 C 629.756 464.649, 624.099 464.657, 618.500 469.653 M 1745.917 466.403 C 1745.688 466.625, 1737.850 467.331, 1728.500 467.971 C 1719.150 468.611, 1709.925 469.519, 1708 469.990 C 1706.075 470.460, 1700.225 471.112, 1695 471.438 C 1675.862 472.632, 1648.217 478.329, 1623 486.273 C 1606.157 491.580, 1595.523 495.269, 1594.550 496.145 C 1594.027 496.615, 1592.875 497, 1591.989 497 C 1591.102 497, 1589.461 497.854, 1588.340 498.897 C 1587.220 499.941, 1585.448 500.961, 1584.402 501.163 C 1582.967 501.441, 1583.606 502.107, 1587 503.873 C 1589.475 505.161, 1594.200 508.553, 1597.500 511.412 C 1600.800 514.271, 1605.075 517.677, 1607 518.981 C 1610.580 521.406, 1616.492 526.625, 1623.095 533.191 L 1626.807 536.881 1632.153 534.804 C 1655.441 525.754, 1714.321 516.065, 1718.128 520.655 C 1718.882 521.565, 1720.963 522.921, 1722.750 523.668 C 1724.537 524.416, 1726 525.423, 1726 525.907 C 1726 526.390, 1730.357 530.547, 1735.682 535.143 C 1741.007 539.739, 1747.466 545.413, 1750.036 547.750 C 1752.605 550.087, 1755.031 552, 1755.428 552 C 1756.346 552, 1774.541 567.126, 1784.296 576 C 1787.017 578.475, 1789.833 580.725, 1790.554 581 C 1791.275 581.275, 1795.910 585.212, 1800.854 589.750 C 1805.798 594.288, 1810.162 598, 1810.552 598 C 1810.942 598, 1814.690 600.937, 1818.881 604.526 C 1823.071 608.115, 1826.950 611.386, 1827.500 611.794 C 1829.938 613.603, 1846.615 628.422, 1847.659 629.707 C 1848.296 630.491, 1849.022 630.991, 1849.272 630.817 C 1849.522 630.642, 1852.205 632.750, 1855.235 635.500 C 1862.724 642.297, 1865 644.108, 1865 643.272 C 1865 642.882, 1867.588 645.058, 1870.750 648.107 C 1873.912 651.157, 1877.625 654.354, 1879 655.211 C 1881.078 656.506, 1888.096 662.556, 1899.500 672.881 C 1905.374 678.199, 1933.540 701.744, 1935.766 703.197 C 1937.196 704.130, 1940.402 706.830, 1942.891 709.197 C 1945.380 711.564, 1948.716 714.480, 1950.305 715.678 C 1951.894 716.876, 1955.175 719.714, 1957.597 721.983 C 1960.019 724.253, 1962 725.792, 1962 725.403 C 1962 724.796, 1967.262 729.314, 1977 738.283 C 1978.375 739.549, 1982.200 742.654, 1985.500 745.182 C 1988.800 747.710, 1992.591 750.953, 1993.924 752.389 C 1995.258 753.825, 1996.878 755, 1997.525 755 C 1998.172 755, 2000.990 757.362, 2003.787 760.250 C 2009.409 766.052, 2016.339 772, 2017.477 772 C 2017.881 772, 2022.379 775.825, 2027.472 780.500 C 2032.565 785.175, 2037.158 789, 2037.679 789 C 2038.200 789, 2039.948 790.390, 2041.563 792.089 C 2043.178 793.788, 2046.372 796.282, 2048.659 797.631 C 2050.946 798.980, 2053.057 800.705, 2053.348 801.465 C 2053.640 802.225, 2056.493 804.775, 2059.689 807.131 C 2062.885 809.488, 2068.650 814.276, 2072.500 817.772 C 2083.170 827.462, 2089.011 832.537, 2094.500 836.886 C 2097.250 839.065, 2100.850 842.109, 2102.500 843.649 C 2104.150 845.190, 2108.200 848.586, 2111.500 851.197 C 2118.107 856.423, 2122.249 860.021, 2132 869.004 C 2135.575 872.298, 2139.683 875.530, 2141.128 876.186 C 2146.079 878.435, 2146.881 881.394, 2142.348 880.684 C 2136.733 879.804, 2116.835 877.975, 2114.500 878.124 C 2113.400 878.194, 2099.450 877.923, 2083.500 877.522 C 2066.624 877.097, 2038.404 877.254, 2016 877.899 C 1979.871 878.938, 1967.021 879.796, 1932.500 883.475 C 1924.800 884.296, 1915.125 885.197, 1911 885.477 C 1906.875 885.758, 1901.250 886.403, 1898.500 886.910 C 1895.750 887.418, 1889.900 888.344, 1885.500 888.968 C 1881.100 889.592, 1875.025 890.510, 1872 891.008 C 1868.975 891.505, 1863.983 892.153, 1860.906 892.447 C 1857.829 892.741, 1850.854 893.844, 1845.406 894.899 C 1835.521 896.814, 1828.288 898.054, 1816 899.941 C 1812.425 900.490, 1805.675 901.846, 1801 902.954 C 1796.325 904.062, 1789.575 905.447, 1786 906.031 C 1782.425 906.615, 1774.775 908.249, 1769 909.661 C 1763.225 911.074, 1757.375 912.352, 1756 912.501 C 1754.625 912.650, 1747.650 914.210, 1740.500 915.967 C 1733.350 917.724, 1725.250 919.633, 1722.500 920.210 C 1719.750 920.786, 1717.050 921.569, 1716.500 921.949 C 1715.352 922.742, 1710.502 924.134, 1700.500 926.542 C 1696.650 927.468, 1690.800 929.059, 1687.500 930.076 C 1668.299 935.993, 1660.333 938.358, 1659 938.538 C 1658.175 938.649, 1653.787 940.137, 1649.250 941.845 C 1644.713 943.553, 1641 944.743, 1641 944.489 C 1641 944.236, 1638.638 944.968, 1635.750 946.116 C 1632.862 947.264, 1628.250 948.888, 1625.500 949.726 C 1622.750 950.564, 1617.350 952.471, 1613.500 953.964 C 1609.650 955.456, 1604.475 957.292, 1602 958.042 C 1599.525 958.793, 1596.024 960.216, 1594.220 961.204 C 1592.415 962.192, 1590.165 963.010, 1589.220 963.022 C 1588.274 963.035, 1584.800 964.375, 1581.500 966 C 1578.200 967.625, 1575.107 968.965, 1574.626 968.978 C 1573.674 969.002, 1559.926 974.880, 1553.500 978.011 C 1551.300 979.082, 1547.482 980.661, 1545.016 981.518 C 1542.550 982.375, 1539.400 983.829, 1538.016 984.749 C 1536.632 985.669, 1534.957 986.509, 1534.293 986.616 C 1533.201 986.792, 1531.796 987.437, 1525.500 990.654 C 1519.273 993.836, 1511.995 997.194, 1511.300 997.206 C 1510.860 997.214, 1509.306 998.070, 1507.846 999.110 C 1506.386 1000.149, 1504.753 1001, 1504.218 1001 C 1503.683 1001, 1502.689 1001.670, 1502.009 1002.489 C 1501.329 1003.308, 1500.428 1003.764, 1500.005 1003.503 C 1499.583 1003.242, 1497.593 1004.144, 1495.584 1005.508 C 1493.574 1006.871, 1490.259 1008.815, 1488.215 1009.826 C 1482.683 1012.566, 1474.705 1017.095, 1473 1018.464 C 1472.175 1019.127, 1469.475 1020.715, 1467 1021.993 C 1464.525 1023.271, 1461.369 1024.900, 1459.987 1025.613 C 1458.604 1026.327, 1456.579 1027.743, 1455.487 1028.761 C 1454.394 1029.779, 1453.050 1030.753, 1452.500 1030.926 C 1449.037 1032.012, 1447.248 1032.996, 1446 1034.500 C 1445.220 1035.440, 1443.664 1036.621, 1442.541 1037.124 C 1431.967 1041.869, 1414.400 1055.870, 1413.839 1060 C 1413.093 1065.500, 1421.919 1062.606, 1449.147 1048.421 C 1451.703 1047.089, 1454.481 1046, 1455.321 1046 C 1456.160 1046, 1458.221 1044.844, 1459.901 1043.430 C 1461.581 1042.017, 1464.365 1040.682, 1466.088 1040.464 C 1467.811 1040.245, 1470.850 1039.106, 1472.840 1037.932 C 1474.830 1036.758, 1477.215 1035.651, 1478.140 1035.473 C 1479.064 1035.295, 1482.224 1034.039, 1485.160 1032.681 C 1493.893 1028.645, 1502.685 1025, 1503.687 1025 C 1504.203 1025, 1506.502 1024.093, 1508.797 1022.984 C 1511.092 1021.875, 1516.239 1019.803, 1520.235 1018.379 C 1524.231 1016.954, 1527.927 1015.387, 1528.450 1014.895 C 1528.972 1014.403, 1530.359 1014, 1531.531 1014 C 1532.702 1014, 1535.875 1012.866, 1538.581 1011.479 C 1541.286 1010.093, 1544.923 1008.722, 1546.662 1008.432 C 1548.400 1008.142, 1552.111 1006.801, 1554.907 1005.452 C 1557.703 1004.104, 1560.780 1003.002, 1561.745 1003.005 C 1562.710 1003.008, 1566.875 1001.723, 1571 1000.149 C 1575.125 998.574, 1582.550 996.068, 1587.500 994.578 C 1592.450 993.088, 1600.550 990.602, 1605.500 989.053 C 1610.450 987.504, 1617.875 985.248, 1622 984.039 C 1626.125 982.831, 1630.534 981.427, 1631.797 980.921 C 1633.060 980.414, 1634.957 980, 1636.012 980 C 1638.084 980, 1646.227 977.527, 1649.543 975.891 C 1650.667 975.337, 1654.042 974.498, 1657.043 974.028 C 1660.044 973.557, 1665.875 972.213, 1670 971.043 C 1674.125 969.872, 1678.625 968.737, 1680 968.521 C 1681.375 968.305, 1685.200 967.414, 1688.500 966.542 C 1699.885 963.531, 1701.520 963.142, 1707 962.136 C 1710.025 961.581, 1714.300 960.671, 1716.500 960.112 C 1720.828 959.015, 1728.987 957.228, 1733 956.500 C 1734.375 956.250, 1737.525 955.633, 1740 955.128 C 1758.881 951.274, 1766.591 949.791, 1781.500 947.145 C 1810.866 941.935, 1828.138 939.343, 1849 937.013 C 1854.775 936.368, 1862.200 935.449, 1865.500 934.971 C 1882.042 932.576, 1888.046 931.856, 1894 931.552 C 1897.575 931.370, 1909.725 930.301, 1921 929.176 C 1981.347 923.157, 2055.676 921.480, 2128 924.505 C 2160.285 925.856, 2170.305 926.578, 2189 928.904 C 2193.125 929.417, 2201.225 930.337, 2207 930.948 C 2225.089 932.863, 2256.419 937.880, 2270.500 941.117 C 2272.700 941.623, 2277.875 942.687, 2282 943.482 C 2286.125 944.276, 2292.650 945.871, 2296.500 947.024 C 2306 949.871, 2312.934 951.239, 2314.609 950.597 C 2318.380 949.149, 2313.995 940.260, 2308.329 937.866 C 2307.853 937.665, 2306.489 936.239, 2305.297 934.698 C 2304.106 933.158, 2302.989 931.994, 2302.816 932.113 C 2302.051 932.637, 2298 929.395, 2298 928.259 C 2298 927.567, 2297.607 927, 2297.126 927 C 2296.183 927, 2286.354 918.617, 2278.879 911.438 C 2276.337 908.997, 2273.790 907, 2273.218 907 C 2272.646 907, 2270.955 905.538, 2269.460 903.750 C 2267.966 901.962, 2266.155 900.275, 2265.438 900 C 2264.720 899.725, 2261.004 896.462, 2257.179 892.750 C 2253.354 889.038, 2249.777 886, 2249.231 886 C 2248.684 886, 2247.036 884.425, 2245.568 882.500 C 2244.100 880.575, 2242.293 879, 2241.553 879 C 2240.813 879, 2238.824 877.425, 2237.134 875.500 C 2235.444 873.575, 2233.655 872, 2233.158 872 C 2232.661 872, 2230.909 870.425, 2229.265 868.500 C 2227.621 866.575, 2225.857 865, 2225.346 865 C 2224.835 865, 2222.832 863.538, 2220.894 861.750 C 2218.957 859.962, 2213.588 855.125, 2208.962 851 C 2204.337 846.875, 2199.347 842.375, 2197.874 841 C 2192.813 836.277, 2190.171 834.163, 2189.797 834.537 C 2189.591 834.743, 2186.319 831.781, 2182.527 827.956 C 2178.735 824.130, 2175.217 821, 2174.709 821 C 2174.201 821, 2171.358 818.454, 2168.393 815.343 C 2165.427 812.231, 2163 810.024, 2163 810.438 C 2163 811.127, 2146.476 796.916, 2139.584 790.299 C 2137.980 788.760, 2135.402 786.562, 2133.853 785.415 C 2132.305 784.268, 2128.656 781.113, 2125.744 778.403 C 2122.833 775.693, 2116.636 770.285, 2111.975 766.385 C 2107.314 762.486, 2101.956 757.847, 2100.070 756.078 C 2098.183 754.309, 2095.798 752.271, 2094.768 751.550 C 2093.739 750.829, 2090.557 748.027, 2087.698 745.324 C 2084.839 742.620, 2079.575 738.002, 2076 735.061 C 2072.425 732.121, 2069.169 729.216, 2068.765 728.607 C 2068.361 727.998, 2068.024 727.840, 2068.015 728.257 C 2068.007 728.673, 2065.339 726.310, 2062.086 723.007 C 2058.833 719.703, 2055.777 717, 2055.294 717 C 2054.811 717, 2052.429 714.975, 2050 712.500 C 2047.571 710.025, 2045.208 708, 2044.749 708 C 2044.289 708, 2041.288 705.300, 2038.079 702 C 2034.870 698.700, 2031.762 696, 2031.172 696 C 2030.582 696, 2029.740 695.437, 2029.300 694.748 C 2028.860 694.059, 2024.675 690.276, 2020 686.342 C 2015.325 682.407, 2008.079 676.108, 2003.897 672.344 C 1999.716 668.580, 1995.216 664.643, 1993.897 663.596 C 1991.148 661.413, 1979.060 650.727, 1974.121 646.113 C 1972.288 644.401, 1970.605 643, 1970.380 643 C 1970.156 643, 1968.741 641.658, 1967.236 640.017 C 1965.731 638.377, 1963.073 636.015, 1961.328 634.767 C 1956.465 631.291, 1941.360 618.281, 1933.444 610.750 C 1929.542 607.038, 1925.985 604, 1925.540 604 C 1925.095 604, 1920.442 600.063, 1915.199 595.250 C 1909.957 590.438, 1905.301 586.500, 1904.853 586.500 C 1904.404 586.500, 1901.217 583.516, 1897.769 579.868 C 1894.321 576.221, 1890.775 572.846, 1889.888 572.368 C 1889.002 571.891, 1884.586 568.125, 1880.075 564 C 1875.564 559.875, 1870.661 555.981, 1869.178 555.346 C 1867.696 554.711, 1865.630 553.248, 1864.587 552.096 C 1863.543 550.943, 1862.163 550, 1861.519 550 C 1860.875 550, 1859.292 548.875, 1858 547.500 C 1856.708 546.125, 1856.025 545, 1856.481 545 C 1856.937 545, 1856.495 544.100, 1855.500 543 C 1854.505 541.900, 1853.155 541, 1852.500 541 C 1851.845 541, 1850.495 540.100, 1849.500 539 C 1848.505 537.900, 1848.055 537, 1848.500 537 C 1848.945 537, 1848.495 536.100, 1847.500 535 C 1846.505 533.900, 1845.261 533, 1844.738 533 C 1844.214 533, 1838.096 528.003, 1831.143 521.895 C 1811.545 504.680, 1811.057 504.276, 1810.512 504.821 C 1810.231 505.103, 1810 504.583, 1810 503.667 C 1810 502.750, 1809.640 502.112, 1809.201 502.250 C 1808.762 502.387, 1803.345 497.775, 1797.163 492 C 1790.982 486.225, 1785.379 481.333, 1784.712 481.129 C 1784.045 480.925, 1781.925 479.274, 1780 477.460 C 1778.075 475.646, 1774.037 472.325, 1771.027 470.081 L 1765.554 466 1755.944 466 C 1750.658 466, 1746.146 466.182, 1745.917 466.403 M 5709 699 L 5709 926 5714.493 926 L 5719.987 926 5720.243 853.518 L 5720.500 781.036 5782.843 853.518 L 5845.186 926 5853.696 926 L 5862.206 926 5856.238 919.250 C 5834.926 895.146, 5734.673 779.285, 5734.302 778.331 C 5734.053 777.689, 5758.970 749.333, 5789.674 715.319 C 5820.378 681.306, 5846.134 652.675, 5846.908 651.695 C 5848.237 650.014, 5847.869 649.930, 5840.336 650.207 L 5832.355 650.500 5776.427 713.482 L 5720.500 776.464 5720.247 624.232 L 5719.994 472 5714.497 472 L 5709 472 5709 699 M 5920 699 L 5920 926 5925.500 926 L 5931 926 5931 888.800 C 5931 868.340, 5931.377 852.027, 5931.838 852.550 C 5932.299 853.072, 5933.701 856.425, 5934.953 860 C 5976.739 979.281, 6121.195 948.354, 6138.489 816.424 C 6159.862 653.379, 5994.314 569.842, 5936.168 714.331 C 5934.007 719.700, 5931.960 724.373, 5931.620 724.714 C 5931.279 725.054, 5931 668.333, 5931 598.667 L 5931 472 5925.500 472 L 5920 472 5920 699 M 6792 699 L 6792 926 6797.493 926 L 6802.987 926 6803.243 853.518 L 6803.500 781.036 6865.843 853.518 L 6928.186 926 6936.696 926 L 6945.206 926 6939.238 919.250 C 6917.926 895.146, 6817.673 779.285, 6817.302 778.331 C 6817.053 777.689, 6841.970 749.333, 6872.674 715.319 C 6903.378 681.306, 6929.134 652.675, 6929.908 651.695 C 6931.237 650.014, 6930.869 649.930, 6923.336 650.207 L 6915.355 650.500 6859.427 713.482 L 6803.500 776.464 6803.247 624.232 L 6802.994 472 6797.497 472 L 6792 472 6792 699 M 2574 713.500 L 2574 926 2581 926 L 2588 926 2588 819 L 2588 712 2730.500 712 L 2873 712 2873 819 L 2873 926 2880 926 L 2887 926 2887 713.500 L 2887 501 2880 501 L 2873 501 2873 600 L 2873 699 2730.500 699 L 2588 699 2588 600 L 2588 501 2581 501 L 2574 501 2574 713.500 M 3013 713.500 L 3013 926 3142 926 L 3271 926 3271 919.500 L 3271 913 3149 913 L 3027 913 3027 812.500 L 3027 712 3137 712 L 3247 712 3247 705.500 L 3247 699 3137 699 L 3027 699 3027 606.500 L 3027 514 3144 514 L 3261 514 3261 507.500 L 3261 501 3137 501 L 3013 501 3013 713.500 M 3406.743 712.725 C 3356.277 829.201, 3314.990 924.837, 3314.993 925.250 C 3314.997 925.663, 3318.297 926, 3322.327 926 L 3329.653 926 3355.680 865.250 L 3381.707 804.500 3504.631 804.246 L 3627.554 803.992 3652.630 864.746 L 3677.706 925.500 3685.353 925.792 C 3689.559 925.953, 3693 925.927, 3693 925.736 C 3693 925.544, 3653.285 830.013, 3604.744 713.444 L 3516.489 501.500 3507.494 501.225 L 3498.500 500.950 3406.743 712.725 M 3767 713.500 L 3767 926 3879.500 926 L 3992 926 3992 919.500 L 3992 913 3886.500 913 L 3781 913 3781 707 L 3781 501 3774 501 L 3767 501 3767 713.500 M 3955 507.500 L 3955 514 4027.500 514 L 4100 514 4100 720 L 4100 926 4107 926 L 4114 926 4114 720 L 4114 514 4186.500 514 L 4259 514 4259 507.500 L 4259 501 4107 501 L 3955 501 3955 507.500 M 4332 713.500 L 4332 926 4339 926 L 4346 926 4346 819 L 4346 712 4488.500 712 L 4631 712 4631 819 L 4631 926 4638 926 L 4645 926 4645 713.500 L 4645 501 4638 501 L 4631 501 4631 600 L 4631 699 4488.500 699 L 4346 699 4346 600 L 4346 501 4339 501 L 4332 501 4332 713.500 M 3447.045 651.222 C 3414.430 727.825, 3387.530 791.063, 3387.266 791.750 C 3386.884 792.746, 3410.818 793, 3504.893 793 C 3569.852 793, 3623 792.820, 3623 792.600 C 3623 791.638, 3507.798 513.421, 3507.110 512.722 C 3506.689 512.295, 3479.660 574.620, 3447.045 651.222 M 4978.516 643.659 C 4862.520 668.512, 4854.478 890.880, 4968.177 929.560 C 5002.654 941.289, 5044.958 930.653, 5068.334 904.379 L 5072 900.257 5068.130 895.897 L 5064.260 891.536 5055.719 899.621 C 5004.503 948.101, 4927.723 917.784, 4905.553 840.326 C 4869.153 713.154, 4977.391 597.348, 5055.381 680.021 L 5062.212 687.262 5066.855 682.619 L 5071.498 677.976 5061.459 668.238 C 5038.620 646.083, 5008.653 637.203, 4978.516 643.659 M 5209 643.436 C 5145.112 656.798, 5106.551 727.286, 5116.518 812.490 C 5134.776 968.574, 5313.399 978.238, 5341.282 824.650 C 5360.826 717.002, 5294.127 625.632, 5209 643.436 M 5496 643.436 C 5432.112 656.798, 5393.551 727.286, 5403.518 812.490 C 5421.776 968.574, 5600.399 978.238, 5628.282 824.650 C 5647.826 717.002, 5581.127 625.632, 5496 643.436 M 6293 643.436 C 6229.112 656.798, 6190.551 727.286, 6200.518 812.490 C 6218.776 968.574, 6397.399 978.238, 6425.282 824.650 C 6444.826 717.002, 6378.127 625.632, 6293 643.436 M 6580 643.436 C 6516.112 656.798, 6477.551 727.286, 6487.518 812.490 C 6505.776 968.574, 6684.399 978.238, 6712.282 824.650 C 6731.826 717.002, 6665.127 625.632, 6580 643.436 M 5219.466 654.062 C 5095.367 665.982, 5095.688 910.306, 5219.818 921.879 C 5287.235 928.165, 5336.154 866.674, 5332.691 780 C 5329.483 699.715, 5282.955 647.963, 5219.466 654.062 M 5506.466 654.062 C 5382.367 665.982, 5382.688 910.306, 5506.818 921.879 C 5574.235 928.165, 5623.154 866.674, 5619.691 780 C 5616.483 699.715, 5569.955 647.963, 5506.466 654.062 M 6021.846 654.108 C 5946.117 661.827, 5905.181 779.636, 5948.595 864.914 C 5995.498 957.043, 6103.536 934.578, 6124.923 828.249 C 6144.227 732.284, 6093.623 646.792, 6021.846 654.108 M 6303.466 654.062 C 6179.367 665.982, 6179.688 910.306, 6303.818 921.879 C 6371.235 928.165, 6420.154 866.674, 6416.691 780 C 6413.483 699.715, 6366.955 647.963, 6303.466 654.062 M 6590.466 654.062 C 6466.367 665.982, 6466.688 910.306, 6590.818 921.879 C 6658.235 928.165, 6707.154 866.674, 6703.691 780 C 6700.483 699.715, 6653.955 647.963, 6590.466 654.062 M 450.199 966.597 C 448.715 967.242, 445.721 969.622, 443.547 971.885 C 441.373 974.148, 439.043 976, 438.370 976 C 437.696 976, 436.172 977.237, 434.982 978.750 C 433.792 980.263, 432.416 981.500, 431.923 981.500 C 431.430 981.500, 429.783 982.764, 428.263 984.310 C 426.744 985.855, 421.900 990.061, 417.500 993.656 C 413.100 997.251, 409.050 1000.722, 408.500 1001.369 C 407.628 1002.393, 397.323 1011.439, 388.429 1018.986 C 386.818 1020.353, 382.721 1023.841, 379.324 1026.736 C 375.927 1029.631, 372.697 1032, 372.147 1032 C 371.597 1032, 371.001 1032.598, 370.823 1033.330 C 370.492 1034.694, 362.126 1042.318, 358.017 1045 C 356.753 1045.825, 354.095 1047.967, 352.110 1049.761 C 350.124 1051.554, 345.012 1056.019, 340.750 1059.684 C 333.890 1065.581, 333 1066.740, 333 1069.770 L 333 1073.193 337.750 1072.713 C 343.742 1072.108, 349.786 1070.514, 353.565 1068.542 C 355.179 1067.700, 358.075 1066.741, 360 1066.412 C 361.925 1066.083, 365.881 1064.955, 368.792 1063.905 C 371.702 1062.856, 376.877 1061.365, 380.292 1060.592 C 383.706 1059.820, 389.200 1058.489, 392.500 1057.636 C 403.344 1054.830, 418.346 1051.736, 427.500 1050.415 C 432.450 1049.702, 438.750 1048.655, 441.500 1048.089 C 447.319 1046.893, 466.596 1044.283, 479.404 1042.958 C 484.301 1042.452, 489.026 1041.830, 489.904 1041.578 C 490.782 1041.325, 496.900 1040.846, 503.500 1040.512 C 510.100 1040.178, 523.600 1039.160, 533.500 1038.249 C 559.448 1035.861, 634.280 1035.872, 664 1038.268 C 675.825 1039.222, 692.025 1040.467, 700 1041.035 C 707.975 1041.602, 718.100 1042.457, 722.500 1042.934 C 742.705 1045.122, 751.179 1046.178, 760 1047.609 C 765.225 1048.456, 773.325 1049.596, 778 1050.143 C 782.675 1050.689, 790.475 1052.037, 795.333 1053.138 C 800.191 1054.239, 807.166 1055.504, 810.833 1055.949 C 814.500 1056.395, 820.875 1057.703, 825 1058.856 C 839.886 1063.018, 848.287 1059, 837 1053.117 C 834.800 1051.970, 833 1051.287, 833 1051.598 C 833 1051.909, 831.537 1051.282, 829.750 1050.206 C 827.962 1049.130, 822.450 1046.587, 817.500 1044.556 C 812.550 1042.524, 806.025 1039.793, 803 1038.485 C 799.975 1037.177, 795.700 1035.572, 793.500 1034.918 C 791.300 1034.264, 787.813 1032.881, 785.750 1031.844 C 783.688 1030.808, 782 1030.188, 782 1030.467 C 782 1030.746, 779.574 1029.902, 776.610 1028.591 C 773.645 1027.280, 769.708 1025.881, 767.860 1025.483 C 766.012 1025.085, 761.800 1023.751, 758.500 1022.518 C 755.200 1021.285, 748 1018.856, 742.500 1017.120 C 737 1015.385, 728.955 1012.848, 724.622 1011.482 C 720.290 1010.117, 716.074 1009, 715.254 1009 C 713.621 1009, 701.786 1005.326, 698.349 1003.753 C 697.165 1003.211, 695.590 1002.976, 694.849 1003.230 C 694.107 1003.485, 691.025 1002.825, 688 1001.764 C 684.975 1000.703, 678.675 998.983, 674 997.942 C 669.325 996.901, 661.675 995.143, 657 994.036 C 638.630 989.686, 622.222 986.062, 616.500 985.091 C 613.200 984.531, 607.350 983.375, 603.500 982.523 C 599.650 981.670, 594.475 980.733, 592 980.441 C 589.525 980.148, 583 979.012, 577.500 977.915 C 572 976.819, 563.450 975.487, 558.500 974.956 C 553.550 974.425, 547.025 973.539, 544 972.986 C 531.824 970.761, 524.936 969.881, 513 969.023 C 506.125 968.529, 495.775 967.665, 490 967.102 C 473.581 965.501, 453.312 965.243, 450.199 966.597 M 1887 966 C 1864.375 966.932, 1844.878 968.709, 1824.500 971.694 C 1814.600 973.145, 1803.125 974.673, 1799 975.090 C 1794.875 975.507, 1786.550 976.754, 1780.500 977.861 C 1774.450 978.968, 1765.225 980.609, 1760 981.507 C 1754.775 982.405, 1747.575 983.771, 1744 984.543 C 1740.425 985.314, 1733.900 986.684, 1729.500 987.587 C 1725.100 988.491, 1719.700 989.644, 1717.500 990.150 C 1715.300 990.656, 1710.037 991.726, 1705.804 992.528 C 1701.572 993.330, 1696.172 994.635, 1693.804 995.427 C 1691.437 996.219, 1687.475 997.148, 1685 997.490 C 1682.525 997.832, 1678.025 998.960, 1675 999.997 C 1671.975 1001.033, 1667.700 1002.172, 1665.500 1002.527 C 1663.300 1002.882, 1657.225 1004.446, 1652 1006.004 C 1646.775 1007.561, 1639.575 1009.572, 1636 1010.473 C 1632.425 1011.373, 1628.375 1012.541, 1627 1013.068 C 1625.625 1013.595, 1623.534 1014.211, 1622.354 1014.436 C 1619.375 1015.004, 1604.776 1019.761, 1597.230 1022.622 C 1593.782 1023.930, 1590.299 1025, 1589.491 1025 C 1588.682 1025, 1584.979 1026.227, 1581.261 1027.726 C 1577.542 1029.225, 1573.971 1030.338, 1573.325 1030.199 C 1572.679 1030.060, 1571.865 1030.409, 1571.516 1030.973 C 1571.167 1031.538, 1570.229 1032, 1569.430 1032 C 1568.632 1032, 1566.071 1032.861, 1563.739 1033.913 C 1561.408 1034.965, 1557.700 1036.373, 1555.500 1037.042 C 1553.300 1037.711, 1550.375 1038.831, 1549 1039.531 C 1547.625 1040.231, 1542.900 1042.249, 1538.500 1044.014 C 1529.493 1047.628, 1524.963 1049.566, 1517 1053.214 C 1513.975 1054.599, 1511.158 1055.784, 1510.740 1055.846 C 1507.882 1056.272, 1504 1059.328, 1504 1061.153 C 1504 1063.811, 1514.524 1062.737, 1533.310 1058.162 C 1537.815 1057.064, 1544.425 1055.691, 1548 1055.109 C 1551.575 1054.527, 1556.750 1053.573, 1559.500 1052.989 C 1562.250 1052.405, 1567.875 1051.500, 1572 1050.978 C 1576.125 1050.457, 1584.900 1049.137, 1591.500 1048.045 C 1598.100 1046.954, 1608.450 1045.576, 1614.500 1044.985 C 1620.550 1044.393, 1628.875 1043.503, 1633 1043.006 C 1637.125 1042.509, 1650.554 1041.417, 1662.842 1040.580 C 1675.130 1039.743, 1692.860 1038.334, 1702.242 1037.448 C 1722.383 1035.547, 1810.452 1035.846, 1827 1037.871 C 1832.225 1038.510, 1843.475 1039.677, 1852 1040.463 C 1877.062 1042.775, 1901.587 1045.907, 1915.258 1048.541 C 1922.274 1049.894, 1929.024 1050.999, 1930.258 1050.999 C 1932.426 1050.998, 1948.181 1054.445, 1960.500 1057.616 C 1963.800 1058.465, 1968.525 1059.594, 1971 1060.123 C 1976.138 1061.223, 1989.654 1065.174, 1998.500 1068.163 C 2014.553 1073.587, 2019.947 1073.962, 2021.088 1069.735 C 2021.708 1067.439, 2021.402 1066.674, 2019.285 1065.235 C 2017.883 1064.281, 2014.377 1061.250, 2011.494 1058.500 C 2008.612 1055.750, 2003.433 1051.025, 1999.985 1048 C 1996.537 1044.975, 1992.293 1041.150, 1990.554 1039.500 C 1988.815 1037.850, 1983.440 1032.900, 1978.609 1028.500 C 1973.778 1024.100, 1968.377 1019.150, 1966.608 1017.500 C 1964.838 1015.850, 1959.417 1010.900, 1954.560 1006.500 C 1949.704 1002.100, 1944.296 997.150, 1942.544 995.500 C 1940.792 993.850, 1936.275 989.800, 1932.508 986.500 C 1928.740 983.200, 1924.753 979.487, 1923.648 978.250 C 1922.543 977.013, 1921.124 976, 1920.494 976 C 1919.154 976, 1915.004 971.802, 1914.992 970.436 C 1914.980 968.933, 1907.320 964.983, 1904.802 965.181 C 1903.536 965.280, 1895.525 965.648, 1887 966" stroke="none" fill="#443c74" fill-rule="evenodd"/><path d="M 1437.500 212.067 C 1424.730 212.819, 1398.398 216.243, 1392.500 217.918 C 1390.850 218.387, 1386.800 219.339, 1383.500 220.034 C 1369.191 223.049, 1348.128 229.909, 1334 236.157 C 1320.525 242.115, 1300.856 252.749, 1295 257.241 C 1293.625 258.296, 1288.900 261.852, 1284.500 265.144 C 1264.070 280.428, 1243.803 304.405, 1233.061 326 C 1231.283 329.575, 1229.236 333.625, 1228.512 335 C 1214.215 362.172, 1210.091 414.456, 1218.879 457.104 C 1220.070 462.879, 1220.358 466.495, 1219.756 468.104 C 1212.948 486.310, 1184.971 595.478, 1181.982 615.500 C 1181.508 618.672, 1181.902 626.350, 1183.058 636.500 C 1184.060 645.300, 1186.145 670.050, 1187.690 691.500 C 1190.219 726.601, 1190.567 729.600, 1191.172 721.500 C 1195.356 665.510, 1204.894 604.846, 1215.543 566.500 C 1216.306 563.750, 1217.228 560.150, 1217.591 558.500 C 1217.954 556.850, 1219.994 550.276, 1222.125 543.891 C 1224.256 537.506, 1226 531.687, 1226 530.960 C 1226 529.729, 1230.100 518.735, 1234.004 509.500 C 1234.933 507.300, 1236.551 503.025, 1237.597 500.001 C 1239.773 493.714, 1258.428 456.307, 1260.577 453.921 C 1261.360 453.053, 1262 452.003, 1262 451.589 C 1262 450.969, 1273.961 432.662, 1280.680 423 C 1303.009 390.888, 1345.127 353.999, 1388 329.002 C 1407.259 317.774, 1446.385 298.912, 1460 294.292 C 1460.825 294.012, 1456.775 296.682, 1451 300.225 C 1426.849 315.044, 1401.248 332.476, 1387.472 343.483 C 1384.707 345.692, 1380.707 348.850, 1378.583 350.500 C 1376.459 352.150, 1374.219 353.950, 1373.604 354.500 C 1372.989 355.050, 1369.789 357.734, 1366.493 360.464 C 1351.890 372.559, 1330.093 395.685, 1314.500 415.626 C 1303.292 429.959, 1287.184 459.666, 1281.095 477.233 L 1278.068 485.966 1280.212 487.113 C 1283.594 488.924, 1319.139 488.569, 1333.500 486.581 C 1380.116 480.130, 1415.975 461.076, 1448.646 425.396 C 1453.126 420.503, 1457.995 415.206, 1459.465 413.624 C 1460.935 412.042, 1470.286 400.567, 1480.244 388.124 C 1524.481 332.847, 1543.262 314.887, 1575.905 296.644 C 1595.356 285.774, 1634.011 274, 1650.248 274 C 1659.220 274, 1651.722 266.953, 1629 254.031 C 1622.456 250.309, 1597.502 238, 1596.502 238 C 1596.117 238, 1594.384 237.335, 1592.651 236.522 C 1583.483 232.221, 1556.071 223.402, 1544.500 221.031 C 1542.300 220.580, 1536 219.295, 1530.500 218.176 C 1500.724 212.119, 1470.412 210.127, 1437.500 212.067 M 837.500 477.767 C 835.850 477.980, 833.375 479.187, 832 480.448 C 830.625 481.709, 828.150 483.580, 826.500 484.605 C 822.009 487.394, 805.719 500.007, 804 502.026 C 803.175 502.994, 801.580 504.061, 800.456 504.395 C 799.332 504.730, 796.774 506.465, 794.772 508.252 C 790.230 512.305, 781.656 518.988, 776.870 522.207 C 774.873 523.549, 771.498 526.301, 769.370 528.322 C 767.241 530.343, 764.712 532.253, 763.750 532.566 C 762.788 532.879, 762 533.577, 762 534.118 C 762 534.659, 760.393 535.774, 758.428 536.595 C 756.463 537.416, 753.426 539.433, 751.678 541.079 C 749.930 542.724, 743.325 547.907, 737 552.596 C 730.675 557.285, 723.083 563.007, 720.130 565.311 C 717.176 567.615, 714.008 569.950, 713.090 570.500 C 710.132 572.272, 700.532 579.418, 699.500 580.616 C 698.950 581.255, 694.675 584.539, 690 587.913 C 681.271 594.214, 676.932 597.511, 666.500 605.766 C 657.481 612.904, 653.272 616.141, 647.992 620 C 637.642 627.566, 633.448 630.721, 626.391 636.250 C 622.355 639.413, 618.764 642, 618.412 642 C 618.060 642, 615.183 644.242, 612.020 646.983 C 608.856 649.724, 604.204 653.436, 601.681 655.233 C 591.719 662.329, 554.277 690.927, 549.560 695.043 C 547.327 696.992, 544.375 699.351, 543 700.285 C 532.436 707.466, 530 709.310, 530 710.129 C 530 710.644, 529.166 711.387, 528.146 711.782 C 527.126 712.177, 524.181 714.075, 521.602 716 C 515.771 720.352, 496.402 735.125, 486.174 743.021 C 481.953 746.280, 476.700 750.323, 474.500 752.006 C 455.392 766.620, 451.124 769.817, 448.550 771.444 C 446.928 772.469, 442.428 775.870, 438.550 779.002 C 432.444 783.934, 409.685 801.262, 386.500 818.632 C 382.650 821.516, 378.351 824.916, 376.946 826.188 C 375.542 827.460, 373.120 829.170, 371.566 829.989 C 370.011 830.807, 368.289 832.466, 367.738 833.675 C 365.567 838.441, 366.335 838.637, 389.657 839.290 C 414.842 839.996, 450.767 842.448, 466 844.501 C 471.775 845.280, 480.325 846.181, 485 846.505 C 489.675 846.828, 496.200 847.566, 499.500 848.144 C 502.800 848.722, 508.650 849.565, 512.500 850.018 C 521.542 851.081, 544.476 854.575, 558.500 857.026 C 564.550 858.083, 576.025 860.087, 584 861.478 C 591.975 862.869, 600.300 864.470, 602.500 865.036 C 604.700 865.601, 612.286 867.178, 619.359 868.540 C 626.431 869.902, 632.550 871.222, 632.956 871.473 C 633.362 871.724, 638.601 873.030, 644.597 874.376 C 656.939 877.146, 688.955 885.343, 693.500 886.897 C 696.647 887.973, 713.581 892.788, 725.500 895.997 C 729.350 897.033, 735.503 899.013, 739.173 900.396 C 742.843 901.779, 746.893 903.055, 748.173 903.231 C 749.453 903.407, 750.961 903.840, 751.524 904.195 C 752.087 904.549, 758.387 906.864, 765.524 909.339 C 782.808 915.333, 787.121 916.883, 789.500 917.957 C 790.600 918.454, 793.300 919.401, 795.500 920.061 C 797.700 920.721, 799.950 921.600, 800.500 922.014 C 801.384 922.680, 807.538 925.049, 820.500 929.711 C 822.700 930.503, 827.200 932.418, 830.500 933.969 C 839.719 938.300, 846.503 941.315, 858.500 946.414 C 864.550 948.985, 870.175 951.520, 871 952.047 C 871.825 952.574, 873.510 953.442, 874.744 953.975 C 883.696 957.847, 912.995 973.132, 930.500 983.063 C 949.507 993.845, 972.664 1008.354, 986.740 1018.298 C 989.622 1020.334, 992.448 1022, 993.021 1022 C 993.594 1022, 994.322 1022.675, 994.638 1023.500 C 994.955 1024.325, 995.603 1025, 996.079 1025 C 996.555 1025, 1000.669 1027.818, 1005.222 1031.262 C 1009.775 1034.706, 1014.453 1038.193, 1015.618 1039.012 C 1020.551 1042.479, 1033.580 1052.593, 1034.500 1053.670 C 1035.050 1054.314, 1038.450 1057.239, 1042.056 1060.170 C 1053.126 1069.169, 1062.793 1077.916, 1077.234 1092 C 1095.389 1109.706, 1101.823 1110.292, 1090.572 1093.215 C 1088.058 1089.398, 1086 1085.946, 1086 1085.545 C 1086 1085.144, 1085.213 1083.784, 1084.250 1082.523 C 1083.287 1081.263, 1081.825 1079.217, 1081 1077.977 C 1080.175 1076.736, 1078.487 1074.482, 1077.250 1072.967 C 1076.013 1071.451, 1075 1069.920, 1075 1069.563 C 1075 1069.206, 1073.088 1066.402, 1070.750 1063.331 C 1068.412 1060.261, 1065.600 1056.531, 1064.500 1055.042 C 1062.087 1051.777, 1054.274 1042.427, 1051.500 1039.485 C 1050.400 1038.318, 1047.925 1035.379, 1046 1032.953 C 1040.388 1025.881, 1013.149 999.002, 1005.025 992.520 C 1000.929 989.252, 996.837 985.886, 995.930 985.039 C 995.023 984.193, 992.573 982.150, 990.486 980.500 C 988.398 978.850, 985.298 976.215, 983.595 974.644 C 981.893 973.073, 979.375 971.048, 977.999 970.144 C 976.624 969.240, 972.643 966.256, 969.152 963.514 C 960.628 956.818, 935.984 939.890, 928.345 935.484 C 924.960 933.532, 921.642 931.274, 920.973 930.467 C 920.303 929.660, 919.369 929, 918.897 929 C 918.425 929, 915.577 927.425, 912.567 925.500 C 909.558 923.575, 906.685 922, 906.183 922 C 905.681 922, 904.192 921.152, 902.874 920.116 C 901.557 919.079, 897.333 916.544, 893.489 914.482 C 889.645 912.420, 884.025 909.387, 881 907.743 C 877.975 906.099, 873.925 903.989, 872 903.053 C 870.075 902.117, 867.150 900.653, 865.500 899.798 C 846.947 890.189, 825.571 880.002, 823.931 879.987 C 823.144 879.980, 819.800 878.597, 816.500 876.913 C 813.200 875.229, 808.925 873.257, 807 872.530 C 805.075 871.804, 799.450 869.557, 794.500 867.538 C 777.538 860.619, 744.584 848.686, 730.750 844.453 C 720.358 841.274, 716.078 839.996, 706 837.067 C 700.225 835.388, 694.150 833.528, 692.500 832.933 C 689.057 831.692, 667.437 826.044, 652 822.352 C 646.225 820.971, 637 818.715, 631.500 817.340 C 626 815.964, 618.125 814.224, 614 813.472 C 609.875 812.721, 604.250 811.637, 601.500 811.063 C 576.736 805.897, 567.906 804.374, 526.607 798.143 C 520.616 797.240, 515.758 796.147, 515.812 795.715 C 516.008 794.147, 519.574 790.393, 522.694 788.469 C 526.152 786.337, 548.302 769.536, 554 764.722 C 555.925 763.096, 560.011 759.906, 563.081 757.633 C 574.526 749.158, 580.650 744.437, 586 739.968 C 589.025 737.441, 593.075 734.293, 595 732.972 C 597.755 731.082, 608.295 722.914, 618.500 714.760 C 619.050 714.321, 624.225 710.363, 630 705.965 C 635.775 701.567, 642.388 696.513, 644.696 694.734 C 647.003 692.956, 653.742 687.900, 659.671 683.500 C 665.600 679.100, 672.262 673.893, 674.475 671.929 C 676.689 669.965, 680.185 667.343, 682.244 666.101 C 684.303 664.860, 686.328 663.317, 686.744 662.672 C 687.160 662.028, 688.250 661.050, 689.166 660.500 C 692.204 658.677, 708.284 646.539, 710.752 644.206 C 712.087 642.945, 714.826 640.860, 716.839 639.574 C 718.853 638.288, 723.114 634.932, 726.308 632.118 C 729.503 629.303, 732.460 627, 732.880 627 C 733.300 627, 737.162 624.075, 741.462 620.500 C 745.762 616.925, 749.677 614, 750.163 614 C 750.648 614, 752.947 612.284, 755.272 610.187 C 757.598 608.090, 763.775 603.150, 769 599.209 C 774.225 595.268, 784.350 587.526, 791.500 582.004 C 798.650 576.482, 808.775 568.740, 814 564.799 C 819.225 560.859, 824.456 556.704, 825.625 555.567 C 826.794 554.430, 829.386 552.375, 831.385 551 C 833.385 549.625, 840.709 544.112, 847.662 538.750 C 862.036 527.665, 861.813 527.726, 875.952 530.948 C 880.653 532.019, 889.900 534.071, 896.500 535.507 C 903.100 536.943, 909.400 538.544, 910.500 539.065 C 912.458 539.992, 923.554 543.168, 931.500 545.076 C 933.700 545.604, 936.400 546.466, 937.500 546.991 C 941.091 548.706, 948.380 551.138, 954.488 552.659 C 957.781 553.479, 960.931 554.510, 961.488 554.951 C 962.045 555.392, 966.775 557.430, 972 559.480 C 992.018 567.336, 1005.962 573.456, 1021.281 581.111 C 1023.360 582.150, 1025.951 583, 1027.037 583 C 1028.124 583, 1029.991 584.125, 1031.187 585.500 C 1032.382 586.875, 1033.842 588.001, 1034.430 588.002 C 1035.019 588.003, 1039.240 590.253, 1043.810 593.002 C 1048.381 595.751, 1052.314 598, 1052.550 598 C 1052.787 598, 1056.022 600.090, 1059.740 602.644 C 1066.610 607.363, 1070.895 609.989, 1076.771 613.083 C 1078.570 614.031, 1081.720 616.222, 1083.771 617.954 C 1090.880 623.956, 1100.511 631.220, 1102.750 632.268 C 1103.987 632.847, 1105 633.677, 1105 634.112 C 1105 634.548, 1106.912 636.240, 1109.250 637.873 C 1111.588 639.507, 1118 645.137, 1123.500 650.385 C 1138.373 664.578, 1142.023 662.976, 1130.297 647.402 C 1105.966 615.085, 1059.778 571.168, 1031.360 553.328 C 1028.006 551.223, 1022.039 547.362, 1018.099 544.750 C 1014.160 542.138, 1010.697 540, 1010.402 540 C 1010.108 540, 1008.392 538.875, 1006.589 537.500 C 1004.786 536.125, 1003.079 535, 1002.794 535 C 1002.316 535, 993.431 530.169, 984.887 525.263 C 980.558 522.777, 979.868 522.428, 969 517.224 C 957.298 511.621, 951.415 509, 950.542 509 C 950.135 509, 948.159 508.265, 946.151 507.367 C 944.143 506.470, 940.700 504.926, 938.500 503.938 C 933.941 501.891, 919.619 496.843, 910 493.893 C 906.425 492.797, 902.600 491.499, 901.500 491.008 C 900.400 490.518, 897.925 489.813, 896 489.443 C 894.075 489.072, 892.050 488.420, 891.500 487.993 C 890.950 487.566, 887.800 486.689, 884.500 486.044 C 881.200 485.399, 876.475 484.256, 874 483.504 C 871.525 482.753, 867.475 481.851, 865 481.501 C 862.525 481.151, 858.250 480.269, 855.500 479.541 C 849.656 477.994, 841.757 477.216, 837.500 477.767 M 1542.500 478.112 C 1528.857 479.783, 1503.511 485.803, 1486 491.530 C 1483.525 492.339, 1479.250 493.627, 1476.500 494.392 C 1470.493 496.062, 1452.753 502.442, 1448.349 504.516 C 1446.616 505.332, 1444.755 506, 1444.213 506 C 1443.672 506, 1441.940 506.672, 1440.364 507.494 C 1438.789 508.315, 1436.768 508.990, 1435.872 508.994 C 1434.977 508.997, 1433.745 509.602, 1433.134 510.338 C 1432.524 511.074, 1430.106 512.240, 1427.762 512.929 C 1422.772 514.395, 1402.692 524.328, 1395.554 528.860 C 1392.834 530.587, 1390.015 532, 1389.289 532 C 1388.074 532, 1380.557 536.085, 1374.162 540.222 C 1372.698 541.169, 1369.925 542.819, 1368 543.889 C 1366.075 544.960, 1362.251 547.447, 1359.503 549.418 C 1356.755 551.388, 1354.132 553, 1353.674 553 C 1352.530 553, 1321.694 576.109, 1320.700 577.711 C 1320.260 578.420, 1318.685 579.650, 1317.200 580.444 C 1315.715 581.239, 1312.901 583.376, 1310.947 585.194 C 1308.993 587.012, 1305.698 589.785, 1303.624 591.356 C 1298.407 595.309, 1286.592 606.537, 1274.597 618.941 C 1261.064 632.935, 1258.868 635.257, 1256.361 638.226 C 1255.185 639.619, 1253.835 640.926, 1253.361 641.130 C 1252.403 641.542, 1245.735 649.380, 1242.250 654.190 C 1239.407 658.114, 1239.306 661, 1242.013 661 C 1243.983 661, 1247.431 658.223, 1257.113 648.836 C 1263.031 643.098, 1275.402 633.170, 1284.943 626.500 C 1288.877 623.750, 1294.311 619.813, 1297.019 617.750 C 1299.726 615.688, 1302.317 614, 1302.776 614 C 1303.236 614, 1305.161 612.839, 1307.056 611.421 C 1308.950 610.003, 1312.525 607.742, 1315 606.397 C 1317.475 605.052, 1321.075 602.997, 1323 601.831 C 1324.925 600.664, 1328.975 598.364, 1332 596.719 C 1335.025 595.074, 1340.034 592.214, 1343.131 590.364 C 1346.228 588.514, 1349.040 587, 1349.381 587 C 1349.721 587, 1350.900 586.100, 1352 585 C 1353.100 583.900, 1354.820 583, 1355.823 583 C 1356.825 583, 1360.538 581.641, 1364.073 579.980 C 1370.321 577.043, 1371.297 576.549, 1375.500 574.190 C 1376.600 573.572, 1380.650 571.876, 1384.500 570.420 C 1388.350 568.964, 1393.300 566.960, 1395.500 565.967 C 1397.700 564.974, 1404.450 562.278, 1410.500 559.976 C 1416.550 557.673, 1422.400 555.286, 1423.500 554.670 C 1424.600 554.054, 1427.750 553.014, 1430.500 552.360 C 1435.416 551.190, 1445.573 547.803, 1449.500 546.023 C 1450.600 545.524, 1453.075 544.814, 1455 544.444 C 1456.925 544.074, 1463.450 542.318, 1469.500 540.542 C 1486.850 535.448, 1516.082 529, 1521.822 529 C 1525.409 529, 1549.564 546.045, 1553 551 C 1553.275 551.396, 1554.963 552.470, 1556.750 553.386 C 1558.537 554.302, 1560 555.475, 1560 555.993 C 1560 556.511, 1562.588 558.862, 1565.750 561.218 C 1568.912 563.573, 1572.175 566.144, 1573 566.930 C 1574.606 568.461, 1594.053 584.250, 1604.495 592.500 C 1615.345 601.072, 1625.457 609.369, 1626.500 610.554 C 1627.050 611.179, 1629.075 612.769, 1631 614.088 C 1632.925 615.407, 1640.082 621.137, 1646.904 626.821 C 1653.726 632.505, 1660.476 637.900, 1661.904 638.810 C 1663.332 639.720, 1665.628 641.597, 1667.007 642.982 C 1670.332 646.321, 1681.371 654.965, 1685.682 657.605 C 1687.572 658.763, 1690.779 661.276, 1692.809 663.189 C 1694.839 665.103, 1698.750 668.431, 1701.500 670.585 C 1704.250 672.738, 1706.725 674.778, 1707 675.117 C 1707.978 676.324, 1724.734 689.779, 1727.556 691.624 C 1729.135 692.656, 1731.568 694.572, 1732.963 695.881 C 1734.359 697.191, 1741.800 703.346, 1749.500 709.560 C 1757.200 715.774, 1769.350 725.632, 1776.500 731.467 C 1783.650 737.302, 1792.650 744.550, 1796.500 747.572 C 1811.592 759.422, 1816.884 763.643, 1821.107 767.201 C 1826.222 771.511, 1838.626 781.480, 1844.762 786.213 C 1849.545 789.902, 1854.988 795.176, 1854.995 796.127 C 1854.998 796.471, 1850.612 797.270, 1845.250 797.901 C 1839.888 798.532, 1833.700 799.479, 1831.500 800.004 C 1829.300 800.530, 1822.325 801.672, 1816 802.543 C 1805.376 804.006, 1795.045 805.874, 1760.500 812.581 C 1748.239 814.961, 1745.242 815.635, 1735.500 818.205 C 1733.300 818.785, 1729.956 819.474, 1728.068 819.736 C 1720.675 820.762, 1659.309 836.992, 1653.496 839.458 C 1651.844 840.159, 1648.919 841.044, 1646.996 841.425 C 1645.073 841.805, 1642.600 842.479, 1641.500 842.922 C 1640.400 843.365, 1633.200 845.789, 1625.500 848.308 C 1601.291 856.230, 1579.690 863.910, 1578.625 864.975 C 1578.061 865.539, 1576.847 866, 1575.927 866 C 1574.409 866, 1570.013 867.683, 1561.349 871.582 C 1559.616 872.362, 1557.731 873, 1557.160 873 C 1556.589 873, 1553.057 874.573, 1549.311 876.495 C 1545.565 878.417, 1541.961 879.992, 1541.303 879.995 C 1539.525 880.002, 1508.283 894.706, 1486.500 905.787 C 1481.550 908.305, 1474.800 911.702, 1471.500 913.336 C 1468.200 914.970, 1464.150 917.300, 1462.500 918.514 C 1460.850 919.728, 1457.025 921.918, 1454 923.379 C 1448.218 926.173, 1446.800 926.973, 1440.797 930.828 C 1438.761 932.136, 1435.741 933.947, 1434.087 934.853 C 1424.272 940.228, 1397.744 957.769, 1388.271 965.148 C 1384.846 967.817, 1381.683 970, 1381.244 970 C 1380.804 970, 1379.701 970.788, 1378.793 971.750 C 1377.884 972.712, 1376.547 973.957, 1375.820 974.516 C 1375.094 975.075, 1372.221 977.437, 1369.436 979.766 C 1366.650 982.095, 1364.083 984, 1363.731 984 C 1363.379 984, 1362.032 985.012, 1360.738 986.250 C 1359.443 987.487, 1353.914 992.100, 1348.451 996.500 C 1333.557 1008.496, 1296.970 1045.356, 1287.355 1058.054 C 1284.626 1061.658, 1281.404 1065.596, 1280.196 1066.804 C 1278.988 1068.012, 1278 1069.450, 1278 1070 C 1278 1070.550, 1277.213 1071.788, 1276.250 1072.750 C 1273.606 1075.395, 1265.009 1086.732, 1264.934 1087.674 C 1264.897 1088.128, 1263.331 1090.525, 1261.454 1093 C 1255.897 1100.325, 1254.688 1102.919, 1256.060 1104.572 C 1258.042 1106.961, 1259.152 1106.307, 1268.925 1096.990 C 1274.109 1092.048, 1280.617 1086.091, 1283.387 1083.752 C 1286.156 1081.413, 1289.406 1078.554, 1290.609 1077.398 C 1291.811 1076.242, 1296.328 1072.456, 1300.647 1068.985 C 1304.966 1065.514, 1308.950 1062.177, 1309.500 1061.569 C 1310.865 1060.062, 1327.583 1047.090, 1332.143 1044 C 1334.172 1042.625, 1339.700 1038.688, 1344.427 1035.250 C 1349.155 1031.813, 1353.445 1029, 1353.962 1029 C 1354.478 1029, 1355.260 1028.432, 1355.700 1027.739 C 1356.540 1026.413, 1371.386 1016, 1372.435 1016 C 1373.271 1016, 1381.268 1010.865, 1382.500 1009.537 C 1383.050 1008.944, 1385.611 1007.343, 1388.192 1005.979 C 1390.772 1004.616, 1397.297 1000.815, 1402.692 997.534 C 1408.086 994.253, 1413.850 990.849, 1415.500 989.971 C 1424.993 984.918, 1434.634 979.595, 1435.515 978.921 C 1437.305 977.553, 1475.656 958.202, 1481.176 955.882 C 1484.104 954.652, 1487.694 952.825, 1489.154 951.822 C 1490.614 950.820, 1492.366 950, 1493.047 950 C 1493.727 950, 1498.503 947.975, 1503.659 945.500 C 1508.816 943.025, 1513.296 941, 1513.616 941 C 1513.936 941, 1515.616 940.353, 1517.349 939.562 C 1519.082 938.772, 1523.425 936.925, 1527 935.458 C 1530.575 933.991, 1534.050 932.344, 1534.722 931.797 C 1535.394 931.250, 1537.419 930.437, 1539.222 929.991 C 1543.505 928.930, 1553.154 925.400, 1558.367 922.987 C 1560.640 921.934, 1567.225 919.531, 1573 917.645 C 1582.572 914.520, 1585.548 913.435, 1591.500 910.899 C 1592.600 910.430, 1600.025 908.009, 1608 905.520 C 1615.975 903.030, 1623.320 900.520, 1624.323 899.942 C 1625.326 899.365, 1630.276 897.815, 1635.323 896.498 C 1644.857 894.011, 1659.862 889.895, 1668.500 887.396 C 1671.250 886.600, 1678.675 884.606, 1685 882.964 C 1691.325 881.322, 1697.625 879.582, 1699 879.097 C 1700.375 878.611, 1704.200 877.662, 1707.500 876.986 C 1710.800 876.311, 1718.675 874.516, 1725 872.997 C 1731.325 871.478, 1740.775 869.491, 1746 868.581 C 1751.225 867.670, 1757.075 866.421, 1759 865.804 C 1763.050 864.507, 1787.181 860.250, 1814.500 856.014 C 1824.950 854.394, 1837.550 852.388, 1842.500 851.558 C 1856.431 849.221, 1873.388 847.049, 1885.788 846.014 C 1891.996 845.496, 1897.551 844.778, 1898.132 844.418 C 1898.714 844.059, 1908.485 843.133, 1919.845 842.361 C 1931.205 841.589, 1946.575 840.539, 1954 840.028 C 1961.425 839.516, 1974.572 839.076, 1983.215 839.049 C 2001.111 838.993, 2005.077 837.302, 1998.493 832.534 C 1996.948 831.415, 1993.168 828.311, 1990.092 825.635 C 1987.016 822.960, 1983.375 820.048, 1982 819.165 C 1980.625 818.282, 1977.025 815.472, 1974 812.921 C 1970.975 810.370, 1964.450 805.216, 1959.500 801.466 C 1954.550 797.717, 1948.594 793.041, 1946.263 791.075 C 1943.933 789.109, 1940.166 785.925, 1937.892 784 C 1935.618 782.075, 1930.774 778.175, 1927.129 775.334 C 1923.483 772.493, 1918.475 768.544, 1916 766.557 C 1902.147 755.440, 1896.716 751.147, 1892.523 748 C 1889.959 746.075, 1884.447 741.596, 1880.275 738.046 C 1876.104 734.496, 1871.440 730.671, 1869.912 729.546 C 1864.369 725.465, 1855.543 718.438, 1852.583 715.750 C 1850.917 714.237, 1849.246 713, 1848.870 713 C 1848.494 713, 1844.744 710.075, 1840.538 706.500 C 1836.331 702.925, 1832.429 700, 1831.868 700 C 1831.306 700, 1829.427 698.581, 1827.693 696.847 C 1825.958 695.112, 1820.270 690.275, 1815.053 686.097 C 1809.835 681.918, 1804.838 677.825, 1803.948 677 C 1803.058 676.175, 1801.284 674.825, 1800.006 674 C 1797.677 672.497, 1786.568 663.700, 1780 658.157 C 1778.075 656.533, 1773.885 653.105, 1770.688 650.540 C 1767.491 647.975, 1764.116 645.199, 1763.188 644.371 C 1761.460 642.829, 1750.365 634.319, 1744.718 630.204 C 1742.985 628.941, 1739.977 626.624, 1738.034 625.054 C 1736.090 623.485, 1732.078 620.243, 1729.118 617.850 C 1726.157 615.458, 1722.499 612.600, 1720.987 611.500 C 1719.475 610.400, 1713.122 605.194, 1706.869 599.931 C 1700.616 594.669, 1693.925 589.294, 1692 587.988 C 1690.075 586.681, 1687.243 584.415, 1685.708 582.950 C 1684.172 581.486, 1680.440 578.536, 1677.416 576.394 C 1674.391 574.252, 1666.122 567.775, 1659.039 562 C 1634.236 541.775, 1631.986 540, 1631.150 540 C 1630.687 540, 1627.651 537.461, 1624.404 534.358 C 1614.133 524.542, 1610.596 521.417, 1607 518.981 C 1605.075 517.677, 1600.800 514.294, 1597.500 511.463 C 1594.200 508.632, 1589.925 505.457, 1588 504.408 C 1586.075 503.359, 1582.900 501.150, 1580.945 499.500 C 1578.989 497.850, 1573.848 493.800, 1569.519 490.500 C 1565.191 487.200, 1560.041 483.095, 1558.075 481.378 C 1554.143 477.944, 1550.355 477.150, 1542.500 478.112" stroke="none" fill="#bbbbcc" fill-rule="evenodd"/></svg>