<svg xmlns="http://www.w3.org/2000/svg" width="6998" height="1137" viewBox="0 0 6998 1137" version="1.1"><path d="M 1436.500 211.981 C 1422.185 212.843, 1398.513 216.110, 1389.414 218.480 C 1386.205 219.316, 1382.887 219.993, 1382.040 219.986 C 1379.699 219.963, 1349.482 229.229, 1346.117 231.001 C 1345.228 231.469, 1341.522 232.985, 1337.881 234.369 C 1331.200 236.910, 1311.041 246.926, 1305.500 250.457 C 1286.102 262.819, 1277.711 269.340, 1264.907 282 C 1220.563 325.845, 1203.994 390.140, 1219.062 459.892 C 1219.966 464.075, 1219.950 466.204, 1218.991 469.392 C 1216.176 478.751, 1210.050 499.759, 1207.149 510 C 1204.795 518.308, 1202.920 525.502, 1199.981 537.500 C 1198.903 541.900, 1197.110 548.875, 1195.996 553 C 1194.882 557.125, 1193.532 562.897, 1192.996 565.827 C 1192.461 568.757, 1191.829 571.467, 1191.593 571.849 C 1191.358 572.231, 1189.775 578.608, 1188.076 586.021 C 1186.377 593.435, 1184.261 602.650, 1183.374 606.500 C 1182.486 610.350, 1181.361 613.754, 1180.872 614.064 C 1180.362 614.388, 1180.608 622.262, 1181.449 632.564 C 1183.522 657.935, 1185.784 688.724, 1186.992 708 C 1188.630 734.150, 1191 746.493, 1191 728.875 C 1191 722.498, 1194.226 687.391, 1196.088 673.500 C 1196.678 669.100, 1197.747 661, 1198.465 655.500 C 1201.135 635.030, 1204.084 618.106, 1209.181 594 C 1212.807 576.853, 1218.335 556.140, 1223.422 540.644 C 1225.383 534.672, 1226.757 529.416, 1226.477 528.963 C 1226.197 528.509, 1226.390 527.877, 1226.907 527.557 C 1227.424 527.238, 1228.610 524.619, 1229.543 521.738 C 1230.476 518.857, 1231.801 515.150, 1232.487 513.500 C 1233.173 511.850, 1234.979 507.350, 1236.501 503.500 C 1261.081 441.308, 1303.415 386.884, 1356 349.875 C 1366.302 342.625, 1380.777 333, 1381.379 333 C 1381.682 333, 1385.883 330.624, 1390.715 327.719 C 1405.211 319.006, 1451.143 296.968, 1454.720 297.009 C 1455.427 297.017, 1450.569 300.250, 1438 308.134 C 1387.029 340.107, 1347.472 373.816, 1319.962 408.720 C 1314.423 415.749, 1309.353 422.178, 1308.695 423.006 C 1304.214 428.653, 1289.612 455.126, 1285.808 464.500 C 1283.389 470.462, 1279.045 481.865, 1278.354 484.070 C 1276.168 491.035, 1320.851 490.589, 1352.500 483.329 C 1388.595 475.050, 1414.332 460.145, 1443.723 430.500 C 1455.806 418.313, 1464.474 408.657, 1471.500 399.559 C 1474.003 396.317, 1495.289 369.790, 1501.637 362.001 C 1516.664 343.563, 1538.318 322.240, 1552.929 311.493 C 1575.727 294.724, 1609.545 280.008, 1632.270 276.967 C 1635.697 276.509, 1640.072 275.654, 1641.993 275.067 C 1643.915 274.480, 1647.434 274, 1649.813 274 C 1657.851 274, 1643.206 259.100, 1631.500 255.368 C 1630.400 255.017, 1629.275 254.406, 1629 254.009 C 1624.391 247.355, 1557.852 222.196, 1537.500 219.411 C 1534.750 219.035, 1531.395 218.315, 1530.045 217.811 C 1527.606 216.900, 1523.583 216.280, 1502.500 213.570 C 1488.688 211.794, 1453.617 210.950, 1436.500 211.981 M 831.941 479.562 C 830.617 480.972, 827.951 483.085, 826.017 484.258 C 824.083 485.431, 822.160 486.943, 821.744 487.617 C 821.328 488.292, 819.303 489.849, 817.244 491.078 C 815.185 492.306, 811.920 494.802, 809.989 496.625 C 808.058 498.448, 805.583 500.092, 804.489 500.278 C 801.401 500.804, 794.552 504.630, 791.179 507.711 C 787.322 511.236, 780.011 517.016, 773.290 521.854 C 770.425 523.917, 766.349 527.206, 764.234 529.163 C 762.118 531.121, 759.387 533.257, 758.166 533.911 C 756.944 534.565, 756.181 535.484, 756.471 535.952 C 756.760 536.421, 755.423 537.733, 753.499 538.868 C 751.574 540.004, 750 541.388, 750 541.945 C 750 542.502, 746.962 545.012, 743.250 547.522 C 732.387 554.869, 726.829 559.027, 721.500 563.793 C 718.750 566.252, 715.375 568.767, 714 569.382 C 711.419 570.536, 710.004 571.557, 704.475 576.250 C 702.694 577.763, 700.827 579, 700.326 579 C 699.826 579, 697.448 581.005, 695.043 583.457 C 692.637 585.908, 690.332 587.705, 689.920 587.450 C 689.508 587.196, 689.020 587.354, 688.835 587.802 C 688.651 588.250, 686.250 590.129, 683.500 591.979 C 680.750 593.828, 676.885 596.727, 674.911 598.421 C 672.938 600.114, 668.034 603.975, 664.016 607 C 659.997 610.025, 655.767 613.542, 654.617 614.816 C 653.466 616.090, 650.944 617.879, 649.012 618.792 C 647.081 619.706, 644.023 621.926, 642.217 623.727 C 640.411 625.527, 638.739 627, 638.502 627 C 637.492 627, 613.450 645.100, 602 654.480 C 598.975 656.958, 595.825 659.305, 595 659.694 C 592.281 660.979, 587.561 664.491, 583.553 668.211 C 581.383 670.226, 579.245 671.652, 578.803 671.378 C 578.362 671.105, 578 671.283, 578 671.773 C 578 672.262, 575.862 674.057, 573.250 675.761 C 570.638 677.465, 565.953 681.141, 562.840 683.930 C 559.727 686.718, 556.856 689, 556.461 689 C 556.066 689, 554.098 690.462, 552.088 692.250 C 550.079 694.038, 547.157 696.400, 545.597 697.500 C 544.036 698.600, 539.326 702.203, 535.129 705.506 C 524.677 713.735, 517.386 719, 516.444 719 C 516.010 719, 513.068 721.250, 509.907 724 C 506.745 726.750, 503.757 729, 503.266 729 C 502.776 729, 501.052 730.401, 499.437 732.112 C 497.822 733.824, 495.095 736.187, 493.378 737.362 C 491.662 738.538, 487.743 741.413, 484.671 743.750 C 481.599 746.087, 478.801 748, 478.453 748 C 478.105 748, 475.304 750.243, 472.228 752.984 C 469.152 755.726, 466.444 757.778, 466.210 757.544 C 465.849 757.182, 461.451 760.878, 456.361 765.821 C 455.612 766.548, 455 766.868, 455 766.532 C 455 766.196, 454.438 766.382, 453.750 766.945 C 448.577 771.184, 446.119 773, 445.552 773 C 445.190 773, 441.715 775.587, 437.830 778.750 C 433.945 781.913, 429.357 785.459, 427.633 786.631 C 425.910 787.804, 423.409 789.941, 422.076 791.381 C 420.742 792.822, 419.216 794, 418.683 794 C 418.151 794, 415.305 796.060, 412.358 798.577 C 409.411 801.095, 407 802.856, 407 802.491 C 407 801.793, 397.026 809.642, 390.924 815.141 C 388.957 816.914, 386.983 818.244, 386.536 818.097 C 386.089 817.949, 385.448 818.206, 385.112 818.667 C 384.775 819.128, 381.125 822.178, 377 825.447 C 366.335 833.896, 363.471 838.923, 369.250 839.049 C 408.916 839.910, 451.349 842.334, 465.500 844.547 C 474.437 845.945, 493.248 848.210, 510.500 849.966 C 515.450 850.470, 525.800 851.970, 533.500 853.301 C 541.200 854.631, 551.775 856.266, 557 856.934 C 562.225 857.602, 568.750 858.762, 571.500 859.510 C 579.869 861.789, 592.306 864, 596.753 864 C 599.066 864, 602.656 864.677, 604.730 865.505 C 608.829 867.142, 620.182 869.675, 629.150 870.953 C 632.258 871.396, 635.276 872.053, 635.858 872.412 C 636.439 872.771, 640.872 873.967, 645.708 875.068 C 664.514 879.352, 666.734 879.896, 674 881.997 C 678.125 883.190, 683.300 884.530, 685.500 884.976 C 689.428 885.771, 690.438 886.075, 700.500 889.485 C 703.250 890.417, 707.791 891.541, 710.591 891.982 C 713.391 892.423, 716.541 893.275, 717.591 893.874 C 719.194 894.790, 723.162 895.970, 733 898.457 C 733.825 898.666, 736.525 899.728, 739 900.819 C 741.475 901.909, 745.413 903.110, 747.750 903.488 C 750.087 903.866, 752 904.661, 752 905.255 C 752 905.848, 752.248 906.086, 752.550 905.783 C 753.096 905.237, 760.037 907.468, 773.500 912.517 C 777.350 913.961, 784.838 916.601, 790.140 918.384 C 795.442 920.167, 800.939 922.385, 802.355 923.313 C 803.771 924.241, 805.390 925, 805.953 925 C 806.516 925, 810.822 926.592, 815.523 928.538 C 820.223 930.483, 824.472 931.826, 824.965 931.521 C 825.458 931.217, 826.150 931.433, 826.502 932.003 C 827.353 933.381, 836.535 938, 838.423 938 C 839.242 938, 842.202 939.350, 845 941 C 847.798 942.650, 850.680 944, 851.403 944 C 852.127 944, 855.248 945.350, 858.340 947 C 861.432 948.650, 864.810 950, 865.846 950 C 866.882 950, 868.863 950.891, 870.247 951.980 C 872.530 953.776, 876.307 955.604, 878.260 955.860 C 879.629 956.039, 885.462 959.208, 887.162 960.696 C 888.077 961.496, 889.427 962.242, 890.162 962.354 C 890.898 962.465, 892.168 962.973, 892.984 963.482 C 896.941 965.949, 903 968.874, 903 968.317 C 903 967.972, 903.788 968.386, 904.750 969.236 C 905.712 970.086, 910.550 972.812, 915.500 975.294 C 920.450 977.776, 926.288 981.030, 928.473 982.524 C 930.658 984.019, 932.999 985.324, 933.675 985.423 C 934.351 985.522, 935.730 986.350, 936.739 987.263 C 937.748 988.177, 940.675 989.854, 943.245 990.990 C 945.815 992.127, 948.159 993.448, 948.454 993.925 C 948.749 994.402, 950.905 995.791, 953.245 997.011 C 955.585 998.230, 959.075 1000.465, 961 1001.977 C 964.763 1004.932, 971.109 1008.513, 972.117 1008.250 C 972.457 1008.161, 973.773 1009.194, 975.042 1010.544 C 976.310 1011.895, 977.879 1013, 978.528 1013 C 979.177 1013, 980.850 1014.058, 982.245 1015.351 C 983.640 1016.644, 985.540 1017.993, 986.468 1018.349 C 987.395 1018.705, 991.156 1021.257, 994.827 1024.020 C 1006.795 1033.030, 1014.263 1038.479, 1016.219 1039.627 C 1017.275 1040.247, 1018.808 1041.709, 1019.626 1042.877 C 1020.444 1044.045, 1021.679 1045, 1022.370 1045 C 1023.061 1045, 1024.919 1046.350, 1026.500 1048 C 1028.081 1049.650, 1029.852 1051.008, 1030.437 1051.017 C 1031.022 1051.026, 1033.300 1052.878, 1035.500 1055.133 C 1037.700 1057.388, 1041.188 1060.311, 1043.250 1061.629 C 1045.313 1062.947, 1047 1064.469, 1047 1065.013 C 1047 1065.556, 1047.642 1066, 1048.427 1066 C 1049.213 1066, 1050.677 1067.013, 1051.682 1068.250 C 1052.686 1069.487, 1055.532 1072.135, 1058.004 1074.132 C 1060.477 1076.130, 1068.903 1084.118, 1076.729 1091.882 C 1090.518 1105.563, 1094.261 1108.089, 1095.594 1104.617 C 1096.401 1102.512, 1093.091 1095.781, 1088.250 1089.681 C 1087.013 1088.122, 1086 1086.426, 1086 1085.913 C 1086 1084.855, 1079.708 1075.565, 1076.871 1072.436 C 1075.842 1071.300, 1075 1070.083, 1075 1069.730 C 1075 1069.069, 1068.477 1059.557, 1066.243 1056.961 C 1065.551 1056.158, 1062.458 1052.350, 1059.369 1048.500 C 1056.280 1044.650, 1053.424 1041.275, 1053.024 1041 C 1052.623 1040.725, 1050.123 1037.800, 1047.466 1034.500 C 1038.873 1023.823, 1028.750 1013, 1027.358 1013 C 1026.611 1013, 1026 1012.601, 1026 1012.114 C 1026 1011.339, 1004.047 990.939, 997.359 985.500 C 996.007 984.400, 992.960 981.813, 990.588 979.750 C 988.217 977.688, 985.993 976, 985.647 976 C 985.301 976, 983.727 974.650, 982.150 973 C 980.574 971.350, 978.937 970, 978.513 970 C 978.089 970, 976.034 968.538, 973.946 966.750 C 971.858 964.962, 967.847 961.925, 965.032 960 C 962.218 958.075, 956.504 953.913, 952.336 950.750 C 948.168 947.587, 944.245 945, 943.618 945 C 942.992 945, 941.359 943.987, 939.990 942.750 C 937.279 940.300, 926.391 933, 925.447 933 C 925.126 933, 920.765 930.300, 915.756 927 C 910.747 923.700, 906.273 921, 905.813 921 C 905.353 921, 902.340 919.200, 899.117 917 C 895.894 914.800, 892.820 913, 892.286 913 C 891.752 913, 889.331 911.890, 886.907 910.534 C 884.483 909.177, 881.063 907.411, 879.307 906.609 C 877.551 905.806, 874.409 903.991, 872.325 902.575 C 870.241 901.159, 867.663 900, 866.597 900 C 865.530 900, 863.931 899.343, 863.043 898.539 C 860.075 895.853, 825.732 879.353, 821.519 878.589 C 819.925 878.300, 816.450 876.714, 813.796 875.064 C 811.142 873.414, 807.965 871.901, 806.735 871.701 C 804.353 871.313, 800.204 869.667, 795.806 867.364 C 794.325 866.588, 789.715 864.844, 785.562 863.489 C 781.409 862.133, 777.221 860.558, 776.255 859.988 C 774.144 858.742, 749.496 850.080, 746.111 849.394 C 744.796 849.128, 742.096 848.215, 740.111 847.366 C 734.040 844.769, 722.058 841, 719.873 841 C 718.738 841, 716.614 840.353, 715.154 839.562 C 711.534 837.600, 699.616 834, 696.741 834 C 695.453 834, 693.972 833.623, 693.450 833.162 C 691.770 831.680, 641.681 818.764, 632.500 817.446 C 629.750 817.051, 626.375 816.295, 625 815.766 C 622.049 814.630, 601.667 810.430, 594.500 809.480 C 591.750 809.115, 587.725 808.367, 585.555 807.818 C 583.385 807.268, 579.560 806.451, 577.055 806.004 C 574.550 805.556, 568.900 804.434, 564.500 803.511 C 560.100 802.588, 552.900 801.455, 548.500 800.994 C 537.772 799.871, 516.127 796.460, 515.454 795.788 C 514.859 795.192, 518.021 792.548, 526.562 786.500 C 529.668 784.300, 535.074 780.137, 538.575 777.250 C 542.076 774.362, 545.274 772, 545.682 772 C 546.090 772, 548.241 770.250, 550.462 768.110 C 552.683 765.971, 557.650 762.092, 561.500 759.491 C 565.350 756.891, 568.725 754.479, 569 754.131 C 569.884 753.015, 579.428 745.500, 579.962 745.500 C 580.246 745.500, 582.508 743.592, 584.989 741.260 C 587.470 738.929, 590.332 736.747, 591.349 736.412 C 593.358 735.750, 593.994 735.260, 601.604 728.520 C 604.411 726.034, 607.132 724, 607.651 724 C 608.170 724, 610.352 722.200, 612.500 720 C 614.648 717.800, 616.990 716, 617.703 716 C 618.416 716, 619 715.622, 619 715.161 C 619 714.699, 620.013 713.853, 621.250 713.280 C 622.487 712.707, 625.722 710.273, 628.437 707.869 C 631.153 705.466, 633.403 703.704, 633.437 703.954 C 633.509 704.477, 636.575 702.062, 642.418 696.880 C 644.663 694.890, 647.400 692.978, 648.500 692.633 C 649.600 692.287, 652.300 690.321, 654.500 688.262 C 656.700 686.204, 659.223 684.065, 660.107 683.510 C 665.821 679.919, 669.827 676.879, 672 674.484 C 673.375 672.968, 676.926 670.160, 679.892 668.243 C 682.857 666.326, 687.018 663.124, 689.137 661.129 C 691.256 659.133, 693.376 657.500, 693.848 657.500 C 694.321 657.500, 698.993 654.125, 704.232 650 C 709.471 645.875, 714.804 641.825, 716.084 641 C 717.363 640.175, 720.680 637.421, 723.455 634.879 C 726.230 632.338, 729.850 629.570, 731.500 628.727 C 733.150 627.885, 737.604 624.452, 741.398 621.098 C 745.192 617.744, 748.844 615, 749.512 615 C 750.180 615, 751.801 613.958, 753.114 612.684 C 756.067 609.818, 768.528 600.061, 772.255 597.696 C 773.770 596.734, 778.063 593.372, 781.795 590.224 C 785.527 587.076, 789.294 584.050, 790.167 583.500 C 791.039 582.950, 795.241 579.800, 799.503 576.500 C 803.766 573.200, 809.784 568.703, 812.877 566.508 C 815.970 564.312, 820.391 560.599, 822.702 558.258 C 825.013 555.916, 827.376 554, 827.952 554 C 828.528 554, 829.788 553.212, 830.751 552.250 C 831.714 551.288, 835.652 548.301, 839.501 545.614 C 848.270 539.491, 850.948 537.440, 856.259 532.777 C 861.086 528.539, 863.107 528.275, 873 530.593 C 876.575 531.430, 880.625 532.348, 882 532.632 C 897.744 535.881, 907.857 538.304, 909.500 539.219 C 911.329 540.238, 917.023 541.950, 935.012 546.890 C 938.593 547.873, 943.993 549.597, 947.012 550.720 C 950.030 551.842, 954.387 553.075, 956.692 553.459 C 958.998 553.842, 961.416 554.796, 962.065 555.578 C 962.714 556.360, 963.752 557, 964.372 557.001 C 964.993 557.001, 968.425 558.394, 972 560.095 C 979.658 563.740, 991.109 568, 993.249 568 C 994.077 568, 995.255 568.602, 995.866 569.338 C 996.476 570.074, 998.894 571.246, 1001.238 571.941 C 1003.582 572.637, 1005.950 573.558, 1006.500 573.988 C 1009.734 576.517, 1025.501 584.006, 1027.989 584.196 C 1029.616 584.320, 1031.163 584.981, 1031.425 585.666 C 1031.688 586.350, 1033.780 587.868, 1036.075 589.038 C 1038.371 590.209, 1042.091 592.502, 1044.344 594.134 C 1046.596 595.766, 1050.453 597.991, 1052.914 599.080 C 1055.376 600.169, 1058.990 602.284, 1060.945 603.780 C 1062.900 605.276, 1066.075 607.346, 1068 608.380 C 1069.925 609.414, 1072.772 611.326, 1074.327 612.630 C 1075.881 613.933, 1077.940 615, 1078.902 615 C 1079.864 615, 1081.742 616.167, 1083.076 617.594 C 1084.409 619.021, 1088.313 622.258, 1091.750 624.787 C 1095.188 627.316, 1098 629.776, 1098 630.252 C 1098 630.728, 1098.412 630.863, 1098.916 630.552 C 1099.420 630.241, 1101.107 631.227, 1102.666 632.744 C 1104.225 634.261, 1107.300 636.813, 1109.500 638.415 C 1111.700 640.018, 1115.075 642.840, 1117 644.686 C 1128.608 655.822, 1133.708 659.985, 1135.750 659.992 C 1138.826 660.003, 1138.684 657.031, 1135.442 653.532 C 1134.036 652.014, 1129.952 646.777, 1126.368 641.895 C 1122.785 637.012, 1119.311 632.675, 1118.649 632.258 C 1117.987 631.841, 1116.033 629.682, 1114.306 627.461 C 1107.572 618.798, 1084.025 594.883, 1075 587.541 C 1071.425 584.632, 1066.684 580.508, 1064.465 578.376 C 1059.419 573.529, 1055.681 570.440, 1054.901 570.474 C 1054.571 570.488, 1053.221 569.506, 1051.901 568.291 C 1046.046 562.903, 1030.216 551.047, 1028.835 551.015 C 1028.155 551, 1014.681 542.272, 1007.500 537.196 C 1005.300 535.640, 1001.250 533.273, 998.500 531.934 C 995.750 530.595, 993.350 529.163, 993.167 528.750 C 992.983 528.337, 992.071 528, 991.139 528 C 990.207 528, 988.332 527.220, 986.973 526.267 C 982.886 523.402, 961.690 513, 959.938 513 C 959.043 513, 957.495 512.100, 956.500 511 C 955.505 509.900, 953.955 509, 953.056 509 C 952.158 509, 949.676 508.109, 947.541 507.021 C 945.406 505.932, 940.023 503.857, 935.580 502.409 C 931.136 500.961, 923.559 498.251, 918.743 496.388 C 913.927 494.525, 909.330 493, 908.527 493 C 907.724 493, 905.590 492.388, 903.784 491.641 C 897.845 489.182, 887.581 486.147, 883 485.495 C 880.525 485.143, 877.150 484.249, 875.500 483.508 C 873.850 482.768, 869.575 481.638, 866 480.998 C 862.425 480.357, 857.043 479.195, 854.040 478.416 C 844.673 475.986, 834.821 476.497, 831.941 479.562 M 1538.500 477.999 C 1523.463 480.816, 1503.340 485.742, 1489.500 489.996 C 1475.303 494.360, 1473.330 495.009, 1465 498.063 C 1460.325 499.777, 1455.375 501.425, 1454 501.724 C 1452.625 502.023, 1451.050 502.606, 1450.500 503.019 C 1449.950 503.431, 1447.962 504.098, 1446.083 504.501 C 1444.204 504.903, 1441.279 506.078, 1439.583 507.112 C 1437.887 508.146, 1435.768 508.994, 1434.872 508.996 C 1433.977 508.998, 1432.723 509.629, 1432.085 510.397 C 1431.448 511.165, 1428.671 512.531, 1425.916 513.433 C 1420.885 515.078, 1400.922 524.990, 1398.366 527.111 C 1397.615 527.735, 1396.993 527.852, 1396.985 527.372 C 1396.976 526.893, 1396.639 526.974, 1396.235 527.553 C 1395.831 528.132, 1393.025 529.651, 1390 530.928 C 1386.975 532.205, 1381.350 535.328, 1377.500 537.866 C 1373.650 540.405, 1369.746 542.796, 1368.825 543.181 C 1367.904 543.565, 1364.954 545.424, 1362.269 547.311 C 1359.584 549.198, 1356.453 551.039, 1355.312 551.401 C 1353.297 552.040, 1336.674 564.091, 1332.359 568.041 C 1331.182 569.118, 1329.794 570, 1329.275 570 C 1328.757 570, 1326.345 571.847, 1323.916 574.104 C 1321.487 576.362, 1315 581.718, 1309.500 586.007 C 1299.154 594.076, 1274.215 618.228, 1258.500 635.400 C 1253.550 640.809, 1248.320 646.419, 1246.878 647.867 C 1238.674 656.105, 1238.216 666.677, 1246.395 659.032 C 1247.553 657.950, 1251.917 653.870, 1256.093 649.967 C 1260.270 646.063, 1264.995 642.063, 1266.593 641.078 C 1268.192 640.092, 1270.400 638.267, 1271.500 637.022 C 1272.600 635.776, 1276.200 632.937, 1279.500 630.713 C 1282.800 628.488, 1286.978 625.393, 1288.785 623.834 C 1290.591 622.275, 1292.650 621, 1293.360 621 C 1294.070 621, 1295.742 619.836, 1297.076 618.413 C 1298.409 616.990, 1300.905 615.237, 1302.622 614.517 C 1304.340 613.797, 1306.836 612.260, 1308.171 611.099 C 1309.505 609.939, 1312.150 608.155, 1314.048 607.134 C 1315.947 606.114, 1321.325 603.128, 1326 600.500 C 1330.675 597.872, 1335.874 594.977, 1337.554 594.068 C 1339.233 593.159, 1342.003 591.422, 1343.708 590.208 C 1345.413 588.994, 1347.270 588, 1347.833 588 C 1348.396 588, 1349.626 587.231, 1350.567 586.290 C 1351.507 585.350, 1353.227 584.450, 1354.388 584.289 C 1356.320 584.023, 1364.628 580.409, 1369.500 577.717 C 1376.354 573.928, 1382.553 571, 1383.718 571 C 1384.462 571, 1386.082 570.337, 1387.319 569.527 C 1388.556 568.716, 1390.452 567.896, 1391.534 567.703 C 1392.615 567.510, 1395.242 566.598, 1397.372 565.676 C 1399.502 564.754, 1401.582 564, 1401.995 564 C 1402.984 564, 1411.784 560.288, 1415.154 558.448 C 1416.614 557.652, 1418.682 557, 1419.749 557 C 1420.817 557, 1422.505 556.100, 1423.500 555 C 1424.499 553.896, 1426.580 553, 1428.144 553 C 1429.703 553, 1433.796 551.881, 1437.239 550.514 C 1440.683 549.147, 1444.400 547.864, 1445.500 547.664 C 1446.600 547.464, 1448.175 547.037, 1449 546.715 C 1449.825 546.393, 1452.525 545.684, 1455 545.139 C 1462.346 543.520, 1471.427 540.873, 1472.500 540.037 C 1473.050 539.608, 1475.975 538.691, 1479 537.998 C 1482.025 537.305, 1487.768 535.897, 1491.761 534.869 C 1495.755 533.841, 1500.086 533, 1501.385 533 C 1502.685 533, 1505.670 532.322, 1508.018 531.494 C 1510.366 530.665, 1515.260 529.720, 1518.894 529.394 L 1525.500 528.802 1531.500 534.378 C 1534.800 537.445, 1537.836 539.965, 1538.247 539.977 C 1538.658 539.990, 1540.862 541.688, 1543.145 543.750 C 1545.428 545.813, 1547.494 547.340, 1547.736 547.146 C 1548.269 546.716, 1555.236 552.332, 1559.446 556.585 C 1563.226 560.403, 1571 566.404, 1571 565.504 C 1571 565.139, 1573.511 567.238, 1576.580 570.170 C 1579.649 573.101, 1582.877 575.903, 1583.753 576.397 C 1585.425 577.338, 1588.620 580.004, 1595.558 586.250 C 1597.849 588.313, 1600.123 590.010, 1600.612 590.023 C 1601.100 590.036, 1603.150 591.498, 1605.166 593.273 C 1607.183 595.048, 1611.669 598.750, 1615.135 601.500 C 1618.602 604.250, 1623.445 608.413, 1625.898 610.750 C 1628.351 613.087, 1630.840 615.010, 1631.429 615.022 C 1632.018 615.034, 1635.200 617.579, 1638.500 620.678 C 1641.800 623.777, 1647 628.022, 1650.056 630.111 C 1653.111 632.201, 1656.761 634.943, 1658.167 636.205 C 1659.573 637.467, 1661.419 638.950, 1662.269 639.500 C 1664.867 641.181, 1682.478 656.340, 1682.835 657.203 C 1683.020 657.648, 1683.531 657.790, 1683.972 657.517 C 1684.412 657.245, 1687.541 659.492, 1690.924 662.511 C 1694.307 665.530, 1697.396 668.005, 1697.788 668.010 C 1698.180 668.016, 1700.763 670.153, 1703.529 672.760 C 1709.347 678.244, 1727.466 693, 1728.381 693 C 1728.721 693, 1729.821 693.788, 1730.824 694.750 C 1734.249 698.037, 1740.603 703.498, 1742.168 704.500 C 1743.027 705.050, 1748.118 709.100, 1753.480 713.500 C 1758.843 717.900, 1764.191 722.175, 1765.365 723 C 1766.539 723.825, 1768.945 725.794, 1770.711 727.375 C 1772.477 728.957, 1775.233 731.207, 1776.835 732.375 C 1785.817 738.926, 1791.007 743.183, 1791.915 744.741 C 1792.478 745.709, 1792.953 746.157, 1792.970 745.738 C 1792.986 745.320, 1795.588 747.050, 1798.750 749.584 C 1801.912 752.118, 1807.399 756.511, 1810.941 759.346 C 1814.484 762.181, 1819.019 766.075, 1821.019 768 C 1823.018 769.925, 1827.049 773.300, 1829.976 775.500 C 1832.903 777.700, 1837.594 781.426, 1840.399 783.780 C 1843.205 786.134, 1846.628 788.554, 1848.007 789.158 C 1856.945 793.070, 1855.036 796.637, 1843.293 797.967 C 1838.243 798.539, 1832.908 799.465, 1831.437 800.024 C 1829.965 800.584, 1826.452 801.070, 1823.630 801.106 C 1820.809 801.142, 1809.500 802.958, 1798.500 805.142 C 1787.500 807.326, 1775.800 809.492, 1772.500 809.956 C 1762.519 811.359, 1748.611 814.151, 1746.718 815.133 C 1745.738 815.641, 1741.013 816.739, 1736.218 817.573 C 1731.423 818.407, 1723.225 820.231, 1718 821.626 C 1712.775 823.021, 1704.900 824.997, 1700.500 826.017 C 1690.569 828.319, 1678.471 831.517, 1674.500 832.890 C 1672.850 833.460, 1667.238 835.077, 1662.030 836.484 C 1656.821 837.890, 1652.119 839.481, 1651.580 840.020 C 1651.041 840.559, 1649.072 841, 1647.204 841 C 1645.337 841, 1642.614 841.609, 1641.154 842.354 C 1639.694 843.098, 1634.450 844.954, 1629.500 846.477 C 1620.675 849.193, 1618.783 849.854, 1606.360 854.561 C 1602.983 855.840, 1599.994 856.661, 1599.718 856.385 C 1599.442 856.108, 1596.180 857.259, 1592.470 858.941 C 1588.759 860.624, 1585.291 862, 1584.763 862 C 1584.235 862, 1582.384 862.636, 1580.651 863.414 C 1578.918 864.191, 1575.700 865.385, 1573.500 866.065 C 1571.300 866.746, 1568.600 867.875, 1567.500 868.573 C 1566.400 869.272, 1562.944 870.576, 1559.821 871.472 C 1556.697 872.368, 1553.097 873.901, 1551.821 874.880 C 1549.248 876.852, 1546.705 877.949, 1543.114 878.633 C 1541.802 878.884, 1537.527 880.614, 1533.614 882.479 C 1529.701 884.345, 1522.225 887.781, 1517 890.116 C 1511.775 892.452, 1505.343 895.631, 1502.706 897.181 C 1500.069 898.731, 1497.317 900, 1496.591 900 C 1495.864 900, 1494.197 900.808, 1492.885 901.795 C 1491.573 902.783, 1488.475 904.442, 1486 905.483 C 1483.525 906.524, 1480.825 907.902, 1480 908.545 C 1479.175 909.188, 1475.350 911.172, 1471.500 912.952 C 1467.650 914.733, 1463.600 916.974, 1462.500 917.933 C 1461.400 918.892, 1458.700 920.551, 1456.500 921.619 C 1451.816 923.893, 1441.403 929.902, 1435 934.026 C 1432.525 935.621, 1429.150 937.549, 1427.500 938.311 C 1425.850 939.073, 1423.085 940.890, 1421.356 942.348 C 1419.626 943.807, 1417.544 945, 1416.728 945 C 1415.912 945, 1414.694 945.664, 1414.020 946.476 C 1413.346 947.288, 1407.103 951.758, 1400.147 956.409 C 1393.191 961.060, 1386.506 965.796, 1385.292 966.933 C 1384.077 968.070, 1382.681 969, 1382.188 969 C 1381.695 969, 1380.168 970.013, 1378.794 971.250 C 1372.537 976.887, 1368.755 980.001, 1368.154 980.013 C 1367.794 980.021, 1365.025 982.265, 1362 985 C 1358.975 987.735, 1356.195 989.979, 1355.821 989.987 C 1355.448 989.994, 1354.548 990.563, 1353.821 991.250 C 1353.094 991.938, 1350.699 994.014, 1348.499 995.864 C 1331.380 1010.261, 1295.560 1046.032, 1290.211 1054.071 C 1288.236 1057.039, 1287.570 1057.860, 1282.063 1064.112 C 1279.828 1066.648, 1278 1069.031, 1278 1069.406 C 1278 1069.781, 1275.075 1073.682, 1271.500 1078.074 C 1267.925 1082.466, 1265 1086.526, 1265 1087.097 C 1265 1088.219, 1260.256 1094.873, 1258.295 1096.500 C 1256.128 1098.299, 1254.832 1103.093, 1256.101 1104.622 C 1258.243 1107.203, 1258.446 1107.065, 1274.625 1092.093 C 1289.967 1077.895, 1295.782 1072.811, 1298.720 1071.024 C 1300.402 1070.001, 1301.941 1068.790, 1302.139 1068.332 C 1302.999 1066.349, 1329.218 1046, 1330.913 1046 C 1331.376 1046, 1332.337 1045.299, 1333.049 1044.441 C 1334.802 1042.328, 1345.816 1034, 1346.856 1034 C 1347.315 1034, 1348.505 1033.100, 1349.500 1032 C 1350.495 1030.900, 1351.815 1030, 1352.432 1030 C 1353.049 1030, 1354.972 1028.763, 1356.705 1027.250 C 1361.718 1022.876, 1378.244 1012, 1379.879 1012 C 1380.325 1012, 1381.505 1011.100, 1382.500 1010 C 1383.495 1008.900, 1384.648 1008, 1385.061 1008 C 1385.474 1008, 1389.567 1005.739, 1394.156 1002.976 C 1405.545 996.119, 1406.142 995.745, 1408.873 993.750 C 1410.191 992.787, 1411.902 992, 1412.674 992 C 1413.447 992, 1416.418 990.425, 1419.276 988.500 C 1422.135 986.575, 1424.981 985, 1425.602 985 C 1426.222 985, 1427.803 984.176, 1429.115 983.169 C 1430.427 982.162, 1434.875 979.625, 1439 977.531 C 1447.896 973.015, 1447.946 972.989, 1459.667 966.822 C 1464.709 964.170, 1469.369 962, 1470.023 962 C 1470.676 962, 1472.548 960.875, 1474.182 959.500 C 1475.816 958.125, 1477.933 957, 1478.886 957 C 1479.838 957, 1483.233 955.425, 1486.430 953.500 C 1489.627 951.575, 1493.500 950, 1495.038 950 C 1496.575 950, 1497.983 949.648, 1498.167 949.217 C 1498.657 948.065, 1505.894 944, 1507.455 944 C 1508.192 944, 1511.516 942.650, 1514.841 941 C 1518.167 939.350, 1521.476 937.992, 1522.194 937.981 C 1522.912 937.971, 1526.592 936.396, 1530.370 934.481 C 1534.149 932.567, 1537.890 931, 1538.684 931 C 1539.478 931, 1542.562 929.887, 1545.537 928.526 C 1548.513 927.165, 1552.196 925.741, 1553.723 925.361 C 1555.251 924.981, 1558.075 923.772, 1560 922.675 C 1561.925 921.578, 1565.750 920.105, 1568.500 919.401 C 1571.250 918.698, 1575.300 917.449, 1577.500 916.626 C 1598.243 908.863, 1606.639 905.932, 1609.500 905.456 C 1612.439 904.967, 1623.198 901.219, 1625.405 899.915 C 1626.452 899.296, 1628.252 898.666, 1629.405 898.515 C 1632.726 898.080, 1645.573 894.299, 1647.824 893.094 C 1648.948 892.492, 1651.495 892, 1653.484 892 C 1655.472 892, 1658.330 891.364, 1659.834 890.586 C 1661.338 889.808, 1664.354 888.857, 1666.535 888.473 C 1668.716 888.090, 1671.497 887.151, 1672.715 886.388 C 1673.933 885.624, 1676.123 885, 1677.581 885 C 1680.099 885, 1683.224 884.133, 1696.103 879.859 C 1699.184 878.837, 1703.272 878, 1705.186 878 C 1707.100 878, 1709.001 877.663, 1709.410 877.250 C 1709.819 876.837, 1713.607 875.757, 1717.827 874.848 C 1722.047 873.939, 1727.525 872.663, 1730 872.011 C 1732.475 871.360, 1736.075 870.678, 1738 870.496 C 1743.581 869.968, 1759.362 866.412, 1761.717 865.151 C 1762.901 864.518, 1766.142 864, 1768.920 864 C 1771.698 864, 1775.890 863.547, 1778.236 862.994 C 1780.581 862.441, 1786.325 861.090, 1791 859.993 C 1795.675 858.895, 1806.475 857.058, 1815 855.911 C 1841.036 852.405, 1843.042 852.092, 1844.237 851.353 C 1844.873 850.960, 1851.267 850.101, 1858.447 849.444 C 1878.909 847.572, 1892.151 845.989, 1896.500 844.896 C 1902.122 843.483, 1934.257 841.304, 1969 839.980 C 2001.723 838.733, 2001 838.820, 2001 836.161 C 2001 834.160, 1984.010 818.765, 1981.374 818.379 C 1980.575 818.261, 1978.445 816.553, 1976.640 814.583 C 1974.835 812.612, 1972.912 811, 1972.366 811 C 1971.821 811, 1970.052 809.599, 1968.437 807.887 C 1966.822 806.174, 1963.925 803.748, 1962 802.496 C 1960.075 801.243, 1956.956 798.819, 1955.070 797.109 C 1953.183 795.399, 1951.208 794, 1950.679 794 C 1949.465 794, 1942.250 787.938, 1936.100 781.750 C 1933.504 779.138, 1930.922 777, 1930.364 777 C 1929.806 777, 1928.265 775.847, 1926.941 774.438 C 1925.617 773.028, 1922.951 770.917, 1921.017 769.746 C 1917.541 767.641, 1907.072 759.282, 1905.888 757.665 C 1905.552 757.205, 1905.074 756.980, 1904.827 757.165 C 1904.580 757.349, 1901.348 754.807, 1897.644 751.515 C 1893.941 748.223, 1890.143 745.113, 1889.205 744.605 C 1887.761 743.822, 1876.455 734.289, 1872.180 730.250 C 1871.452 729.563, 1870.327 728.995, 1869.679 728.988 C 1869.030 728.982, 1866.475 727.056, 1864 724.708 C 1861.525 722.361, 1857.238 718.839, 1854.474 716.883 C 1847.884 712.218, 1833.172 700.767, 1830 697.833 C 1828.625 696.562, 1827.185 695.517, 1826.800 695.511 C 1826.415 695.505, 1824.600 693.925, 1822.767 692 C 1819.502 688.572, 1806.281 677.476, 1803.106 675.500 C 1802.223 674.950, 1801.275 674.272, 1801 673.994 C 1800.725 673.716, 1798.700 672.173, 1796.500 670.564 C 1794.300 668.956, 1790.866 666.258, 1788.868 664.570 C 1778.358 655.687, 1775.534 653.375, 1773.610 652.078 C 1772.449 651.296, 1769.445 648.821, 1766.934 646.578 C 1764.423 644.335, 1756.773 638.386, 1749.934 633.358 C 1743.095 628.330, 1736.643 623.267, 1735.595 622.108 C 1734.547 620.948, 1733.085 620, 1732.345 620 C 1731.605 620, 1729.300 618.313, 1727.223 616.250 C 1725.146 614.188, 1721.096 610.720, 1718.223 608.545 C 1715.350 606.369, 1713 604.231, 1713 603.795 C 1713 603.358, 1712.647 603.112, 1712.215 603.250 C 1711.784 603.387, 1709.421 601.624, 1706.965 599.332 C 1704.509 597.039, 1701.150 594.123, 1699.500 592.850 C 1697.850 591.578, 1696.350 590.191, 1696.167 589.768 C 1695.983 589.346, 1695.265 589, 1694.570 589 C 1693.875 589, 1691.685 587.425, 1689.703 585.500 C 1687.721 583.575, 1685.736 582, 1685.292 582 C 1684.848 582, 1681.647 579.525, 1678.179 576.500 C 1674.710 573.475, 1671.281 571, 1670.559 571 C 1669.836 571, 1668.627 570.244, 1667.872 569.321 C 1665.225 566.082, 1644.755 549.033, 1644.043 549.474 C 1643.646 549.718, 1640.908 547.687, 1637.956 544.959 C 1635.005 542.232, 1632.062 540, 1631.417 540 C 1629.880 540, 1627.683 537.322, 1628.344 536.252 C 1629.028 535.145, 1611.629 518, 1609.821 518 C 1609.049 518, 1606.429 515.975, 1604 513.500 C 1601.571 511.025, 1599.184 509, 1598.695 509 C 1598.207 509, 1595.762 507.200, 1593.263 505 C 1590.067 502.187, 1587.796 500.994, 1585.609 500.981 C 1583.171 500.966, 1580.516 499.239, 1573.310 492.981 C 1568.255 488.591, 1563.734 485, 1563.262 485 C 1562.791 485, 1560.648 483.200, 1558.500 481 C 1554.297 476.696, 1549.390 475.960, 1538.500 477.999" stroke="none" fill="#9ba364" fill-rule="evenodd"/><path d="M 868.200 16.200 C 866.447 17.953, 866.676 21.187, 869.979 41.331 C 877.652 88.118, 880.784 157.094, 876.920 194.144 C 874.342 218.857, 875.679 264.856, 879.503 283 C 880.257 286.575, 881.147 291.525, 881.482 294 C 883.073 305.754, 891.708 330.998, 899.095 345.487 C 917.446 381.483, 944.767 404.027, 996 425.450 C 999.575 426.945, 1003.850 428.770, 1005.500 429.506 C 1032.124 441.377, 1038.631 444.490, 1047 449.361 C 1050.025 451.122, 1054.025 453.448, 1055.889 454.531 C 1072.546 464.207, 1097.168 489.864, 1104.323 505 C 1104.713 505.825, 1106.362 508.525, 1107.987 511 C 1109.613 513.475, 1111.940 517.525, 1113.160 520 C 1114.380 522.475, 1116.324 526.075, 1117.480 528 C 1118.636 529.925, 1120.422 533.525, 1121.449 536 C 1122.476 538.475, 1124.417 542.975, 1125.763 546 C 1129.563 554.543, 1129.796 555.119, 1132.031 561.500 C 1142.276 590.747, 1150.885 623.406, 1155.490 650.500 C 1160.339 679.031, 1161.829 688.977, 1163.432 703.500 C 1164.221 710.650, 1165.335 720.775, 1165.909 726 C 1168.534 749.922, 1172.360 805.163, 1173.942 842 C 1176.322 897.428, 1188.042 878.166, 1189.458 816.500 C 1189.647 808.250, 1190.143 786.721, 1190.560 768.657 C 1191.152 743.010, 1191.048 735.648, 1190.084 735.052 C 1189.248 734.535, 1188.402 727.691, 1187.468 713.894 C 1182.730 643.898, 1179.351 604.542, 1177.426 596.951 C 1174.661 586.041, 1164.177 555.177, 1161.438 549.880 C 1160.619 548.296, 1160.159 547, 1160.416 547 C 1161.321 547, 1150.324 523.909, 1143.033 510.500 C 1138.848 502.803, 1122.642 478.675, 1115.228 469.105 C 1112.078 465.038, 1109.050 460.988, 1108.500 460.105 C 1107.950 459.222, 1105.700 456.454, 1103.500 453.954 C 1082.493 430.077, 1055.062 395.736, 1052 389.478 C 1051.725 388.916, 1050.112 386.441, 1048.417 383.978 C 1045.105 379.169, 1036.496 363.734, 1033.928 358 C 1033.065 356.075, 1031.378 352.475, 1030.178 350 C 1027.221 343.899, 1021.923 329.226, 1017.540 315 C 1014.819 306.167, 1007.753 274.914, 1008.343 274.324 C 1008.539 274.128, 1010.618 279.712, 1012.964 286.734 C 1015.310 293.755, 1017.628 299.927, 1018.115 300.450 C 1018.602 300.972, 1019 301.990, 1019 302.711 C 1019 303.432, 1019.941 306.154, 1021.091 308.761 C 1028.450 325.445, 1031.269 331.679, 1032.051 333 C 1032.539 333.825, 1033.841 336.300, 1034.944 338.500 C 1036.048 340.700, 1037.339 343.175, 1037.815 344 C 1038.290 344.825, 1039.943 347.975, 1041.488 351 C 1043.033 354.025, 1044.793 357.121, 1045.399 357.880 C 1046.004 358.640, 1047.850 361.634, 1049.500 364.534 C 1054.840 373.919, 1060.294 382.405, 1063.685 386.603 C 1065.508 388.860, 1067 391.094, 1067 391.568 C 1067 392.042, 1067.892 393.345, 1068.982 394.465 C 1070.072 395.584, 1074.857 401.450, 1079.615 407.500 C 1096.560 429.044, 1106.789 439.910, 1110.182 439.970 C 1111.918 440.001, 1124 424.700, 1124 422.471 C 1124 421.797, 1124.722 420.646, 1125.604 419.914 C 1126.486 419.181, 1127.613 417.664, 1128.108 416.541 C 1128.603 415.418, 1130.581 411.649, 1132.504 408.165 C 1134.427 404.681, 1136 401.342, 1136 400.744 C 1136 400.147, 1136.607 398.947, 1137.348 398.079 C 1138.090 397.210, 1139.390 394.475, 1140.237 392 C 1141.084 389.525, 1142.993 384.350, 1144.479 380.500 C 1145.966 376.650, 1147.866 370.575, 1148.701 367 C 1149.537 363.425, 1150.882 357.800, 1151.689 354.500 C 1155.162 340.300, 1154.409 299.473, 1150.389 284 C 1149.603 280.975, 1148.751 277.375, 1148.496 276 C 1148.241 274.625, 1146.648 269.450, 1144.956 264.500 C 1143.263 259.550, 1141.286 253.699, 1140.561 251.497 C 1138.919 246.504, 1130.327 228.650, 1125.404 220 C 1123.369 216.425, 1121.068 212.375, 1120.290 211 C 1110.018 192.842, 1082.794 159.702, 1061.694 139.670 C 1049.438 128.033, 1029.753 110.543, 1024.281 106.426 C 1021.411 104.267, 1013.986 98.630, 1007.781 93.900 C 977.891 71.115, 939.606 48.081, 895.500 26.347 C 871.965 14.750, 870.277 14.123, 868.200 16.200 M 618.500 469.653 C 616.300 471.616, 611.350 475.586, 607.500 478.474 C 603.650 481.363, 599.409 484.913, 598.076 486.363 C 596.742 487.813, 595.211 489, 594.672 489 C 594.134 489, 591.362 491.137, 588.513 493.750 C 578.094 503.303, 570.115 510, 569.153 510 C 568.610 510, 568.017 510.337, 567.833 510.750 C 567.650 511.163, 565.025 513.510, 562 515.967 C 558.975 518.424, 553.887 522.811, 550.693 525.717 C 547.499 528.623, 544.269 531, 543.516 531 C 542.762 531, 541.325 532.013, 540.323 533.250 C 538.053 536.052, 519.376 551.985, 518.293 552.042 C 517.857 552.065, 515.250 554.311, 512.500 557.033 C 509.750 559.756, 507.035 561.987, 506.466 561.991 C 505.897 561.996, 502.987 564.475, 500 567.500 C 497.013 570.525, 494.196 573, 493.741 573 C 493.285 573, 491.142 574.638, 488.978 576.641 C 486.813 578.643, 484.020 580.970, 482.771 581.811 C 481.522 582.652, 478.231 585.401, 475.459 587.920 C 468.705 594.056, 457.163 603.401, 455.711 603.910 C 455.068 604.135, 452.558 606.160, 450.134 608.410 C 443.955 614.142, 444.054 614.056, 438.500 618.597 C 435.750 620.845, 432.750 623.093, 431.833 623.592 C 430.916 624.092, 427.879 626.668, 425.083 629.318 C 422.287 631.968, 420 633.858, 420 633.518 C 420 633.177, 418.538 634.299, 416.750 636.010 C 414.962 637.722, 408.325 643.306, 402 648.420 C 395.675 653.535, 389.643 658.682, 388.595 659.859 C 387.547 661.037, 386.264 662, 385.744 662 C 385.223 662, 382.567 664.138, 379.841 666.750 C 377.115 669.362, 374.689 671.391, 374.450 671.258 C 374.210 671.124, 371.268 673.599, 367.911 676.758 C 364.554 679.916, 361.063 682.920, 360.154 683.433 C 359.244 683.946, 356.301 686.100, 353.613 688.220 C 349.100 691.780, 345.571 694.746, 333.056 705.500 C 328.591 709.337, 323.062 714.011, 314.524 721.167 C 312.337 723, 309.552 725.465, 308.335 726.644 C 307.117 727.823, 305.930 728.597, 305.696 728.363 C 305.462 728.129, 302.322 730.539, 298.719 733.719 C 295.115 736.898, 289.127 741.975, 285.412 745 C 281.696 748.025, 276.934 752.206, 274.828 754.292 C 272.723 756.378, 270.993 757.728, 270.985 757.292 C 270.976 756.856, 270.639 756.974, 270.235 757.553 C 269.566 758.511, 237.941 784.757, 225.618 794.579 C 222.803 796.823, 219.882 799.411, 219.128 800.329 C 218.373 801.248, 217.298 802, 216.739 802 C 216.181 802, 213.822 803.688, 211.498 805.750 C 209.174 807.813, 204.263 811.975, 200.585 815 C 196.907 818.025, 191.076 822.975, 187.626 826 C 184.177 829.025, 177.397 834.650, 172.561 838.500 C 167.724 842.350, 162.695 846.533, 161.384 847.795 C 160.073 849.058, 159 849.845, 159 849.545 C 159 849.245, 158.160 849.787, 157.134 850.750 C 155.100 852.658, 146.986 859.629, 143 862.893 C 141.625 864.019, 138.925 866.309, 137 867.981 C 125.966 877.569, 124.191 879, 123.334 879 C 122.816 879, 120.866 880.575, 119 882.500 C 117.134 884.425, 115.044 886, 114.355 886 C 113.666 886, 111.978 887.462, 110.605 889.250 C 108.323 892.220, 105.995 894.197, 93.632 903.664 C 91.360 905.405, 87.925 908.215, 86 909.910 C 78.908 916.153, 72.237 921.716, 68.419 924.570 C 66.264 926.181, 63.680 928.513, 62.677 929.750 C 61.675 930.988, 60.402 932, 59.849 932 C 59.296 932, 55.569 934.942, 51.567 938.538 C 38.563 950.223, 43.036 952.643, 66.500 946.619 C 82.653 942.473, 98.983 938.956, 106.551 937.995 C 110.430 937.502, 116.955 936.450, 121.051 935.656 C 128.365 934.239, 136.597 933.090, 154.500 930.987 C 159.450 930.406, 167.325 929.476, 172 928.921 C 240.223 920.819, 363.259 921.098, 447.500 929.547 C 481.095 932.916, 490.405 933.931, 497.500 935.001 C 500.800 935.498, 507.100 936.359, 511.500 936.914 C 515.900 937.469, 523.550 938.435, 528.500 939.061 C 533.450 939.688, 539.525 940.558, 542 940.995 C 544.475 941.432, 550.325 942.336, 555 943.004 C 559.675 943.672, 570.025 945.488, 578 947.040 C 585.975 948.592, 594.975 950.161, 598 950.527 C 601.025 950.893, 606.650 951.999, 610.500 952.985 C 616.812 954.602, 620.123 955.291, 628 956.628 C 629.375 956.862, 635.086 958.183, 640.691 959.564 C 646.296 960.946, 652.596 962.296, 654.691 962.564 C 656.786 962.832, 659.850 963.462, 661.500 963.964 C 668.850 966.200, 679.990 969.007, 680.710 968.805 C 681.144 968.683, 685.325 969.763, 690 971.205 C 694.675 972.647, 700.704 974.128, 703.397 974.497 C 708.105 975.141, 709.020 975.432, 713.538 977.720 C 714.660 978.288, 717.585 979.061, 720.038 979.439 C 724.137 980.069, 734.285 983.087, 749.500 988.202 C 752.800 989.311, 757.750 990.796, 760.500 991.502 C 763.250 992.209, 767.975 993.678, 771 994.768 C 774.025 995.858, 778.300 997.294, 780.500 997.959 C 782.700 998.624, 786.408 1000.030, 788.739 1001.084 C 791.071 1002.138, 793.771 1003.003, 794.739 1003.006 C 795.708 1003.010, 797.799 1003.690, 799.388 1004.518 C 800.976 1005.346, 804.753 1006.745, 807.782 1007.625 C 810.811 1008.506, 815.587 1010.296, 818.395 1011.603 C 821.203 1012.911, 824.513 1013.985, 825.750 1013.990 C 826.987 1013.996, 828 1014.398, 828 1014.883 C 828 1015.369, 829.013 1016.007, 830.250 1016.301 C 833.489 1017.071, 840.857 1019.834, 845.500 1022.021 C 850.021 1024.150, 861.980 1029.008, 863.500 1029.333 C 864.050 1029.450, 866.694 1030.773, 869.376 1032.273 C 872.058 1033.773, 874.664 1035, 875.168 1035 C 875.671 1035, 879.006 1036.366, 882.578 1038.037 C 886.150 1039.707, 889.448 1040.841, 889.906 1040.558 C 890.364 1040.275, 892.035 1041.161, 893.620 1042.528 C 895.204 1043.894, 897.400 1045.271, 898.500 1045.589 C 899.600 1045.906, 902.975 1047.336, 906 1048.766 C 909.025 1050.197, 913.075 1052.072, 915 1052.934 C 916.925 1053.795, 918.650 1054.838, 918.833 1055.250 C 919.017 1055.662, 919.743 1056, 920.448 1056 C 921.153 1056, 922.874 1056.900, 924.273 1058 C 925.671 1059.100, 927.419 1060.012, 928.158 1060.026 C 928.896 1060.040, 931.954 1061.615, 934.954 1063.526 C 943.873 1069.208, 952.791 1067.665, 946.952 1061.449 C 945.687 1060.102, 944.138 1059, 943.511 1059 C 942.884 1059, 939.164 1056.300, 935.243 1053 C 931.323 1049.700, 927.752 1046.998, 927.308 1046.995 C 926.863 1046.993, 925.062 1045.643, 923.304 1043.995 C 921.547 1042.348, 919.704 1041, 919.209 1041 C 918.715 1041, 917.495 1040.100, 916.500 1039 C 915.505 1037.900, 914.152 1037, 913.495 1037 C 912.838 1037, 910.320 1035.549, 907.900 1033.775 C 905.480 1032.001, 903.205 1030.538, 902.845 1030.525 C 902.485 1030.511, 900.883 1029.375, 899.285 1028 C 897.687 1026.625, 895.884 1025.401, 895.277 1025.279 C 894.671 1025.158, 892.497 1023.920, 890.448 1022.529 C 888.398 1021.138, 886.264 1020, 885.705 1020 C 885.146 1020, 883.214 1018.875, 881.411 1017.500 C 879.608 1016.125, 877.808 1015, 877.411 1015 C 877.014 1015, 875.296 1013.944, 873.594 1012.654 C 871.892 1011.364, 868.700 1009.484, 866.500 1008.477 C 864.300 1007.469, 861.263 1005.794, 859.750 1004.754 C 858.237 1003.715, 857 1003.150, 857 1003.500 C 857 1003.850, 855.763 1003.255, 854.250 1002.179 C 852.737 1001.102, 847.675 998.320, 843 995.997 C 838.325 993.674, 833.375 991.122, 832 990.327 C 829.412 988.831, 821.821 985.258, 814 981.855 C 811.525 980.778, 807.864 979.020, 805.864 977.948 C 803.864 976.877, 801.700 976, 801.054 976 C 800.409 976, 795.971 974.147, 791.191 971.882 C 786.411 969.616, 781.600 967.414, 780.500 966.988 C 779.400 966.561, 774.900 964.766, 770.500 963 C 761.555 959.408, 748.812 954.627, 742 952.306 C 739.525 951.462, 733.900 949.424, 729.500 947.776 C 725.100 946.128, 720.468 944.592, 719.207 944.362 C 717.946 944.133, 713.552 942.610, 709.443 940.977 C 705.334 939.345, 701.641 938.092, 701.236 938.193 C 700.831 938.294, 696.107 936.942, 690.738 935.188 C 685.369 933.435, 680.194 932, 679.238 931.999 C 678.282 931.999, 675.133 931.099, 672.239 929.999 C 669.346 928.900, 665.948 928, 664.689 928 C 663.430 928, 661.934 927.534, 661.364 926.964 C 660.794 926.394, 658.487 925.706, 656.237 925.435 C 653.987 925.164, 648.176 923.611, 643.323 921.983 C 638.470 920.356, 633.375 919.010, 632 918.993 C 629.506 918.963, 611.707 914.555, 610.122 913.576 C 609.663 913.292, 607.310 912.822, 604.894 912.532 C 602.477 912.242, 595.100 910.697, 588.500 909.099 C 581.900 907.500, 573.800 905.634, 570.500 904.950 C 567.200 904.267, 561.350 902.889, 557.500 901.890 C 553.650 900.890, 546.900 899.592, 542.500 899.006 C 538.100 898.419, 532.475 897.563, 530 897.102 C 518.772 895.012, 499.506 891.915, 489 890.510 C 482.675 889.665, 470.975 888.098, 463 887.029 C 455.025 885.959, 438.600 884.143, 426.500 882.992 C 414.400 881.842, 400.675 880.474, 396 879.953 C 361.372 876.092, 248.510 876.506, 223.152 880.587 C 218.894 881.272, 218.832 881.242, 220.142 879.143 C 220.879 877.965, 221.935 876.990, 222.491 876.977 C 223.046 876.964, 225.141 875.502, 227.147 873.727 C 229.153 871.952, 233.130 868.700, 235.984 866.500 C 250.670 855.180, 262.697 845.329, 264.323 843.288 C 265.325 842.030, 266.694 841, 267.364 841 C 268.035 841, 270.571 838.975, 273 836.500 C 275.429 834.025, 277.909 832, 278.512 832 C 279.115 832, 281.128 830.432, 282.985 828.515 C 284.843 826.598, 286.577 825.244, 286.838 825.505 C 287.100 825.766, 289.420 824.072, 291.995 821.740 C 294.570 819.408, 299.560 815.250, 303.084 812.500 C 306.608 809.750, 311.406 805.755, 313.746 803.623 C 316.086 801.490, 318 800.023, 318 800.363 C 318 800.988, 319.896 799.541, 325.024 795 C 326.577 793.625, 331.092 790.025, 335.058 787 C 339.024 783.975, 345.784 778.491, 350.082 774.814 C 354.379 771.137, 360.281 766.586, 363.198 764.700 C 366.114 762.814, 369.591 760.086, 370.924 758.636 C 372.258 757.186, 373.789 756, 374.328 756 C 374.866 756, 377.618 753.862, 380.442 751.250 C 383.267 748.638, 389.557 743.350, 394.420 739.500 C 399.283 735.650, 404.936 731.046, 406.982 729.268 C 409.028 727.490, 410.995 726.328, 411.351 726.685 C 411.708 727.041, 412 726.557, 412 725.608 C 412 724.659, 412.381 724.118, 412.847 724.405 C 413.313 724.693, 415 723.544, 416.597 721.851 C 418.194 720.158, 421.300 717.630, 423.500 716.232 C 425.700 714.834, 430.250 711.285, 433.611 708.345 C 436.972 705.405, 440.124 703, 440.615 703 C 441.107 703, 443.757 700.730, 446.504 697.955 C 450.917 693.498, 455.725 689.678, 460.921 686.500 C 461.820 685.950, 466.526 682.125, 471.377 678 C 476.229 673.875, 481.104 669.983, 482.212 669.352 C 483.319 668.720, 486.312 666.194, 488.862 663.738 C 491.413 661.282, 495.975 657.461, 499 655.247 C 502.025 653.034, 506.051 649.598, 507.946 647.611 C 509.842 645.625, 511.909 644, 512.541 644 C 513.173 644, 514.505 643.100, 515.500 642 C 516.495 640.900, 517.820 640, 518.443 640 C 519.066 640, 521.781 637.760, 524.477 635.023 C 527.173 632.286, 529.554 630.221, 529.768 630.435 C 529.982 630.649, 532.484 628.622, 535.329 625.932 C 538.173 623.241, 540.950 621.026, 541.500 621.011 C 542.050 620.995, 544.157 619.412, 546.183 617.491 C 548.209 615.571, 550.187 614, 550.580 614 C 550.972 614, 553.416 612.087, 556.011 609.750 C 562.844 603.595, 568.728 599, 569.778 599 C 570.280 599, 571.547 598.053, 572.595 596.895 C 573.642 595.738, 580.286 590.225, 587.358 584.645 C 594.430 579.065, 603.880 571.433, 608.358 567.685 C 612.836 563.937, 617.175 560.612, 618 560.295 C 618.825 559.979, 621.823 557.475, 624.662 554.731 C 627.501 551.987, 631.404 548.788, 633.334 547.621 C 638.449 544.530, 650.728 534.860, 656.500 529.376 C 659.250 526.764, 661.725 524.560, 662 524.479 C 664.628 523.707, 667.826 521.914, 668.914 520.604 C 671.069 518.007, 683.448 519.040, 710.500 524.073 C 713.800 524.687, 718.525 525.405, 721 525.669 C 726.609 526.267, 747.583 532.216, 751.835 534.415 C 755.465 536.292, 757.164 535.562, 764.290 529.062 C 766.375 527.160, 770.425 523.917, 773.290 521.854 C 780.011 517.016, 787.322 511.236, 791.179 507.711 C 792.858 506.178, 795.979 504.031, 798.116 502.941 C 800.252 501.851, 802 500.732, 802 500.454 C 802 499.719, 787.002 493, 785.362 493 C 784.598 493, 783.191 492.559, 782.236 492.020 C 778.803 490.083, 752.287 481.876, 743.500 480.030 C 740.200 479.337, 736.150 478.424, 734.500 478 C 732.850 477.576, 728.800 476.694, 725.500 476.040 C 722.200 475.386, 717.925 474.455, 716 473.972 C 712.160 473.008, 697.968 471.169, 694 471.121 C 692.625 471.105, 684.975 470.411, 677 469.579 C 629.756 464.649, 624.099 464.657, 618.500 469.653 M 1745.917 466.403 C 1745.688 466.625, 1737.850 467.331, 1728.500 467.971 C 1719.150 468.611, 1709.925 469.519, 1708 469.990 C 1706.075 470.460, 1700.225 471.112, 1695 471.438 C 1675.862 472.632, 1648.217 478.329, 1623 486.273 C 1606.157 491.580, 1595.523 495.269, 1594.550 496.145 C 1594.027 496.615, 1592.902 497.014, 1592.050 497.032 C 1588.777 497.099, 1586.244 499.970, 1588.387 501.184 C 1589.425 501.772, 1591.954 503.771, 1594.008 505.626 C 1596.062 507.482, 1598.157 509, 1598.663 509 C 1599.169 509, 1601.538 510.991, 1603.927 513.425 C 1606.316 515.860, 1609.222 518.098, 1610.385 518.401 C 1611.548 518.703, 1616.230 522.739, 1620.789 527.369 L 1629.078 535.789 1637.789 532.993 C 1653.344 528, 1657.337 526.945, 1664.475 525.942 C 1668.339 525.400, 1672.175 524.750, 1673 524.499 C 1684.407 521.024, 1716.189 518.317, 1718.128 520.655 C 1718.882 521.565, 1720.963 522.921, 1722.750 523.668 C 1724.537 524.416, 1726 525.423, 1726 525.907 C 1726 526.390, 1730.357 530.547, 1735.682 535.143 C 1741.007 539.739, 1747.466 545.413, 1750.036 547.750 C 1752.605 550.087, 1755.031 552, 1755.428 552 C 1756.346 552, 1774.541 567.126, 1784.296 576 C 1787.017 578.475, 1789.833 580.725, 1790.554 581 C 1791.275 581.275, 1795.910 585.212, 1800.854 589.750 C 1805.798 594.288, 1810.162 598, 1810.552 598 C 1810.942 598, 1814.690 600.937, 1818.881 604.526 C 1823.071 608.115, 1826.950 611.386, 1827.500 611.794 C 1829.938 613.603, 1846.615 628.422, 1847.659 629.707 C 1848.296 630.491, 1849.022 630.991, 1849.272 630.817 C 1849.522 630.642, 1852.205 632.750, 1855.235 635.500 C 1862.724 642.297, 1865 644.108, 1865 643.272 C 1865 642.882, 1867.588 645.058, 1870.750 648.107 C 1873.912 651.157, 1877.625 654.354, 1879 655.211 C 1881.078 656.506, 1888.096 662.556, 1899.500 672.881 C 1905.374 678.199, 1933.540 701.744, 1935.766 703.197 C 1937.196 704.130, 1940.402 706.830, 1942.891 709.197 C 1945.380 711.564, 1948.716 714.480, 1950.305 715.678 C 1951.894 716.876, 1955.175 719.714, 1957.597 721.983 C 1960.019 724.253, 1962 725.792, 1962 725.403 C 1962 724.796, 1967.262 729.314, 1977 738.283 C 1978.375 739.549, 1982.200 742.654, 1985.500 745.182 C 1988.800 747.710, 1992.591 750.953, 1993.924 752.389 C 1995.258 753.825, 1996.878 755, 1997.525 755 C 1998.172 755, 2000.990 757.362, 2003.787 760.250 C 2009.409 766.052, 2016.339 772, 2017.477 772 C 2017.881 772, 2022.379 775.825, 2027.472 780.500 C 2032.565 785.175, 2037.158 789, 2037.679 789 C 2038.200 789, 2039.948 790.390, 2041.563 792.089 C 2043.178 793.788, 2046.372 796.282, 2048.659 797.631 C 2050.946 798.980, 2053.057 800.705, 2053.348 801.465 C 2053.640 802.225, 2056.493 804.775, 2059.689 807.131 C 2062.885 809.488, 2068.650 814.276, 2072.500 817.772 C 2083.170 827.462, 2089.011 832.537, 2094.500 836.886 C 2097.250 839.065, 2100.850 842.109, 2102.500 843.649 C 2104.150 845.190, 2108.200 848.586, 2111.500 851.197 C 2118.107 856.423, 2122.249 860.021, 2132 869.004 C 2135.575 872.298, 2139.683 875.530, 2141.128 876.186 C 2146.079 878.435, 2146.881 881.394, 2142.348 880.684 C 2136.733 879.804, 2116.835 877.975, 2114.500 878.124 C 2113.400 878.194, 2099.450 877.923, 2083.500 877.522 C 2066.624 877.097, 2038.404 877.254, 2016 877.899 C 1979.871 878.938, 1967.021 879.796, 1932.500 883.475 C 1924.800 884.296, 1915.125 885.197, 1911 885.477 C 1906.875 885.758, 1901.250 886.403, 1898.500 886.910 C 1895.750 887.418, 1889.900 888.344, 1885.500 888.968 C 1881.100 889.592, 1875.025 890.510, 1872 891.008 C 1868.975 891.505, 1863.983 892.153, 1860.906 892.447 C 1857.829 892.741, 1850.854 893.844, 1845.406 894.899 C 1835.521 896.814, 1828.288 898.054, 1816 899.941 C 1812.425 900.490, 1805.675 901.846, 1801 902.954 C 1796.325 904.062, 1789.575 905.447, 1786 906.031 C 1782.425 906.615, 1774.775 908.249, 1769 909.661 C 1763.225 911.074, 1757.375 912.352, 1756 912.501 C 1754.625 912.650, 1747.650 914.210, 1740.500 915.967 C 1733.350 917.724, 1725.250 919.633, 1722.500 920.210 C 1719.750 920.786, 1717.050 921.569, 1716.500 921.949 C 1715.352 922.742, 1710.502 924.134, 1700.500 926.542 C 1696.650 927.468, 1690.800 929.059, 1687.500 930.076 C 1668.299 935.993, 1660.333 938.358, 1659 938.538 C 1658.175 938.649, 1653.787 940.137, 1649.250 941.845 C 1644.713 943.553, 1641 944.743, 1641 944.489 C 1641 944.236, 1638.638 944.968, 1635.750 946.116 C 1632.862 947.264, 1628.250 948.888, 1625.500 949.726 C 1622.750 950.564, 1617.350 952.471, 1613.500 953.964 C 1609.650 955.456, 1604.475 957.292, 1602 958.042 C 1599.525 958.793, 1596.024 960.216, 1594.220 961.204 C 1592.415 962.192, 1590.165 963.010, 1589.220 963.022 C 1588.274 963.035, 1584.800 964.375, 1581.500 966 C 1578.200 967.625, 1575.107 968.965, 1574.626 968.978 C 1573.674 969.002, 1559.926 974.880, 1553.500 978.011 C 1551.300 979.082, 1547.482 980.661, 1545.016 981.518 C 1542.550 982.375, 1539.400 983.829, 1538.016 984.749 C 1536.632 985.669, 1534.957 986.509, 1534.293 986.616 C 1533.201 986.792, 1531.796 987.437, 1525.500 990.654 C 1519.273 993.836, 1511.995 997.194, 1511.300 997.206 C 1510.860 997.214, 1509.306 998.070, 1507.846 999.110 C 1506.386 1000.149, 1504.753 1001, 1504.218 1001 C 1503.683 1001, 1502.689 1001.670, 1502.009 1002.489 C 1501.329 1003.308, 1500.428 1003.764, 1500.005 1003.503 C 1499.583 1003.242, 1497.593 1004.144, 1495.584 1005.508 C 1493.574 1006.871, 1490.259 1008.815, 1488.215 1009.826 C 1482.683 1012.566, 1474.705 1017.095, 1473 1018.464 C 1472.175 1019.127, 1469.475 1020.715, 1467 1021.993 C 1464.525 1023.271, 1461.369 1024.900, 1459.987 1025.613 C 1458.604 1026.327, 1456.579 1027.743, 1455.487 1028.761 C 1454.394 1029.779, 1453.050 1030.753, 1452.500 1030.926 C 1449.037 1032.012, 1447.248 1032.996, 1446 1034.500 C 1445.220 1035.440, 1443.664 1036.621, 1442.541 1037.124 C 1431.967 1041.869, 1414.400 1055.870, 1413.839 1060 C 1413.093 1065.500, 1421.919 1062.606, 1449.147 1048.421 C 1451.703 1047.089, 1454.481 1046, 1455.321 1046 C 1456.160 1046, 1458.221 1044.844, 1459.901 1043.430 C 1461.581 1042.017, 1464.365 1040.682, 1466.088 1040.464 C 1467.811 1040.245, 1470.850 1039.106, 1472.840 1037.932 C 1474.830 1036.758, 1477.215 1035.651, 1478.140 1035.473 C 1479.064 1035.295, 1482.224 1034.039, 1485.160 1032.681 C 1493.893 1028.645, 1502.685 1025, 1503.687 1025 C 1504.203 1025, 1506.502 1024.093, 1508.797 1022.984 C 1511.092 1021.875, 1516.239 1019.803, 1520.235 1018.379 C 1524.231 1016.954, 1527.927 1015.387, 1528.450 1014.895 C 1528.972 1014.403, 1530.359 1014, 1531.531 1014 C 1532.702 1014, 1535.875 1012.866, 1538.581 1011.479 C 1541.286 1010.093, 1544.923 1008.722, 1546.662 1008.432 C 1548.400 1008.142, 1552.111 1006.801, 1554.907 1005.452 C 1557.703 1004.104, 1560.780 1003.002, 1561.745 1003.005 C 1562.710 1003.008, 1566.875 1001.723, 1571 1000.149 C 1575.125 998.574, 1582.550 996.068, 1587.500 994.578 C 1592.450 993.088, 1600.550 990.602, 1605.500 989.053 C 1610.450 987.504, 1617.875 985.248, 1622 984.039 C 1626.125 982.831, 1630.534 981.427, 1631.797 980.921 C 1633.060 980.414, 1634.957 980, 1636.012 980 C 1638.084 980, 1646.227 977.527, 1649.543 975.891 C 1650.667 975.337, 1654.042 974.498, 1657.043 974.028 C 1660.044 973.557, 1665.875 972.213, 1670 971.043 C 1674.125 969.872, 1678.625 968.737, 1680 968.521 C 1681.375 968.305, 1685.200 967.414, 1688.500 966.542 C 1699.885 963.531, 1701.520 963.142, 1707 962.136 C 1710.025 961.581, 1714.300 960.671, 1716.500 960.112 C 1720.828 959.015, 1728.987 957.228, 1733 956.500 C 1734.375 956.250, 1737.525 955.633, 1740 955.128 C 1758.881 951.274, 1766.591 949.791, 1781.500 947.145 C 1810.866 941.935, 1828.138 939.343, 1849 937.013 C 1854.775 936.368, 1862.200 935.449, 1865.500 934.971 C 1882.042 932.576, 1888.046 931.856, 1894 931.552 C 1897.575 931.370, 1909.725 930.301, 1921 929.176 C 1981.347 923.157, 2055.676 921.480, 2128 924.505 C 2160.285 925.856, 2170.305 926.578, 2189 928.904 C 2193.125 929.417, 2201.225 930.337, 2207 930.948 C 2225.089 932.863, 2256.419 937.880, 2270.500 941.117 C 2272.700 941.623, 2277.875 942.687, 2282 943.482 C 2286.125 944.276, 2292.650 945.871, 2296.500 947.024 C 2306 949.871, 2312.934 951.239, 2314.609 950.597 C 2318.380 949.149, 2313.995 940.260, 2308.329 937.866 C 2307.853 937.665, 2306.489 936.239, 2305.297 934.698 C 2304.106 933.158, 2302.989 931.994, 2302.816 932.113 C 2302.051 932.637, 2298 929.395, 2298 928.259 C 2298 927.567, 2297.607 927, 2297.126 927 C 2296.183 927, 2286.354 918.617, 2278.879 911.438 C 2276.337 908.997, 2273.790 907, 2273.218 907 C 2272.646 907, 2270.955 905.538, 2269.460 903.750 C 2267.966 901.962, 2266.155 900.275, 2265.438 900 C 2264.720 899.725, 2261.004 896.462, 2257.179 892.750 C 2253.354 889.038, 2249.777 886, 2249.231 886 C 2248.684 886, 2247.036 884.425, 2245.568 882.500 C 2244.100 880.575, 2242.293 879, 2241.553 879 C 2240.813 879, 2238.824 877.425, 2237.134 875.500 C 2235.444 873.575, 2233.655 872, 2233.158 872 C 2232.661 872, 2230.909 870.425, 2229.265 868.500 C 2227.621 866.575, 2225.857 865, 2225.346 865 C 2224.835 865, 2222.832 863.538, 2220.894 861.750 C 2218.957 859.962, 2213.588 855.125, 2208.962 851 C 2204.337 846.875, 2199.347 842.375, 2197.874 841 C 2192.813 836.277, 2190.171 834.163, 2189.797 834.537 C 2189.591 834.743, 2186.319 831.781, 2182.527 827.956 C 2178.735 824.130, 2175.217 821, 2174.709 821 C 2174.201 821, 2171.358 818.454, 2168.393 815.343 C 2165.427 812.231, 2163 810.024, 2163 810.438 C 2163 811.127, 2146.476 796.916, 2139.584 790.299 C 2137.980 788.760, 2135.402 786.562, 2133.853 785.415 C 2132.305 784.268, 2128.656 781.113, 2125.744 778.403 C 2122.833 775.693, 2116.636 770.285, 2111.975 766.385 C 2107.314 762.486, 2101.956 757.847, 2100.070 756.078 C 2098.183 754.309, 2095.798 752.271, 2094.768 751.550 C 2093.739 750.829, 2090.557 748.027, 2087.698 745.324 C 2084.839 742.620, 2079.575 738.002, 2076 735.061 C 2072.425 732.121, 2069.169 729.216, 2068.765 728.607 C 2068.361 727.998, 2068.024 727.840, 2068.015 728.257 C 2068.007 728.673, 2065.339 726.310, 2062.086 723.007 C 2058.833 719.703, 2055.777 717, 2055.294 717 C 2054.811 717, 2052.429 714.975, 2050 712.500 C 2047.571 710.025, 2045.208 708, 2044.749 708 C 2044.289 708, 2041.288 705.300, 2038.079 702 C 2034.870 698.700, 2031.762 696, 2031.172 696 C 2030.582 696, 2029.740 695.437, 2029.300 694.748 C 2028.860 694.059, 2024.675 690.276, 2020 686.342 C 2015.325 682.407, 2008.079 676.108, 2003.897 672.344 C 1999.716 668.580, 1995.216 664.643, 1993.897 663.596 C 1991.148 661.413, 1979.060 650.727, 1974.121 646.113 C 1972.288 644.401, 1970.605 643, 1970.380 643 C 1970.156 643, 1968.741 641.658, 1967.236 640.017 C 1965.731 638.377, 1963.073 636.015, 1961.328 634.767 C 1956.465 631.291, 1941.360 618.281, 1933.444 610.750 C 1929.542 607.038, 1925.985 604, 1925.540 604 C 1925.095 604, 1920.442 600.063, 1915.199 595.250 C 1909.957 590.438, 1905.301 586.500, 1904.853 586.500 C 1904.404 586.500, 1901.217 583.516, 1897.769 579.868 C 1894.321 576.221, 1890.775 572.846, 1889.888 572.368 C 1889.002 571.891, 1884.586 568.125, 1880.075 564 C 1875.564 559.875, 1870.661 555.981, 1869.178 555.346 C 1867.696 554.711, 1865.630 553.248, 1864.587 552.096 C 1863.543 550.943, 1862.163 550, 1861.519 550 C 1860.875 550, 1859.292 548.875, 1858 547.500 C 1856.708 546.125, 1856.025 545, 1856.481 545 C 1856.937 545, 1856.495 544.100, 1855.500 543 C 1854.505 541.900, 1853.155 541, 1852.500 541 C 1851.845 541, 1850.495 540.100, 1849.500 539 C 1848.505 537.900, 1848.055 537, 1848.500 537 C 1848.945 537, 1848.495 536.100, 1847.500 535 C 1846.505 533.900, 1845.261 533, 1844.738 533 C 1844.214 533, 1838.096 528.003, 1831.143 521.895 C 1811.545 504.680, 1811.057 504.276, 1810.512 504.821 C 1810.231 505.103, 1810 504.583, 1810 503.667 C 1810 502.750, 1809.640 502.112, 1809.201 502.250 C 1808.762 502.387, 1803.345 497.775, 1797.163 492 C 1790.982 486.225, 1785.379 481.333, 1784.712 481.129 C 1784.045 480.925, 1781.925 479.274, 1780 477.460 C 1778.075 475.646, 1774.037 472.325, 1771.027 470.081 L 1765.554 466 1755.944 466 C 1750.658 466, 1746.146 466.182, 1745.917 466.403 M 5709 699 L 5709 926 5714.493 926 L 5719.987 926 5720.243 853.518 L 5720.500 781.036 5782.843 853.518 L 5845.186 926 5853.696 926 L 5862.206 926 5856.238 919.250 C 5834.926 895.146, 5734.673 779.285, 5734.302 778.331 C 5734.053 777.689, 5758.970 749.333, 5789.674 715.319 C 5820.378 681.306, 5846.134 652.675, 5846.908 651.695 C 5848.237 650.014, 5847.869 649.930, 5840.336 650.207 L 5832.355 650.500 5776.427 713.482 L 5720.500 776.464 5720.247 624.232 L 5719.994 472 5714.497 472 L 5709 472 5709 699 M 5920 699 L 5920 926 5925.500 926 L 5931 926 5931 888.800 C 5931 868.340, 5931.377 852.027, 5931.838 852.550 C 5932.299 853.072, 5933.701 856.425, 5934.953 860 C 5976.739 979.281, 6121.195 948.354, 6138.489 816.424 C 6159.862 653.379, 5994.314 569.842, 5936.168 714.331 C 5934.007 719.700, 5931.960 724.373, 5931.620 724.714 C 5931.279 725.054, 5931 668.333, 5931 598.667 L 5931 472 5925.500 472 L 5920 472 5920 699 M 6792 699 L 6792 926 6797.493 926 L 6802.987 926 6803.243 853.518 L 6803.500 781.036 6865.843 853.518 L 6928.186 926 6936.696 926 L 6945.206 926 6939.238 919.250 C 6917.926 895.146, 6817.673 779.285, 6817.302 778.331 C 6817.053 777.689, 6841.970 749.333, 6872.674 715.319 C 6903.378 681.306, 6929.134 652.675, 6929.908 651.695 C 6931.237 650.014, 6930.869 649.930, 6923.336 650.207 L 6915.355 650.500 6859.427 713.482 L 6803.500 776.464 6803.247 624.232 L 6802.994 472 6797.497 472 L 6792 472 6792 699 M 2574 713.500 L 2574 926 2581 926 L 2588 926 2588 819 L 2588 712 2730.500 712 L 2873 712 2873 819 L 2873 926 2880 926 L 2887 926 2887 713.500 L 2887 501 2880 501 L 2873 501 2873 600 L 2873 699 2730.500 699 L 2588 699 2588 600 L 2588 501 2581 501 L 2574 501 2574 713.500 M 3013 713.500 L 3013 926 3142 926 L 3271 926 3271 919.500 L 3271 913 3149 913 L 3027 913 3027 812.500 L 3027 712 3137 712 L 3247 712 3247 705.500 L 3247 699 3137 699 L 3027 699 3027 606.500 L 3027 514 3144 514 L 3261 514 3261 507.500 L 3261 501 3137 501 L 3013 501 3013 713.500 M 3406.743 712.725 C 3356.277 829.201, 3314.990 924.837, 3314.993 925.250 C 3314.997 925.663, 3318.297 926, 3322.327 926 L 3329.653 926 3355.680 865.250 L 3381.707 804.500 3504.631 804.246 L 3627.554 803.992 3652.630 864.746 L 3677.706 925.500 3685.353 925.792 C 3689.559 925.953, 3693 925.927, 3693 925.736 C 3693 925.544, 3653.285 830.013, 3604.744 713.444 L 3516.489 501.500 3507.494 501.225 L 3498.500 500.950 3406.743 712.725 M 3767 713.500 L 3767 926 3879.500 926 L 3992 926 3992 919.500 L 3992 913 3886.500 913 L 3781 913 3781 707 L 3781 501 3774 501 L 3767 501 3767 713.500 M 3955 507.500 L 3955 514 4027.500 514 L 4100 514 4100 720 L 4100 926 4107 926 L 4114 926 4114 720 L 4114 514 4186.500 514 L 4259 514 4259 507.500 L 4259 501 4107 501 L 3955 501 3955 507.500 M 4332 713.500 L 4332 926 4339 926 L 4346 926 4346 819 L 4346 712 4488.500 712 L 4631 712 4631 819 L 4631 926 4638 926 L 4645 926 4645 713.500 L 4645 501 4638 501 L 4631 501 4631 600 L 4631 699 4488.500 699 L 4346 699 4346 600 L 4346 501 4339 501 L 4332 501 4332 713.500 M 3447.045 651.222 C 3414.430 727.825, 3387.530 791.063, 3387.266 791.750 C 3386.884 792.746, 3410.818 793, 3504.893 793 C 3569.852 793, 3623 792.820, 3623 792.600 C 3623 791.638, 3507.798 513.421, 3507.110 512.722 C 3506.689 512.295, 3479.660 574.620, 3447.045 651.222 M 4978.516 643.659 C 4862.520 668.512, 4854.478 890.880, 4968.177 929.560 C 5002.654 941.289, 5044.958 930.653, 5068.334 904.379 L 5072 900.257 5068.130 895.897 L 5064.260 891.536 5055.719 899.621 C 5004.503 948.101, 4927.723 917.784, 4905.553 840.326 C 4869.153 713.154, 4977.391 597.348, 5055.381 680.021 L 5062.212 687.262 5066.855 682.619 L 5071.498 677.976 5061.459 668.238 C 5038.620 646.083, 5008.653 637.203, 4978.516 643.659 M 5209 643.436 C 5145.112 656.798, 5106.551 727.286, 5116.518 812.490 C 5134.776 968.574, 5313.399 978.238, 5341.282 824.650 C 5360.826 717.002, 5294.127 625.632, 5209 643.436 M 5496 643.436 C 5432.112 656.798, 5393.551 727.286, 5403.518 812.490 C 5421.776 968.574, 5600.399 978.238, 5628.282 824.650 C 5647.826 717.002, 5581.127 625.632, 5496 643.436 M 6293 643.436 C 6229.112 656.798, 6190.551 727.286, 6200.518 812.490 C 6218.776 968.574, 6397.399 978.238, 6425.282 824.650 C 6444.826 717.002, 6378.127 625.632, 6293 643.436 M 6580 643.436 C 6516.112 656.798, 6477.551 727.286, 6487.518 812.490 C 6505.776 968.574, 6684.399 978.238, 6712.282 824.650 C 6731.826 717.002, 6665.127 625.632, 6580 643.436 M 5219.466 654.062 C 5095.367 665.982, 5095.688 910.306, 5219.818 921.879 C 5287.235 928.165, 5336.154 866.674, 5332.691 780 C 5329.483 699.715, 5282.955 647.963, 5219.466 654.062 M 5506.466 654.062 C 5382.367 665.982, 5382.688 910.306, 5506.818 921.879 C 5574.235 928.165, 5623.154 866.674, 5619.691 780 C 5616.483 699.715, 5569.955 647.963, 5506.466 654.062 M 6021.846 654.108 C 5946.117 661.827, 5905.181 779.636, 5948.595 864.914 C 5995.498 957.043, 6103.536 934.578, 6124.923 828.249 C 6144.227 732.284, 6093.623 646.792, 6021.846 654.108 M 6303.466 654.062 C 6179.367 665.982, 6179.688 910.306, 6303.818 921.879 C 6371.235 928.165, 6420.154 866.674, 6416.691 780 C 6413.483 699.715, 6366.955 647.963, 6303.466 654.062 M 6590.466 654.062 C 6466.367 665.982, 6466.688 910.306, 6590.818 921.879 C 6658.235 928.165, 6707.154 866.674, 6703.691 780 C 6700.483 699.715, 6653.955 647.963, 6590.466 654.062 M 450.199 966.597 C 448.715 967.242, 445.721 969.622, 443.547 971.885 C 441.373 974.148, 439.043 976, 438.370 976 C 437.696 976, 436.172 977.237, 434.982 978.750 C 433.792 980.263, 432.416 981.500, 431.923 981.500 C 431.430 981.500, 429.783 982.764, 428.263 984.310 C 426.744 985.855, 421.900 990.061, 417.500 993.656 C 413.100 997.251, 409.050 1000.722, 408.500 1001.369 C 407.628 1002.393, 397.323 1011.439, 388.429 1018.986 C 386.818 1020.353, 382.721 1023.841, 379.324 1026.736 C 375.927 1029.631, 372.697 1032, 372.147 1032 C 371.597 1032, 371.001 1032.598, 370.823 1033.330 C 370.492 1034.694, 362.126 1042.318, 358.017 1045 C 356.753 1045.825, 354.095 1047.967, 352.110 1049.761 C 350.124 1051.554, 345.012 1056.019, 340.750 1059.684 C 333.890 1065.581, 333 1066.740, 333 1069.770 L 333 1073.193 337.750 1072.713 C 343.742 1072.108, 349.786 1070.514, 353.565 1068.542 C 355.179 1067.700, 358.075 1066.741, 360 1066.412 C 361.925 1066.083, 365.881 1064.955, 368.792 1063.905 C 371.702 1062.856, 376.877 1061.365, 380.292 1060.592 C 383.706 1059.820, 389.200 1058.489, 392.500 1057.636 C 403.344 1054.830, 418.346 1051.736, 427.500 1050.415 C 432.450 1049.702, 438.750 1048.655, 441.500 1048.089 C 447.319 1046.893, 466.596 1044.283, 479.404 1042.958 C 484.301 1042.452, 489.026 1041.830, 489.904 1041.578 C 490.782 1041.325, 496.900 1040.846, 503.500 1040.512 C 510.100 1040.178, 523.600 1039.160, 533.500 1038.249 C 559.448 1035.861, 634.280 1035.872, 664 1038.268 C 675.825 1039.222, 692.025 1040.467, 700 1041.035 C 707.975 1041.602, 718.100 1042.457, 722.500 1042.934 C 742.705 1045.122, 751.179 1046.178, 760 1047.609 C 765.225 1048.456, 773.325 1049.596, 778 1050.143 C 782.675 1050.689, 790.475 1052.037, 795.333 1053.138 C 800.191 1054.239, 807.166 1055.504, 810.833 1055.949 C 814.500 1056.395, 820.875 1057.703, 825 1058.856 C 839.886 1063.018, 848.287 1059, 837 1053.117 C 834.800 1051.970, 833 1051.287, 833 1051.598 C 833 1051.909, 831.537 1051.282, 829.750 1050.206 C 827.962 1049.130, 822.450 1046.587, 817.500 1044.556 C 812.550 1042.524, 806.025 1039.793, 803 1038.485 C 799.975 1037.177, 795.700 1035.572, 793.500 1034.918 C 791.300 1034.264, 787.813 1032.881, 785.750 1031.844 C 783.688 1030.808, 782 1030.188, 782 1030.467 C 782 1030.746, 779.574 1029.902, 776.610 1028.591 C 773.645 1027.280, 769.708 1025.881, 767.860 1025.483 C 766.012 1025.085, 761.800 1023.751, 758.500 1022.518 C 755.200 1021.285, 748 1018.856, 742.500 1017.120 C 737 1015.385, 728.955 1012.848, 724.622 1011.482 C 720.290 1010.117, 716.074 1009, 715.254 1009 C 713.621 1009, 701.786 1005.326, 698.349 1003.753 C 697.165 1003.211, 695.590 1002.976, 694.849 1003.230 C 694.107 1003.485, 691.025 1002.825, 688 1001.764 C 684.975 1000.703, 678.675 998.983, 674 997.942 C 669.325 996.901, 661.675 995.143, 657 994.036 C 638.630 989.686, 622.222 986.062, 616.500 985.091 C 613.200 984.531, 607.350 983.375, 603.500 982.523 C 599.650 981.670, 594.475 980.733, 592 980.441 C 589.525 980.148, 583 979.012, 577.500 977.915 C 572 976.819, 563.450 975.487, 558.500 974.956 C 553.550 974.425, 547.025 973.539, 544 972.986 C 531.824 970.761, 524.936 969.881, 513 969.023 C 506.125 968.529, 495.775 967.665, 490 967.102 C 473.581 965.501, 453.312 965.243, 450.199 966.597 M 1887 966 C 1864.375 966.932, 1844.878 968.709, 1824.500 971.694 C 1814.600 973.145, 1803.125 974.673, 1799 975.090 C 1794.875 975.507, 1786.550 976.754, 1780.500 977.861 C 1774.450 978.968, 1765.225 980.609, 1760 981.507 C 1754.775 982.405, 1747.575 983.771, 1744 984.543 C 1740.425 985.314, 1733.900 986.684, 1729.500 987.587 C 1725.100 988.491, 1719.700 989.644, 1717.500 990.150 C 1715.300 990.656, 1710.037 991.726, 1705.804 992.528 C 1701.572 993.330, 1696.172 994.635, 1693.804 995.427 C 1691.437 996.219, 1687.475 997.148, 1685 997.490 C 1682.525 997.832, 1678.025 998.960, 1675 999.997 C 1671.975 1001.033, 1667.700 1002.172, 1665.500 1002.527 C 1663.300 1002.882, 1657.225 1004.446, 1652 1006.004 C 1646.775 1007.561, 1639.575 1009.572, 1636 1010.473 C 1632.425 1011.373, 1628.375 1012.541, 1627 1013.068 C 1625.625 1013.595, 1623.534 1014.211, 1622.354 1014.436 C 1619.375 1015.004, 1604.776 1019.761, 1597.230 1022.622 C 1593.782 1023.930, 1590.299 1025, 1589.491 1025 C 1588.682 1025, 1584.979 1026.227, 1581.261 1027.726 C 1577.542 1029.225, 1573.971 1030.338, 1573.325 1030.199 C 1572.679 1030.060, 1571.865 1030.409, 1571.516 1030.973 C 1571.167 1031.538, 1570.229 1032, 1569.430 1032 C 1568.632 1032, 1566.071 1032.861, 1563.739 1033.913 C 1561.408 1034.965, 1557.700 1036.373, 1555.500 1037.042 C 1553.300 1037.711, 1550.375 1038.831, 1549 1039.531 C 1547.625 1040.231, 1542.900 1042.249, 1538.500 1044.014 C 1529.493 1047.628, 1524.963 1049.566, 1517 1053.214 C 1513.975 1054.599, 1511.158 1055.784, 1510.740 1055.846 C 1507.882 1056.272, 1504 1059.328, 1504 1061.153 C 1504 1063.811, 1514.524 1062.737, 1533.310 1058.162 C 1537.815 1057.064, 1544.425 1055.691, 1548 1055.109 C 1551.575 1054.527, 1556.750 1053.573, 1559.500 1052.989 C 1562.250 1052.405, 1567.875 1051.500, 1572 1050.978 C 1576.125 1050.457, 1584.900 1049.137, 1591.500 1048.045 C 1598.100 1046.954, 1608.450 1045.576, 1614.500 1044.985 C 1620.550 1044.393, 1628.875 1043.503, 1633 1043.006 C 1637.125 1042.509, 1650.554 1041.417, 1662.842 1040.580 C 1675.130 1039.743, 1692.860 1038.334, 1702.242 1037.448 C 1722.383 1035.547, 1810.452 1035.846, 1827 1037.871 C 1832.225 1038.510, 1843.475 1039.677, 1852 1040.463 C 1877.062 1042.775, 1901.587 1045.907, 1915.258 1048.541 C 1922.274 1049.894, 1929.024 1050.999, 1930.258 1050.999 C 1932.426 1050.998, 1948.181 1054.445, 1960.500 1057.616 C 1963.800 1058.465, 1968.525 1059.594, 1971 1060.123 C 1976.138 1061.223, 1989.654 1065.174, 1998.500 1068.163 C 2014.553 1073.587, 2019.947 1073.962, 2021.088 1069.735 C 2021.708 1067.439, 2021.402 1066.674, 2019.285 1065.235 C 2017.883 1064.281, 2014.377 1061.250, 2011.494 1058.500 C 2008.612 1055.750, 2003.433 1051.025, 1999.985 1048 C 1996.537 1044.975, 1992.293 1041.150, 1990.554 1039.500 C 1988.815 1037.850, 1983.440 1032.900, 1978.609 1028.500 C 1973.778 1024.100, 1968.377 1019.150, 1966.608 1017.500 C 1964.838 1015.850, 1959.417 1010.900, 1954.560 1006.500 C 1949.704 1002.100, 1944.296 997.150, 1942.544 995.500 C 1940.792 993.850, 1936.275 989.800, 1932.508 986.500 C 1928.740 983.200, 1924.753 979.487, 1923.648 978.250 C 1922.543 977.013, 1921.124 976, 1920.494 976 C 1919.154 976, 1915.004 971.802, 1914.992 970.436 C 1914.980 968.933, 1907.320 964.983, 1904.802 965.181 C 1903.536 965.280, 1895.525 965.648, 1887 966" stroke="none" fill="#443c73" fill-rule="evenodd"/></svg>