<svg xmlns="http://www.w3.org/2000/svg" width="2379" height="2379" viewBox="0 0 2379 2379" version="1.1"><path d="M 868.200 452.200 C 866.447 453.953, 866.676 457.187, 869.979 477.331 C 877.652 524.118, 880.784 593.094, 876.920 630.144 C 874.342 654.857, 875.679 700.856, 879.503 719 C 880.257 722.575, 881.147 727.525, 881.482 730 C 883.073 741.754, 891.708 766.998, 899.095 781.487 C 917.446 817.483, 944.767 840.027, 996 861.450 C 999.575 862.945, 1003.850 864.770, 1005.500 865.506 C 1032.124 877.377, 1038.631 880.490, 1047 885.361 C 1050.025 887.122, 1054.025 889.448, 1055.889 890.531 C 1072.546 900.207, 1097.168 925.864, 1104.323 941 C 1104.713 941.825, 1106.362 944.525, 1107.987 947 C 1109.613 949.475, 1111.940 953.525, 1113.160 956 C 1114.380 958.475, 1116.324 962.075, 1117.480 964 C 1118.636 965.925, 1120.422 969.525, 1121.449 972 C 1122.476 974.475, 1124.417 978.975, 1125.763 982 C 1129.563 990.543, 1129.796 991.119, 1132.031 997.500 C 1142.276 1026.747, 1150.885 1059.406, 1155.490 1086.500 C 1160.339 1115.031, 1161.829 1124.977, 1163.432 1139.500 C 1164.221 1146.650, 1165.335 1156.775, 1165.909 1162 C 1168.534 1185.922, 1172.360 1241.163, 1173.942 1278 C 1176.322 1333.428, 1188.042 1314.166, 1189.458 1252.500 C 1189.647 1244.250, 1190.143 1222.721, 1190.560 1204.657 C 1191.152 1179.010, 1191.048 1171.648, 1190.084 1171.052 C 1189.248 1170.535, 1188.402 1163.691, 1187.468 1149.894 C 1182.730 1079.898, 1179.351 1040.542, 1177.426 1032.951 C 1174.661 1022.041, 1164.177 991.177, 1161.438 985.880 C 1160.619 984.296, 1160.159 983, 1160.416 983 C 1161.321 983, 1150.324 959.909, 1143.033 946.500 C 1138.848 938.803, 1122.642 914.675, 1115.228 905.105 C 1112.078 901.038, 1109.050 896.988, 1108.500 896.105 C 1107.950 895.222, 1105.700 892.454, 1103.500 889.954 C 1082.493 866.077, 1055.062 831.736, 1052 825.478 C 1051.725 824.916, 1050.112 822.441, 1048.417 819.978 C 1045.105 815.169, 1036.496 799.734, 1033.928 794 C 1033.065 792.075, 1031.378 788.475, 1030.178 786 C 1027.221 779.899, 1021.923 765.226, 1017.540 751 C 1014.819 742.167, 1007.753 710.914, 1008.343 710.324 C 1008.539 710.128, 1010.618 715.712, 1012.964 722.734 C 1015.310 729.755, 1017.628 735.927, 1018.115 736.450 C 1018.602 736.972, 1019 737.990, 1019 738.711 C 1019 739.432, 1019.941 742.154, 1021.091 744.761 C 1028.450 761.445, 1031.269 767.679, 1032.051 769 C 1032.539 769.825, 1033.841 772.300, 1034.944 774.500 C 1036.048 776.700, 1037.339 779.175, 1037.815 780 C 1038.290 780.825, 1039.943 783.975, 1041.488 787 C 1043.033 790.025, 1044.793 793.121, 1045.399 793.880 C 1046.004 794.640, 1047.850 797.634, 1049.500 800.534 C 1054.840 809.919, 1060.294 818.405, 1063.685 822.603 C 1065.508 824.860, 1067 827.094, 1067 827.568 C 1067 828.042, 1067.892 829.345, 1068.982 830.465 C 1070.072 831.584, 1074.857 837.450, 1079.615 843.500 C 1096.560 865.044, 1106.789 875.910, 1110.182 875.970 C 1111.918 876.001, 1124 860.700, 1124 858.471 C 1124 857.797, 1124.722 856.646, 1125.604 855.914 C 1126.486 855.181, 1127.613 853.664, 1128.108 852.541 C 1128.603 851.418, 1130.581 847.649, 1132.504 844.165 C 1134.427 840.681, 1136 837.342, 1136 836.744 C 1136 836.147, 1136.607 834.947, 1137.348 834.079 C 1138.090 833.210, 1139.390 830.475, 1140.237 828 C 1141.084 825.525, 1142.993 820.350, 1144.479 816.500 C 1145.966 812.650, 1147.866 806.575, 1148.701 803 C 1149.537 799.425, 1150.882 793.800, 1151.689 790.500 C 1155.162 776.300, 1154.409 735.473, 1150.389 720 C 1149.603 716.975, 1148.751 713.375, 1148.496 712 C 1148.241 710.625, 1146.648 705.450, 1144.956 700.500 C 1143.263 695.550, 1141.286 689.699, 1140.561 687.497 C 1138.919 682.504, 1130.327 664.650, 1125.404 656 C 1123.369 652.425, 1121.068 648.375, 1120.290 647 C 1110.018 628.842, 1082.794 595.702, 1061.694 575.670 C 1049.438 564.033, 1029.753 546.543, 1024.281 542.426 C 1021.411 540.267, 1013.986 534.630, 1007.781 529.900 C 977.891 507.115, 939.606 484.081, 895.500 462.347 C 871.965 450.750, 870.277 450.123, 868.200 452.200 M 618.500 905.653 C 616.300 907.616, 611.350 911.586, 607.500 914.474 C 603.650 917.363, 599.409 920.913, 598.076 922.363 C 596.742 923.813, 595.211 925, 594.672 925 C 594.134 925, 591.362 927.138, 588.513 929.750 C 578.094 939.303, 570.115 946, 569.153 946 C 568.610 946, 568.017 946.337, 567.833 946.750 C 567.650 947.163, 565.025 949.510, 562 951.967 C 558.975 954.424, 553.887 958.811, 550.693 961.717 C 547.499 964.623, 544.269 967, 543.516 967 C 542.762 967, 541.325 968.013, 540.323 969.250 C 538.053 972.052, 519.376 987.985, 518.293 988.042 C 517.857 988.065, 515.250 990.311, 512.500 993.033 C 509.750 995.756, 507.035 997.987, 506.466 997.991 C 505.897 997.996, 502.987 1000.475, 500 1003.500 C 497.013 1006.525, 494.196 1009, 493.741 1009 C 493.285 1009, 491.142 1010.638, 488.978 1012.641 C 486.813 1014.643, 484.020 1016.970, 482.771 1017.811 C 481.522 1018.652, 478.231 1021.401, 475.459 1023.920 C 468.705 1030.056, 457.163 1039.401, 455.711 1039.910 C 455.068 1040.135, 452.558 1042.160, 450.134 1044.410 C 443.955 1050.142, 444.054 1050.056, 438.500 1054.597 C 435.750 1056.845, 432.750 1059.093, 431.833 1059.592 C 430.916 1060.092, 427.879 1062.668, 425.083 1065.318 C 422.287 1067.968, 420 1069.858, 420 1069.518 C 420 1069.177, 418.538 1070.299, 416.750 1072.010 C 414.962 1073.722, 408.325 1079.306, 402 1084.420 C 395.675 1089.535, 389.643 1094.682, 388.595 1095.859 C 387.547 1097.037, 386.264 1098, 385.744 1098 C 385.223 1098, 382.567 1100.138, 379.841 1102.750 C 377.115 1105.362, 374.689 1107.391, 374.450 1107.258 C 374.210 1107.124, 371.268 1109.599, 367.911 1112.758 C 364.554 1115.916, 361.063 1118.920, 360.154 1119.433 C 359.244 1119.946, 356.301 1122.100, 353.613 1124.220 C 349.100 1127.780, 345.571 1130.746, 333.056 1141.500 C 328.591 1145.337, 323.062 1150.011, 314.524 1157.167 C 312.337 1159, 309.552 1161.465, 308.335 1162.644 C 307.117 1163.823, 305.930 1164.597, 305.696 1164.363 C 305.462 1164.129, 302.322 1166.539, 298.719 1169.719 C 295.115 1172.898, 289.127 1177.975, 285.412 1181 C 281.696 1184.025, 276.934 1188.206, 274.828 1190.292 C 272.723 1192.378, 270.993 1193.728, 270.985 1193.292 C 270.976 1192.856, 270.639 1192.974, 270.235 1193.553 C 269.566 1194.511, 237.941 1220.757, 225.618 1230.579 C 222.803 1232.823, 219.882 1235.411, 219.128 1236.329 C 218.373 1237.248, 217.298 1238, 216.739 1238 C 216.181 1238, 213.822 1239.688, 211.498 1241.750 C 209.174 1243.813, 204.263 1247.975, 200.585 1251 C 196.907 1254.025, 191.076 1258.975, 187.626 1262 C 184.177 1265.025, 177.397 1270.650, 172.561 1274.500 C 167.724 1278.350, 162.695 1282.533, 161.384 1283.795 C 160.073 1285.058, 159 1285.845, 159 1285.545 C 159 1285.245, 158.160 1285.787, 157.134 1286.750 C 155.100 1288.658, 146.986 1295.629, 143 1298.893 C 141.625 1300.019, 138.925 1302.309, 137 1303.981 C 125.966 1313.569, 124.191 1315, 123.334 1315 C 122.816 1315, 120.866 1316.575, 119 1318.500 C 117.134 1320.425, 115.044 1322, 114.355 1322 C 113.666 1322, 111.978 1323.463, 110.605 1325.250 C 108.323 1328.220, 105.995 1330.197, 93.632 1339.664 C 91.360 1341.405, 87.925 1344.215, 86 1345.910 C 78.908 1352.153, 72.237 1357.716, 68.419 1360.570 C 66.264 1362.181, 63.680 1364.513, 62.677 1365.750 C 61.675 1366.987, 60.402 1368, 59.849 1368 C 59.296 1368, 55.569 1370.942, 51.567 1374.538 C 38.563 1386.223, 43.036 1388.643, 66.500 1382.619 C 82.653 1378.473, 98.983 1374.956, 106.551 1373.995 C 110.430 1373.502, 116.955 1372.450, 121.051 1371.656 C 128.365 1370.239, 136.597 1369.090, 154.500 1366.987 C 159.450 1366.406, 167.325 1365.476, 172 1364.921 C 240.223 1356.819, 363.259 1357.098, 447.500 1365.547 C 481.095 1368.916, 490.405 1369.931, 497.500 1371.001 C 500.800 1371.498, 507.100 1372.359, 511.500 1372.914 C 515.900 1373.469, 523.550 1374.435, 528.500 1375.061 C 533.450 1375.688, 539.525 1376.558, 542 1376.995 C 544.475 1377.432, 550.325 1378.336, 555 1379.004 C 559.675 1379.672, 570.025 1381.488, 578 1383.040 C 585.975 1384.592, 594.975 1386.161, 598 1386.527 C 601.025 1386.893, 606.650 1387.999, 610.500 1388.985 C 616.812 1390.602, 620.123 1391.291, 628 1392.628 C 629.375 1392.862, 635.086 1394.183, 640.691 1395.564 C 646.296 1396.946, 652.596 1398.296, 654.691 1398.564 C 656.786 1398.832, 659.850 1399.462, 661.500 1399.964 C 668.850 1402.200, 679.990 1405.007, 680.710 1404.805 C 681.144 1404.683, 685.325 1405.763, 690 1407.205 C 694.675 1408.647, 700.704 1410.128, 703.397 1410.497 C 708.105 1411.141, 709.020 1411.432, 713.538 1413.720 C 714.660 1414.288, 717.585 1415.061, 720.038 1415.439 C 724.137 1416.069, 734.285 1419.087, 749.500 1424.202 C 752.800 1425.311, 757.750 1426.796, 760.500 1427.502 C 763.250 1428.209, 767.975 1429.678, 771 1430.768 C 774.025 1431.858, 778.300 1433.294, 780.500 1433.959 C 782.700 1434.624, 786.408 1436.030, 788.739 1437.084 C 791.071 1438.138, 793.771 1439.003, 794.739 1439.006 C 795.708 1439.010, 797.799 1439.690, 799.388 1440.518 C 800.976 1441.346, 804.753 1442.745, 807.782 1443.625 C 810.811 1444.506, 815.587 1446.296, 818.395 1447.603 C 821.203 1448.911, 824.513 1449.985, 825.750 1449.990 C 826.987 1449.996, 828 1450.398, 828 1450.883 C 828 1451.369, 829.013 1452.007, 830.250 1452.301 C 833.489 1453.071, 840.857 1455.834, 845.500 1458.021 C 850.021 1460.150, 861.980 1465.008, 863.500 1465.333 C 864.050 1465.450, 866.694 1466.773, 869.376 1468.273 C 872.058 1469.773, 874.664 1471, 875.168 1471 C 875.671 1471, 879.006 1472.366, 882.578 1474.037 C 886.150 1475.707, 889.448 1476.841, 889.906 1476.558 C 890.364 1476.275, 892.035 1477.161, 893.620 1478.528 C 895.204 1479.894, 897.400 1481.271, 898.500 1481.589 C 899.600 1481.906, 902.975 1483.336, 906 1484.766 C 909.025 1486.197, 913.075 1488.072, 915 1488.934 C 916.925 1489.795, 918.650 1490.838, 918.833 1491.250 C 919.017 1491.662, 919.743 1492, 920.448 1492 C 921.153 1492, 922.874 1492.900, 924.273 1494 C 925.671 1495.100, 927.419 1496.012, 928.158 1496.026 C 928.896 1496.040, 931.954 1497.615, 934.954 1499.526 C 943.873 1505.208, 952.791 1503.665, 946.952 1497.449 C 945.687 1496.102, 944.138 1495, 943.511 1495 C 942.884 1495, 939.164 1492.300, 935.243 1489 C 931.323 1485.700, 927.752 1482.998, 927.308 1482.995 C 926.863 1482.993, 925.062 1481.643, 923.304 1479.995 C 921.547 1478.348, 919.704 1477, 919.209 1477 C 918.715 1477, 917.495 1476.100, 916.500 1475 C 915.505 1473.900, 914.152 1473, 913.495 1473 C 912.838 1473, 910.320 1471.549, 907.900 1469.775 C 905.480 1468.001, 903.205 1466.538, 902.845 1466.525 C 902.485 1466.511, 900.883 1465.375, 899.285 1464 C 897.687 1462.625, 895.884 1461.401, 895.277 1461.279 C 894.671 1461.158, 892.497 1459.920, 890.448 1458.529 C 888.398 1457.138, 886.264 1456, 885.705 1456 C 885.146 1456, 883.214 1454.875, 881.411 1453.500 C 879.608 1452.125, 877.808 1451, 877.411 1451 C 877.014 1451, 875.296 1449.944, 873.594 1448.654 C 871.892 1447.364, 868.700 1445.484, 866.500 1444.477 C 864.300 1443.469, 861.263 1441.794, 859.750 1440.754 C 858.237 1439.715, 857 1439.150, 857 1439.500 C 857 1439.850, 855.763 1439.255, 854.250 1438.179 C 852.737 1437.102, 847.675 1434.320, 843 1431.997 C 838.325 1429.674, 833.375 1427.122, 832 1426.327 C 829.412 1424.831, 821.821 1421.258, 814 1417.855 C 811.525 1416.778, 807.864 1415.020, 805.864 1413.948 C 803.864 1412.877, 801.700 1412, 801.054 1412 C 800.409 1412, 795.971 1410.147, 791.191 1407.882 C 786.411 1405.616, 781.600 1403.414, 780.500 1402.988 C 779.400 1402.561, 774.900 1400.766, 770.500 1399 C 761.555 1395.408, 748.812 1390.627, 742 1388.306 C 739.525 1387.462, 733.900 1385.424, 729.500 1383.776 C 725.100 1382.128, 720.468 1380.592, 719.207 1380.362 C 717.946 1380.133, 713.552 1378.610, 709.443 1376.977 C 705.334 1375.345, 701.641 1374.092, 701.236 1374.193 C 700.831 1374.294, 696.107 1372.942, 690.738 1371.188 C 685.369 1369.435, 680.194 1368, 679.238 1367.999 C 678.282 1367.999, 675.133 1367.099, 672.239 1365.999 C 669.346 1364.900, 665.948 1364, 664.689 1364 C 663.430 1364, 661.934 1363.534, 661.364 1362.964 C 660.794 1362.394, 658.487 1361.706, 656.237 1361.435 C 653.987 1361.164, 648.176 1359.611, 643.323 1357.983 C 638.470 1356.356, 633.375 1355.010, 632 1354.993 C 629.506 1354.963, 611.707 1350.555, 610.122 1349.576 C 609.663 1349.292, 607.310 1348.822, 604.894 1348.532 C 602.477 1348.242, 595.100 1346.697, 588.500 1345.099 C 581.900 1343.500, 573.800 1341.634, 570.500 1340.950 C 567.200 1340.267, 561.350 1338.889, 557.500 1337.890 C 553.650 1336.890, 546.900 1335.592, 542.500 1335.006 C 538.100 1334.419, 532.475 1333.563, 530 1333.102 C 518.772 1331.012, 499.506 1327.915, 489 1326.510 C 482.675 1325.665, 470.975 1324.098, 463 1323.029 C 455.025 1321.959, 438.600 1320.143, 426.500 1318.992 C 414.400 1317.842, 400.675 1316.474, 396 1315.953 C 361.372 1312.092, 248.510 1312.506, 223.152 1316.587 C 218.894 1317.272, 218.832 1317.242, 220.142 1315.143 C 220.879 1313.965, 221.935 1312.990, 222.491 1312.977 C 223.046 1312.964, 225.141 1311.502, 227.147 1309.727 C 229.153 1307.952, 233.130 1304.700, 235.984 1302.500 C 250.670 1291.180, 262.697 1281.329, 264.323 1279.288 C 265.325 1278.030, 266.694 1277, 267.364 1277 C 268.035 1277, 270.571 1274.975, 273 1272.500 C 275.429 1270.025, 277.909 1268, 278.512 1268 C 279.115 1268, 281.128 1266.432, 282.985 1264.515 C 284.843 1262.598, 286.577 1261.244, 286.838 1261.505 C 287.100 1261.766, 289.420 1260.072, 291.995 1257.740 C 294.570 1255.408, 299.560 1251.250, 303.084 1248.500 C 306.608 1245.750, 311.406 1241.755, 313.746 1239.623 C 316.086 1237.490, 318 1236.023, 318 1236.363 C 318 1236.988, 319.896 1235.541, 325.024 1231 C 326.577 1229.625, 331.092 1226.025, 335.058 1223 C 339.024 1219.975, 345.784 1214.491, 350.082 1210.814 C 354.379 1207.137, 360.281 1202.586, 363.198 1200.700 C 366.114 1198.814, 369.591 1196.086, 370.924 1194.636 C 372.258 1193.186, 373.789 1192, 374.328 1192 C 374.866 1192, 377.618 1189.862, 380.442 1187.250 C 383.267 1184.638, 389.557 1179.350, 394.420 1175.500 C 399.283 1171.650, 404.936 1167.046, 406.982 1165.268 C 409.028 1163.490, 410.995 1162.328, 411.351 1162.685 C 411.708 1163.041, 412 1162.557, 412 1161.608 C 412 1160.659, 412.381 1160.118, 412.847 1160.405 C 413.313 1160.693, 415 1159.544, 416.597 1157.851 C 418.194 1156.158, 421.300 1153.630, 423.500 1152.232 C 425.700 1150.834, 430.250 1147.285, 433.611 1144.345 C 436.972 1141.405, 440.124 1139, 440.615 1139 C 441.107 1139, 443.757 1136.730, 446.504 1133.955 C 450.917 1129.498, 455.725 1125.678, 460.921 1122.500 C 461.820 1121.950, 466.526 1118.125, 471.377 1114 C 476.229 1109.875, 481.104 1105.983, 482.212 1105.352 C 483.319 1104.720, 486.312 1102.194, 488.862 1099.738 C 491.413 1097.282, 495.975 1093.461, 499 1091.247 C 502.025 1089.034, 506.051 1085.598, 507.946 1083.611 C 509.842 1081.625, 511.909 1080, 512.541 1080 C 513.173 1080, 514.505 1079.100, 515.500 1078 C 516.495 1076.900, 517.820 1076, 518.443 1076 C 519.066 1076, 521.781 1073.760, 524.477 1071.023 C 527.173 1068.286, 529.554 1066.221, 529.768 1066.435 C 529.982 1066.649, 532.484 1064.622, 535.329 1061.932 C 538.173 1059.241, 540.950 1057.026, 541.500 1057.011 C 542.050 1056.995, 544.157 1055.412, 546.183 1053.491 C 548.209 1051.571, 550.187 1050, 550.580 1050 C 550.972 1050, 553.416 1048.088, 556.011 1045.750 C 562.844 1039.595, 568.728 1035, 569.778 1035 C 570.280 1035, 571.547 1034.053, 572.595 1032.895 C 573.642 1031.738, 580.286 1026.225, 587.358 1020.645 C 594.430 1015.065, 603.880 1007.433, 608.358 1003.685 C 612.836 999.937, 617.175 996.612, 618 996.295 C 618.825 995.979, 621.823 993.475, 624.662 990.731 C 627.501 987.987, 631.404 984.788, 633.334 983.621 C 638.449 980.530, 650.728 970.860, 656.500 965.376 C 659.250 962.764, 661.725 960.560, 662 960.479 C 664.628 959.707, 667.826 957.914, 668.914 956.604 C 671.069 954.007, 683.448 955.040, 710.500 960.073 C 713.800 960.687, 718.525 961.405, 721 961.669 C 726.609 962.267, 747.583 968.216, 751.835 970.415 C 755.465 972.292, 757.164 971.562, 764.290 965.062 C 766.375 963.160, 770.425 959.917, 773.290 957.854 C 780.011 953.016, 787.322 947.236, 791.179 943.711 C 792.858 942.178, 795.979 940.031, 798.116 938.941 C 800.252 937.851, 802 936.732, 802 936.454 C 802 935.719, 787.002 929, 785.362 929 C 784.598 929, 783.191 928.559, 782.236 928.020 C 778.803 926.083, 752.287 917.876, 743.500 916.030 C 740.200 915.337, 736.150 914.424, 734.500 914 C 732.850 913.576, 728.800 912.694, 725.500 912.040 C 722.200 911.386, 717.925 910.455, 716 909.972 C 712.160 909.008, 697.968 907.169, 694 907.121 C 692.625 907.105, 684.975 906.411, 677 905.579 C 629.756 900.649, 624.099 900.657, 618.500 905.653 M 1745.917 902.403 C 1745.688 902.625, 1737.850 903.331, 1728.500 903.971 C 1719.150 904.611, 1709.925 905.519, 1708 905.990 C 1706.075 906.460, 1700.225 907.112, 1695 907.438 C 1675.862 908.632, 1648.217 914.329, 1623 922.273 C 1606.157 927.580, 1595.523 931.269, 1594.550 932.145 C 1594.027 932.615, 1592.902 933.014, 1592.050 933.032 C 1588.777 933.099, 1586.244 935.970, 1588.387 937.184 C 1589.425 937.772, 1591.954 939.771, 1594.008 941.626 C 1596.062 943.482, 1598.157 945, 1598.663 945 C 1599.169 945, 1601.538 946.991, 1603.927 949.425 C 1606.316 951.860, 1609.222 954.098, 1610.385 954.401 C 1611.548 954.703, 1616.230 958.739, 1620.789 963.369 L 1629.078 971.789 1637.789 968.993 C 1653.344 964, 1657.337 962.945, 1664.475 961.942 C 1668.339 961.400, 1672.175 960.750, 1673 960.499 C 1684.407 957.024, 1716.189 954.317, 1718.128 956.655 C 1718.882 957.565, 1720.963 958.921, 1722.750 959.668 C 1724.537 960.416, 1726 961.423, 1726 961.907 C 1726 962.390, 1730.357 966.547, 1735.682 971.143 C 1741.007 975.739, 1747.466 981.413, 1750.036 983.750 C 1752.605 986.087, 1755.031 988, 1755.428 988 C 1756.346 988, 1774.541 1003.126, 1784.296 1012 C 1787.017 1014.475, 1789.833 1016.725, 1790.554 1017 C 1791.275 1017.275, 1795.910 1021.212, 1800.854 1025.750 C 1805.798 1030.287, 1810.162 1034, 1810.552 1034 C 1810.942 1034, 1814.690 1036.937, 1818.881 1040.526 C 1823.071 1044.115, 1826.950 1047.386, 1827.500 1047.794 C 1829.938 1049.603, 1846.615 1064.422, 1847.659 1065.707 C 1848.296 1066.491, 1849.022 1066.991, 1849.272 1066.817 C 1849.522 1066.642, 1852.205 1068.750, 1855.235 1071.500 C 1862.724 1078.297, 1865 1080.108, 1865 1079.272 C 1865 1078.882, 1867.588 1081.058, 1870.750 1084.107 C 1873.912 1087.157, 1877.625 1090.354, 1879 1091.211 C 1881.078 1092.506, 1888.096 1098.556, 1899.500 1108.881 C 1905.374 1114.199, 1933.540 1137.744, 1935.766 1139.197 C 1937.196 1140.130, 1940.402 1142.830, 1942.891 1145.197 C 1945.380 1147.564, 1948.716 1150.480, 1950.305 1151.678 C 1951.894 1152.876, 1955.175 1155.714, 1957.597 1157.983 C 1960.019 1160.253, 1962 1161.792, 1962 1161.403 C 1962 1160.796, 1967.262 1165.314, 1977 1174.283 C 1978.375 1175.549, 1982.200 1178.654, 1985.500 1181.182 C 1988.800 1183.710, 1992.591 1186.953, 1993.924 1188.389 C 1995.258 1189.825, 1996.878 1191, 1997.525 1191 C 1998.172 1191, 2000.990 1193.362, 2003.787 1196.250 C 2009.409 1202.052, 2016.339 1208, 2017.477 1208 C 2017.881 1208, 2022.379 1211.825, 2027.472 1216.500 C 2032.565 1221.175, 2037.158 1225, 2037.679 1225 C 2038.200 1225, 2039.948 1226.390, 2041.563 1228.089 C 2043.178 1229.788, 2046.372 1232.282, 2048.659 1233.631 C 2050.946 1234.980, 2053.057 1236.705, 2053.348 1237.465 C 2053.640 1238.225, 2056.493 1240.775, 2059.689 1243.131 C 2062.885 1245.488, 2068.650 1250.276, 2072.500 1253.772 C 2083.170 1263.462, 2089.011 1268.537, 2094.500 1272.886 C 2097.250 1275.065, 2100.850 1278.109, 2102.500 1279.649 C 2104.150 1281.190, 2108.200 1284.586, 2111.500 1287.197 C 2118.107 1292.423, 2122.249 1296.021, 2132 1305.004 C 2135.575 1308.298, 2139.683 1311.530, 2141.128 1312.186 C 2146.079 1314.435, 2146.881 1317.394, 2142.348 1316.684 C 2136.733 1315.804, 2116.835 1313.975, 2114.500 1314.124 C 2113.400 1314.194, 2099.450 1313.923, 2083.500 1313.522 C 2066.624 1313.097, 2038.404 1313.254, 2016 1313.899 C 1979.871 1314.938, 1967.021 1315.796, 1932.500 1319.475 C 1924.800 1320.296, 1915.125 1321.197, 1911 1321.477 C 1906.875 1321.758, 1901.250 1322.403, 1898.500 1322.910 C 1895.750 1323.418, 1889.900 1324.344, 1885.500 1324.968 C 1881.100 1325.592, 1875.025 1326.510, 1872 1327.008 C 1868.975 1327.505, 1863.983 1328.153, 1860.906 1328.447 C 1857.829 1328.741, 1850.854 1329.844, 1845.406 1330.899 C 1835.521 1332.814, 1828.288 1334.054, 1816 1335.941 C 1812.425 1336.490, 1805.675 1337.846, 1801 1338.954 C 1796.325 1340.062, 1789.575 1341.447, 1786 1342.031 C 1782.425 1342.615, 1774.775 1344.249, 1769 1345.661 C 1763.225 1347.074, 1757.375 1348.352, 1756 1348.501 C 1754.625 1348.650, 1747.650 1350.210, 1740.500 1351.967 C 1733.350 1353.724, 1725.250 1355.633, 1722.500 1356.210 C 1719.750 1356.786, 1717.050 1357.569, 1716.500 1357.949 C 1715.352 1358.742, 1710.502 1360.134, 1700.500 1362.542 C 1696.650 1363.468, 1690.800 1365.059, 1687.500 1366.076 C 1668.299 1371.993, 1660.333 1374.358, 1659 1374.538 C 1658.175 1374.649, 1653.787 1376.137, 1649.250 1377.845 C 1644.713 1379.553, 1641 1380.743, 1641 1380.489 C 1641 1380.236, 1638.638 1380.968, 1635.750 1382.116 C 1632.862 1383.264, 1628.250 1384.888, 1625.500 1385.726 C 1622.750 1386.564, 1617.350 1388.471, 1613.500 1389.964 C 1609.650 1391.456, 1604.475 1393.292, 1602 1394.042 C 1599.525 1394.793, 1596.024 1396.216, 1594.220 1397.204 C 1592.415 1398.192, 1590.165 1399.010, 1589.220 1399.022 C 1588.274 1399.035, 1584.800 1400.375, 1581.500 1402 C 1578.200 1403.625, 1575.107 1404.965, 1574.626 1404.978 C 1573.674 1405.002, 1559.926 1410.880, 1553.500 1414.011 C 1551.300 1415.082, 1547.482 1416.661, 1545.016 1417.518 C 1542.550 1418.375, 1539.400 1419.829, 1538.016 1420.749 C 1536.632 1421.669, 1534.957 1422.509, 1534.293 1422.616 C 1533.201 1422.792, 1531.796 1423.437, 1525.500 1426.654 C 1519.273 1429.836, 1511.995 1433.194, 1511.300 1433.206 C 1510.860 1433.214, 1509.306 1434.070, 1507.846 1435.110 C 1506.386 1436.149, 1504.753 1437, 1504.218 1437 C 1503.683 1437, 1502.689 1437.670, 1502.009 1438.489 C 1501.329 1439.308, 1500.428 1439.764, 1500.005 1439.503 C 1499.583 1439.242, 1497.593 1440.144, 1495.584 1441.508 C 1493.574 1442.871, 1490.259 1444.815, 1488.215 1445.826 C 1482.683 1448.566, 1474.705 1453.095, 1473 1454.464 C 1472.175 1455.127, 1469.475 1456.715, 1467 1457.993 C 1464.525 1459.271, 1461.369 1460.900, 1459.987 1461.613 C 1458.604 1462.327, 1456.579 1463.743, 1455.487 1464.761 C 1454.394 1465.779, 1453.050 1466.753, 1452.500 1466.926 C 1449.037 1468.012, 1447.248 1468.996, 1446 1470.500 C 1445.220 1471.440, 1443.664 1472.621, 1442.541 1473.124 C 1431.967 1477.869, 1414.400 1491.870, 1413.839 1496 C 1413.093 1501.500, 1421.919 1498.606, 1449.147 1484.421 C 1451.703 1483.089, 1454.481 1482, 1455.321 1482 C 1456.160 1482, 1458.221 1480.844, 1459.901 1479.430 C 1461.581 1478.017, 1464.365 1476.682, 1466.088 1476.464 C 1467.811 1476.245, 1470.850 1475.106, 1472.840 1473.932 C 1474.830 1472.758, 1477.215 1471.651, 1478.140 1471.473 C 1479.064 1471.295, 1482.224 1470.039, 1485.160 1468.681 C 1493.893 1464.645, 1502.685 1461, 1503.687 1461 C 1504.203 1461, 1506.502 1460.093, 1508.797 1458.984 C 1511.092 1457.875, 1516.239 1455.803, 1520.235 1454.379 C 1524.231 1452.954, 1527.927 1451.387, 1528.450 1450.895 C 1528.972 1450.403, 1530.359 1450, 1531.531 1450 C 1532.702 1450, 1535.875 1448.866, 1538.581 1447.479 C 1541.286 1446.093, 1544.923 1444.722, 1546.662 1444.432 C 1548.400 1444.142, 1552.111 1442.801, 1554.907 1441.452 C 1557.703 1440.104, 1560.780 1439.002, 1561.745 1439.005 C 1562.710 1439.008, 1566.875 1437.723, 1571 1436.149 C 1575.125 1434.574, 1582.550 1432.068, 1587.500 1430.578 C 1592.450 1429.088, 1600.550 1426.602, 1605.500 1425.053 C 1610.450 1423.504, 1617.875 1421.248, 1622 1420.039 C 1626.125 1418.831, 1630.534 1417.427, 1631.797 1416.921 C 1633.060 1416.414, 1634.957 1416, 1636.012 1416 C 1638.084 1416, 1646.227 1413.527, 1649.543 1411.891 C 1650.667 1411.337, 1654.042 1410.498, 1657.043 1410.028 C 1660.044 1409.557, 1665.875 1408.213, 1670 1407.043 C 1674.125 1405.872, 1678.625 1404.737, 1680 1404.521 C 1681.375 1404.305, 1685.200 1403.414, 1688.500 1402.542 C 1699.885 1399.531, 1701.520 1399.142, 1707 1398.136 C 1710.025 1397.581, 1714.300 1396.671, 1716.500 1396.112 C 1720.828 1395.015, 1728.987 1393.228, 1733 1392.500 C 1734.375 1392.250, 1737.525 1391.633, 1740 1391.128 C 1758.881 1387.274, 1766.591 1385.791, 1781.500 1383.145 C 1810.866 1377.935, 1828.138 1375.343, 1849 1373.013 C 1854.775 1372.368, 1862.200 1371.449, 1865.500 1370.971 C 1882.042 1368.576, 1888.046 1367.856, 1894 1367.552 C 1897.575 1367.370, 1909.725 1366.301, 1921 1365.176 C 1981.347 1359.157, 2055.676 1357.480, 2128 1360.505 C 2160.285 1361.856, 2170.305 1362.578, 2189 1364.904 C 2193.125 1365.417, 2201.225 1366.337, 2207 1366.948 C 2225.089 1368.863, 2256.419 1373.880, 2270.500 1377.117 C 2272.700 1377.623, 2277.875 1378.687, 2282 1379.482 C 2286.125 1380.276, 2292.650 1381.871, 2296.500 1383.024 C 2306 1385.871, 2312.934 1387.239, 2314.609 1386.597 C 2318.380 1385.149, 2313.995 1376.260, 2308.329 1373.866 C 2307.853 1373.665, 2306.489 1372.239, 2305.297 1370.698 C 2304.106 1369.158, 2302.989 1367.994, 2302.816 1368.113 C 2302.051 1368.637, 2298 1365.395, 2298 1364.259 C 2298 1363.567, 2297.607 1363, 2297.126 1363 C 2296.183 1363, 2286.354 1354.617, 2278.879 1347.438 C 2276.337 1344.997, 2273.790 1343, 2273.218 1343 C 2272.646 1343, 2270.955 1341.537, 2269.460 1339.750 C 2267.966 1337.963, 2266.155 1336.275, 2265.438 1336 C 2264.720 1335.725, 2261.004 1332.463, 2257.179 1328.750 C 2253.354 1325.037, 2249.777 1322, 2249.231 1322 C 2248.684 1322, 2247.036 1320.425, 2245.568 1318.500 C 2244.100 1316.575, 2242.293 1315, 2241.553 1315 C 2240.813 1315, 2238.824 1313.425, 2237.134 1311.500 C 2235.444 1309.575, 2233.655 1308, 2233.158 1308 C 2232.661 1308, 2230.909 1306.425, 2229.265 1304.500 C 2227.621 1302.575, 2225.857 1301, 2225.346 1301 C 2224.835 1301, 2222.832 1299.537, 2220.894 1297.750 C 2218.957 1295.963, 2213.588 1291.125, 2208.962 1287 C 2204.337 1282.875, 2199.347 1278.375, 2197.874 1277 C 2192.813 1272.277, 2190.171 1270.163, 2189.797 1270.537 C 2189.591 1270.743, 2186.319 1267.781, 2182.527 1263.956 C 2178.735 1260.130, 2175.217 1257, 2174.709 1257 C 2174.201 1257, 2171.358 1254.454, 2168.393 1251.343 C 2165.427 1248.231, 2163 1246.024, 2163 1246.438 C 2163 1247.127, 2146.476 1232.916, 2139.584 1226.299 C 2137.980 1224.760, 2135.402 1222.562, 2133.853 1221.415 C 2132.305 1220.268, 2128.656 1217.113, 2125.744 1214.403 C 2122.833 1211.693, 2116.636 1206.285, 2111.975 1202.385 C 2107.314 1198.486, 2101.956 1193.847, 2100.070 1192.078 C 2098.183 1190.309, 2095.798 1188.271, 2094.768 1187.550 C 2093.739 1186.829, 2090.557 1184.027, 2087.698 1181.324 C 2084.839 1178.620, 2079.575 1174.002, 2076 1171.061 C 2072.425 1168.121, 2069.169 1165.216, 2068.765 1164.607 C 2068.361 1163.998, 2068.024 1163.840, 2068.015 1164.257 C 2068.007 1164.673, 2065.339 1162.310, 2062.086 1159.007 C 2058.833 1155.703, 2055.777 1153, 2055.294 1153 C 2054.811 1153, 2052.429 1150.975, 2050 1148.500 C 2047.571 1146.025, 2045.208 1144, 2044.749 1144 C 2044.289 1144, 2041.288 1141.300, 2038.079 1138 C 2034.870 1134.700, 2031.762 1132, 2031.172 1132 C 2030.582 1132, 2029.740 1131.437, 2029.300 1130.748 C 2028.860 1130.059, 2024.675 1126.276, 2020 1122.342 C 2015.325 1118.407, 2008.079 1112.108, 2003.897 1108.344 C 1999.716 1104.580, 1995.216 1100.643, 1993.897 1099.596 C 1991.148 1097.413, 1979.060 1086.727, 1974.121 1082.113 C 1972.288 1080.401, 1970.605 1079, 1970.380 1079 C 1970.156 1079, 1968.741 1077.658, 1967.236 1076.017 C 1965.731 1074.377, 1963.073 1072.015, 1961.328 1070.767 C 1956.465 1067.291, 1941.360 1054.281, 1933.444 1046.750 C 1929.542 1043.037, 1925.985 1040, 1925.540 1040 C 1925.095 1040, 1920.442 1036.063, 1915.199 1031.250 C 1909.957 1026.438, 1905.301 1022.500, 1904.853 1022.500 C 1904.404 1022.500, 1901.217 1019.516, 1897.769 1015.868 C 1894.321 1012.221, 1890.775 1008.846, 1889.888 1008.368 C 1889.002 1007.891, 1884.586 1004.125, 1880.075 1000 C 1875.564 995.875, 1870.661 991.981, 1869.178 991.346 C 1867.696 990.711, 1865.630 989.248, 1864.587 988.096 C 1863.543 986.943, 1862.163 986, 1861.519 986 C 1860.875 986, 1859.292 984.875, 1858 983.500 C 1856.708 982.125, 1856.025 981, 1856.481 981 C 1856.937 981, 1856.495 980.100, 1855.500 979 C 1854.505 977.900, 1853.155 977, 1852.500 977 C 1851.845 977, 1850.495 976.100, 1849.500 975 C 1848.505 973.900, 1848.055 973, 1848.500 973 C 1848.945 973, 1848.495 972.100, 1847.500 971 C 1846.505 969.900, 1845.261 969, 1844.738 969 C 1844.214 969, 1838.096 964.003, 1831.143 957.895 C 1811.545 940.680, 1811.057 940.276, 1810.512 940.821 C 1810.231 941.103, 1810 940.583, 1810 939.667 C 1810 938.750, 1809.640 938.112, 1809.201 938.250 C 1808.762 938.387, 1803.345 933.775, 1797.163 928 C 1790.982 922.225, 1785.379 917.333, 1784.712 917.129 C 1784.045 916.925, 1781.925 915.274, 1780 913.460 C 1778.075 911.646, 1774.037 908.325, 1771.027 906.081 L 1765.554 902 1755.944 902 C 1750.658 902, 1746.146 902.182, 1745.917 902.403 M 450.199 1402.597 C 448.715 1403.242, 445.721 1405.622, 443.547 1407.885 C 441.373 1410.148, 439.043 1412, 438.370 1412 C 437.696 1412, 436.172 1413.237, 434.982 1414.750 C 433.792 1416.263, 432.416 1417.500, 431.923 1417.500 C 431.430 1417.500, 429.783 1418.764, 428.263 1420.310 C 426.744 1421.855, 421.900 1426.061, 417.500 1429.656 C 413.100 1433.251, 409.050 1436.722, 408.500 1437.369 C 407.628 1438.393, 397.323 1447.439, 388.429 1454.986 C 386.818 1456.353, 382.721 1459.841, 379.324 1462.736 C 375.927 1465.631, 372.697 1468, 372.147 1468 C 371.597 1468, 371.001 1468.598, 370.823 1469.330 C 370.492 1470.694, 362.126 1478.318, 358.017 1481 C 356.753 1481.825, 354.095 1483.967, 352.110 1485.761 C 350.124 1487.554, 345.012 1492.019, 340.750 1495.684 C 333.890 1501.581, 333 1502.740, 333 1505.770 L 333 1509.193 337.750 1508.713 C 343.742 1508.108, 349.786 1506.514, 353.565 1504.542 C 355.179 1503.700, 358.075 1502.741, 360 1502.412 C 361.925 1502.083, 365.881 1500.955, 368.792 1499.905 C 371.702 1498.856, 376.877 1497.365, 380.292 1496.592 C 383.706 1495.820, 389.200 1494.489, 392.500 1493.636 C 403.344 1490.830, 418.346 1487.736, 427.500 1486.415 C 432.450 1485.702, 438.750 1484.655, 441.500 1484.089 C 447.319 1482.893, 466.596 1480.283, 479.404 1478.958 C 484.301 1478.452, 489.026 1477.830, 489.904 1477.578 C 490.782 1477.325, 496.900 1476.846, 503.500 1476.512 C 510.100 1476.178, 523.600 1475.160, 533.500 1474.249 C 559.448 1471.861, 634.280 1471.872, 664 1474.268 C 675.825 1475.222, 692.025 1476.467, 700 1477.035 C 707.975 1477.602, 718.100 1478.457, 722.500 1478.934 C 742.705 1481.122, 751.179 1482.178, 760 1483.609 C 765.225 1484.456, 773.325 1485.596, 778 1486.143 C 782.675 1486.689, 790.475 1488.037, 795.333 1489.138 C 800.191 1490.239, 807.166 1491.504, 810.833 1491.949 C 814.500 1492.395, 820.875 1493.703, 825 1494.856 C 839.886 1499.018, 848.287 1495, 837 1489.117 C 834.800 1487.970, 833 1487.287, 833 1487.598 C 833 1487.909, 831.537 1487.282, 829.750 1486.206 C 827.962 1485.130, 822.450 1482.587, 817.500 1480.556 C 812.550 1478.524, 806.025 1475.793, 803 1474.485 C 799.975 1473.177, 795.700 1471.572, 793.500 1470.918 C 791.300 1470.264, 787.813 1468.881, 785.750 1467.844 C 783.688 1466.808, 782 1466.188, 782 1466.467 C 782 1466.746, 779.574 1465.902, 776.610 1464.591 C 773.645 1463.280, 769.708 1461.881, 767.860 1461.483 C 766.012 1461.085, 761.800 1459.751, 758.500 1458.518 C 755.200 1457.285, 748 1454.856, 742.500 1453.120 C 737 1451.385, 728.955 1448.848, 724.622 1447.482 C 720.290 1446.117, 716.074 1445, 715.254 1445 C 713.621 1445, 701.786 1441.326, 698.349 1439.753 C 697.165 1439.211, 695.590 1438.976, 694.849 1439.230 C 694.107 1439.485, 691.025 1438.825, 688 1437.764 C 684.975 1436.703, 678.675 1434.983, 674 1433.942 C 669.325 1432.901, 661.675 1431.143, 657 1430.036 C 638.630 1425.686, 622.222 1422.062, 616.500 1421.091 C 613.200 1420.531, 607.350 1419.375, 603.500 1418.523 C 599.650 1417.670, 594.475 1416.733, 592 1416.441 C 589.525 1416.148, 583 1415.012, 577.500 1413.915 C 572 1412.819, 563.450 1411.487, 558.500 1410.956 C 553.550 1410.425, 547.025 1409.539, 544 1408.986 C 531.824 1406.761, 524.936 1405.881, 513 1405.023 C 506.125 1404.529, 495.775 1403.665, 490 1403.102 C 473.581 1401.501, 453.312 1401.243, 450.199 1402.597 M 1887 1402 C 1864.375 1402.932, 1844.878 1404.709, 1824.500 1407.694 C 1814.600 1409.145, 1803.125 1410.673, 1799 1411.090 C 1794.875 1411.507, 1786.550 1412.754, 1780.500 1413.861 C 1774.450 1414.968, 1765.225 1416.609, 1760 1417.507 C 1754.775 1418.405, 1747.575 1419.771, 1744 1420.543 C 1740.425 1421.314, 1733.900 1422.684, 1729.500 1423.587 C 1725.100 1424.491, 1719.700 1425.644, 1717.500 1426.150 C 1715.300 1426.656, 1710.037 1427.726, 1705.804 1428.528 C 1701.572 1429.330, 1696.172 1430.635, 1693.804 1431.427 C 1691.437 1432.219, 1687.475 1433.148, 1685 1433.490 C 1682.525 1433.832, 1678.025 1434.960, 1675 1435.997 C 1671.975 1437.033, 1667.700 1438.172, 1665.500 1438.527 C 1663.300 1438.882, 1657.225 1440.446, 1652 1442.004 C 1646.775 1443.561, 1639.575 1445.572, 1636 1446.473 C 1632.425 1447.373, 1628.375 1448.541, 1627 1449.068 C 1625.625 1449.595, 1623.534 1450.211, 1622.354 1450.436 C 1619.375 1451.004, 1604.776 1455.761, 1597.230 1458.622 C 1593.782 1459.930, 1590.299 1461, 1589.491 1461 C 1588.682 1461, 1584.979 1462.227, 1581.261 1463.726 C 1577.542 1465.225, 1573.971 1466.338, 1573.325 1466.199 C 1572.679 1466.060, 1571.865 1466.409, 1571.516 1466.973 C 1571.167 1467.538, 1570.229 1468, 1569.430 1468 C 1568.632 1468, 1566.071 1468.861, 1563.739 1469.913 C 1561.408 1470.965, 1557.700 1472.373, 1555.500 1473.042 C 1553.300 1473.711, 1550.375 1474.831, 1549 1475.531 C 1547.625 1476.231, 1542.900 1478.249, 1538.500 1480.014 C 1529.493 1483.628, 1524.963 1485.566, 1517 1489.214 C 1513.975 1490.599, 1511.158 1491.784, 1510.740 1491.846 C 1507.882 1492.272, 1504 1495.328, 1504 1497.153 C 1504 1499.811, 1514.524 1498.737, 1533.310 1494.162 C 1537.815 1493.064, 1544.425 1491.691, 1548 1491.109 C 1551.575 1490.527, 1556.750 1489.573, 1559.500 1488.989 C 1562.250 1488.405, 1567.875 1487.500, 1572 1486.978 C 1576.125 1486.457, 1584.900 1485.137, 1591.500 1484.045 C 1598.100 1482.954, 1608.450 1481.576, 1614.500 1480.985 C 1620.550 1480.393, 1628.875 1479.503, 1633 1479.006 C 1637.125 1478.509, 1650.554 1477.417, 1662.842 1476.580 C 1675.130 1475.743, 1692.860 1474.334, 1702.242 1473.448 C 1722.383 1471.547, 1810.452 1471.846, 1827 1473.871 C 1832.225 1474.510, 1843.475 1475.677, 1852 1476.463 C 1877.062 1478.775, 1901.587 1481.907, 1915.258 1484.541 C 1922.274 1485.894, 1929.024 1486.999, 1930.258 1486.999 C 1932.426 1486.998, 1948.181 1490.445, 1960.500 1493.616 C 1963.800 1494.465, 1968.525 1495.594, 1971 1496.123 C 1976.138 1497.223, 1989.654 1501.174, 1998.500 1504.163 C 2014.553 1509.587, 2019.947 1509.962, 2021.088 1505.735 C 2021.708 1503.439, 2021.402 1502.674, 2019.285 1501.235 C 2017.883 1500.281, 2014.377 1497.250, 2011.494 1494.500 C 2008.612 1491.750, 2003.433 1487.025, 1999.985 1484 C 1996.537 1480.975, 1992.293 1477.150, 1990.554 1475.500 C 1988.815 1473.850, 1983.440 1468.900, 1978.609 1464.500 C 1973.778 1460.100, 1968.377 1455.150, 1966.608 1453.500 C 1964.838 1451.850, 1959.417 1446.900, 1954.560 1442.500 C 1949.704 1438.100, 1944.296 1433.150, 1942.544 1431.500 C 1940.792 1429.850, 1936.275 1425.800, 1932.508 1422.500 C 1928.740 1419.200, 1924.753 1415.487, 1923.648 1414.250 C 1922.543 1413.013, 1921.124 1412, 1920.494 1412 C 1919.154 1412, 1915.004 1407.802, 1914.992 1406.436 C 1914.980 1404.933, 1907.320 1400.983, 1904.802 1401.181 C 1903.536 1401.280, 1895.525 1401.648, 1887 1402 M 1624.667 1665.667 C 1624.300 1666.033, 1624 1705.633, 1624 1753.667 L 1624 1841 1626.500 1841 L 1629 1841 1629.021 1827.750 L 1629.041 1814.500 1632.181 1820.783 C 1651.415 1859.268, 1698.762 1848.137, 1707.605 1803.052 C 1719.612 1741.829, 1658.564 1702.174, 1632.503 1754.267 L 1629 1761.269 1629 1713.134 C 1629 1662.376, 1628.913 1661.421, 1624.667 1665.667 M 1543 1753.500 L 1543 1841 1545.500 1841 L 1548 1841 1548 1813.417 L 1548 1785.835 1571.637 1813.417 C 1594.264 1839.822, 1595.423 1841, 1598.792 1841 C 1602.059 1841, 1602.201 1840.875, 1600.780 1839.250 C 1599.938 1838.287, 1588.849 1825.438, 1576.136 1810.696 L 1553.022 1783.891 1575.011 1759.532 C 1599.092 1732.856, 1598.239 1734, 1594.050 1734 C 1591.454 1734, 1588.549 1736.891, 1569.800 1758.133 L 1548.500 1782.265 1548.242 1724.133 L 1547.984 1666 1545.492 1666 L 1543 1666 1543 1753.500 M 1959 1753.500 L 1959 1841 1961.500 1841 L 1964 1841 1964 1813.417 L 1964 1785.835 1987.637 1813.417 C 2010.264 1839.822, 2011.423 1841, 2014.792 1841 C 2018.059 1841, 2018.201 1840.875, 2016.780 1839.250 C 2015.938 1838.287, 2004.849 1825.438, 1992.136 1810.696 L 1969.022 1783.891 1991.011 1759.532 C 2015.092 1732.856, 2014.239 1734, 2010.050 1734 C 2007.454 1734, 2004.549 1736.891, 1985.800 1758.133 L 1964.500 1782.265 1964.242 1724.133 L 1963.984 1666 1961.492 1666 L 1959 1666 1959 1753.500 M 339 1759 L 339 1841 342 1841 L 345 1841 345 1800 L 345 1759 399.500 1759 L 454 1759 454 1800 L 454 1841 457 1841 L 460 1841 460 1759 L 460 1677 457 1677 L 454 1677 454 1715.500 L 454 1754 399.500 1754 L 345 1754 345 1715.500 L 345 1677 342 1677 L 339 1677 339 1759 M 507 1759 L 507 1841 557 1841 L 607 1841 607 1838.500 L 607 1836 560 1836 L 513 1836 513 1797.500 L 513 1759 555.500 1759 L 598 1759 598 1756.500 L 598 1754 555.500 1754 L 513 1754 513 1718 L 513 1682 558 1682 L 603 1682 603 1679.500 L 603 1677 555 1677 L 507 1677 507 1759 M 658.500 1758.012 C 639.250 1802.598, 623.339 1839.542, 623.143 1840.110 C 622.930 1840.724, 624.139 1841.012, 626.126 1840.821 L 629.467 1840.500 639.351 1817.240 L 649.235 1793.981 696.351 1794.240 L 743.466 1794.500 752.983 1817.726 L 762.500 1840.952 765.750 1840.976 C 769.724 1841.005, 774.547 1853.908, 735.107 1759 L 701.238 1677.500 697.369 1677.224 L 693.500 1676.947 658.500 1758.012 M 797 1759 L 797 1841 840.500 1841 L 884 1841 884 1838.500 L 884 1836 843.500 1836 L 803 1836 803 1756.500 L 803 1677 800 1677 L 797 1677 797 1759 M 869 1679.500 L 869 1682 896.500 1682 L 924 1682 924 1761.500 L 924 1841 927 1841 L 930 1841 930 1761.500 L 930 1682 958 1682 L 986 1682 986 1679.500 L 986 1677 927.500 1677 L 869 1677 869 1679.500 M 1014 1759 L 1014 1841 1017 1841 L 1020 1841 1020 1800 L 1020 1759 1074.500 1759 L 1129 1759 1129 1800 L 1129 1841 1132 1841 L 1135 1841 1135 1759 L 1135 1677 1132 1677 L 1129 1677 1129 1715.500 L 1129 1754 1074.500 1754 L 1020 1754 1020 1715.500 L 1020 1677 1017 1677 L 1014 1677 1014 1759 M 673.917 1735.277 L 651.333 1788.500 695.823 1788.760 C 720.292 1788.904, 740.526 1788.807, 740.787 1788.546 C 741.334 1788, 697.757 1681.999, 697 1682.032 C 696.725 1682.044, 686.337 1706.004, 673.917 1735.277 M 1258.005 1732.610 C 1211.180 1749.597, 1219.477 1841.922, 1268 1843.835 C 1282.026 1844.388, 1301.951 1833.673, 1296.759 1828.368 C 1295.094 1826.667, 1294.878 1826.726, 1291.759 1829.741 C 1271.590 1849.240, 1240.190 1834.988, 1233.473 1803.287 C 1223.637 1756.870, 1261.593 1717.693, 1289.722 1745.228 C 1293.881 1749.299, 1293.974 1749.333, 1296.001 1747.499 L 1298.059 1745.636 1293.918 1741.416 C 1284.691 1732.015, 1269.747 1728.350, 1258.005 1732.610 M 1344.892 1733.308 C 1321.896 1742.957, 1310.171 1772.120, 1316.553 1803.792 C 1327.362 1857.426, 1390.217 1857.553, 1401.604 1803.965 C 1411.196 1758.824, 1379.171 1718.925, 1344.892 1733.308 M 1454.892 1733.308 C 1431.896 1742.957, 1420.171 1772.120, 1426.553 1803.792 C 1437.362 1857.426, 1500.217 1857.553, 1511.604 1803.965 C 1521.196 1758.824, 1489.171 1718.925, 1454.892 1733.308 M 1760.892 1733.308 C 1737.896 1742.957, 1726.171 1772.120, 1732.553 1803.792 C 1743.362 1857.426, 1806.217 1857.553, 1817.604 1803.965 C 1827.196 1758.824, 1795.171 1718.925, 1760.892 1733.308 M 1871.892 1733.308 C 1848.896 1742.957, 1837.171 1772.120, 1843.553 1803.792 C 1854.362 1857.426, 1917.217 1857.553, 1928.604 1803.965 C 1938.196 1758.824, 1906.171 1718.925, 1871.892 1733.308 M 1352.732 1737.038 C 1305.177 1745.033, 1310.951 1838.263, 1359 1838.263 C 1409.018 1838.263, 1412.336 1742.049, 1362.500 1736.766 C 1359.750 1736.475, 1355.354 1736.597, 1352.732 1737.038 M 1462.732 1737.038 C 1415.177 1745.033, 1420.951 1838.263, 1469 1838.263 C 1519.018 1838.263, 1522.336 1742.049, 1472.500 1736.766 C 1469.750 1736.475, 1465.354 1736.597, 1462.732 1737.038 M 1661.223 1737.051 C 1622.954 1744.689, 1617.274 1818.240, 1653.573 1836.110 C 1678.913 1848.585, 1704.052 1824.887, 1703.983 1788.590 C 1703.920 1755.832, 1684.486 1732.409, 1661.223 1737.051 M 1768.732 1737.038 C 1721.177 1745.033, 1726.951 1838.263, 1775 1838.263 C 1825.018 1838.263, 1828.336 1742.049, 1778.500 1736.766 C 1775.750 1736.475, 1771.354 1736.597, 1768.732 1737.038 M 1879.732 1737.038 C 1832.177 1745.033, 1837.951 1838.263, 1886 1838.263 C 1936.018 1838.263, 1939.336 1742.049, 1889.500 1736.766 C 1886.750 1736.475, 1882.354 1736.597, 1879.732 1737.038" stroke="none" fill="#443c74" fill-rule="evenodd"/><path d="M 1436.500 647.981 C 1422.185 648.843, 1398.513 652.110, 1389.414 654.480 C 1386.205 655.316, 1382.887 655.993, 1382.040 655.986 C 1379.699 655.963, 1349.482 665.229, 1346.117 667.001 C 1345.228 667.469, 1341.522 668.985, 1337.881 670.369 C 1331.200 672.910, 1311.041 682.926, 1305.500 686.457 C 1286.102 698.819, 1277.711 705.340, 1264.907 718 C 1220.563 761.845, 1203.994 826.140, 1219.062 895.892 C 1219.966 900.075, 1219.950 902.204, 1218.991 905.392 C 1216.176 914.751, 1210.050 935.759, 1207.149 946 C 1204.795 954.308, 1202.920 961.502, 1199.981 973.500 C 1198.903 977.900, 1197.110 984.875, 1195.996 989 C 1194.882 993.125, 1193.532 998.897, 1192.996 1001.827 C 1192.461 1004.757, 1191.829 1007.467, 1191.593 1007.849 C 1191.358 1008.231, 1189.775 1014.608, 1188.076 1022.021 C 1186.377 1029.435, 1184.261 1038.650, 1183.374 1042.500 C 1182.486 1046.350, 1181.361 1049.754, 1180.872 1050.064 C 1180.362 1050.388, 1180.608 1058.262, 1181.449 1068.564 C 1183.522 1093.935, 1185.784 1124.724, 1186.992 1144 C 1188.630 1170.150, 1191 1182.493, 1191 1164.875 C 1191 1158.498, 1194.226 1123.391, 1196.088 1109.500 C 1196.678 1105.100, 1197.747 1097, 1198.465 1091.500 C 1201.135 1071.030, 1204.084 1054.106, 1209.181 1030 C 1212.807 1012.853, 1218.335 992.140, 1223.422 976.644 C 1225.383 970.672, 1226.757 965.416, 1226.477 964.963 C 1226.197 964.509, 1226.390 963.877, 1226.907 963.557 C 1227.424 963.238, 1228.610 960.619, 1229.543 957.738 C 1230.476 954.857, 1231.801 951.150, 1232.487 949.500 C 1233.173 947.850, 1234.979 943.350, 1236.501 939.500 C 1261.081 877.308, 1303.415 822.884, 1356 785.875 C 1366.302 778.625, 1380.777 769, 1381.379 769 C 1381.682 769, 1385.883 766.624, 1390.715 763.719 C 1405.211 755.006, 1451.143 732.968, 1454.720 733.009 C 1455.427 733.017, 1450.569 736.250, 1438 744.134 C 1387.029 776.107, 1347.472 809.816, 1319.962 844.720 C 1314.423 851.749, 1309.353 858.178, 1308.695 859.006 C 1304.214 864.653, 1289.612 891.126, 1285.808 900.500 C 1283.389 906.462, 1279.045 917.865, 1278.354 920.070 C 1276.168 927.035, 1320.851 926.589, 1352.500 919.329 C 1388.595 911.050, 1414.332 896.145, 1443.723 866.500 C 1455.806 854.313, 1464.474 844.657, 1471.500 835.559 C 1474.003 832.317, 1495.289 805.790, 1501.637 798.001 C 1516.664 779.563, 1538.318 758.240, 1552.929 747.493 C 1575.727 730.724, 1609.545 716.008, 1632.270 712.967 C 1635.697 712.509, 1640.072 711.654, 1641.993 711.067 C 1643.915 710.480, 1647.434 710, 1649.813 710 C 1657.851 710, 1643.206 695.100, 1631.500 691.368 C 1630.400 691.017, 1629.275 690.406, 1629 690.009 C 1624.391 683.355, 1557.852 658.196, 1537.500 655.411 C 1534.750 655.035, 1531.395 654.315, 1530.045 653.811 C 1527.606 652.900, 1523.583 652.280, 1502.500 649.570 C 1488.688 647.794, 1453.617 646.950, 1436.500 647.981 M 831.941 915.562 C 830.617 916.972, 827.951 919.085, 826.017 920.258 C 824.083 921.431, 822.160 922.943, 821.744 923.617 C 821.328 924.292, 819.303 925.849, 817.244 927.078 C 815.185 928.306, 811.920 930.802, 809.989 932.625 C 808.058 934.448, 805.583 936.092, 804.489 936.278 C 801.401 936.804, 794.552 940.630, 791.179 943.711 C 787.322 947.236, 780.011 953.016, 773.290 957.854 C 770.425 959.917, 766.349 963.206, 764.234 965.163 C 762.118 967.121, 759.387 969.257, 758.166 969.911 C 756.944 970.565, 756.181 971.484, 756.471 971.952 C 756.760 972.421, 755.423 973.733, 753.499 974.868 C 751.574 976.004, 750 977.388, 750 977.945 C 750 978.502, 746.962 981.012, 743.250 983.522 C 732.387 990.869, 726.829 995.027, 721.500 999.793 C 718.750 1002.252, 715.375 1004.767, 714 1005.382 C 711.419 1006.536, 710.004 1007.557, 704.475 1012.250 C 702.694 1013.763, 700.827 1015, 700.326 1015 C 699.826 1015, 697.448 1017.005, 695.043 1019.457 C 692.637 1021.908, 690.332 1023.705, 689.920 1023.450 C 689.508 1023.196, 689.020 1023.354, 688.835 1023.802 C 688.651 1024.250, 686.250 1026.129, 683.500 1027.979 C 680.750 1029.828, 676.885 1032.727, 674.911 1034.421 C 672.938 1036.114, 668.034 1039.975, 664.016 1043 C 659.997 1046.025, 655.767 1049.542, 654.617 1050.816 C 653.466 1052.090, 650.944 1053.879, 649.012 1054.792 C 647.081 1055.706, 644.023 1057.926, 642.217 1059.727 C 640.411 1061.527, 638.739 1063, 638.502 1063 C 637.492 1063, 613.450 1081.100, 602 1090.480 C 598.975 1092.958, 595.825 1095.305, 595 1095.694 C 592.281 1096.979, 587.561 1100.491, 583.553 1104.211 C 581.383 1106.226, 579.245 1107.652, 578.803 1107.378 C 578.362 1107.105, 578 1107.283, 578 1107.773 C 578 1108.262, 575.862 1110.057, 573.250 1111.761 C 570.638 1113.465, 565.953 1117.141, 562.840 1119.930 C 559.727 1122.718, 556.856 1125, 556.461 1125 C 556.066 1125, 554.098 1126.463, 552.088 1128.250 C 550.079 1130.037, 547.157 1132.400, 545.597 1133.500 C 544.036 1134.600, 539.326 1138.203, 535.129 1141.506 C 524.677 1149.735, 517.386 1155, 516.444 1155 C 516.010 1155, 513.068 1157.250, 509.907 1160 C 506.745 1162.750, 503.757 1165, 503.266 1165 C 502.776 1165, 501.052 1166.401, 499.437 1168.112 C 497.822 1169.824, 495.095 1172.187, 493.378 1173.362 C 491.662 1174.538, 487.743 1177.412, 484.671 1179.750 C 481.599 1182.088, 478.801 1184, 478.453 1184 C 478.105 1184, 475.304 1186.243, 472.228 1188.984 C 469.152 1191.726, 466.444 1193.778, 466.210 1193.544 C 465.849 1193.182, 461.451 1196.878, 456.361 1201.821 C 455.612 1202.548, 455 1202.868, 455 1202.532 C 455 1202.196, 454.438 1202.382, 453.750 1202.945 C 448.577 1207.184, 446.119 1209, 445.552 1209 C 445.190 1209, 441.715 1211.588, 437.830 1214.750 C 433.945 1217.912, 429.357 1221.459, 427.633 1222.631 C 425.910 1223.804, 423.409 1225.941, 422.076 1227.381 C 420.742 1228.822, 419.216 1230, 418.683 1230 C 418.151 1230, 415.305 1232.060, 412.358 1234.577 C 409.411 1237.095, 407 1238.856, 407 1238.491 C 407 1237.793, 397.026 1245.642, 390.924 1251.141 C 388.957 1252.914, 386.983 1254.244, 386.536 1254.097 C 386.089 1253.949, 385.448 1254.206, 385.112 1254.667 C 384.775 1255.128, 381.125 1258.178, 377 1261.447 C 366.335 1269.896, 363.471 1274.923, 369.250 1275.049 C 408.916 1275.910, 451.349 1278.334, 465.500 1280.547 C 474.437 1281.945, 493.248 1284.210, 510.500 1285.966 C 515.450 1286.470, 525.800 1287.970, 533.500 1289.301 C 541.200 1290.631, 551.775 1292.266, 557 1292.934 C 562.225 1293.602, 568.750 1294.762, 571.500 1295.510 C 579.869 1297.789, 592.306 1300, 596.753 1300 C 599.066 1300, 602.656 1300.677, 604.730 1301.505 C 608.829 1303.142, 620.182 1305.675, 629.150 1306.953 C 632.258 1307.396, 635.276 1308.053, 635.858 1308.412 C 636.439 1308.771, 640.872 1309.967, 645.708 1311.068 C 664.514 1315.352, 666.734 1315.896, 674 1317.997 C 678.125 1319.190, 683.300 1320.530, 685.500 1320.976 C 689.428 1321.771, 690.438 1322.075, 700.500 1325.485 C 703.250 1326.417, 707.791 1327.541, 710.591 1327.982 C 713.391 1328.423, 716.541 1329.275, 717.591 1329.874 C 719.194 1330.790, 723.162 1331.970, 733 1334.457 C 733.825 1334.666, 736.525 1335.728, 739 1336.819 C 741.475 1337.909, 745.413 1339.110, 747.750 1339.488 C 750.087 1339.866, 752 1340.661, 752 1341.255 C 752 1341.848, 752.248 1342.086, 752.550 1341.783 C 753.096 1341.237, 760.037 1343.468, 773.500 1348.517 C 777.350 1349.961, 784.838 1352.601, 790.140 1354.384 C 795.442 1356.167, 800.939 1358.385, 802.355 1359.313 C 803.771 1360.241, 805.390 1361, 805.953 1361 C 806.516 1361, 810.822 1362.592, 815.523 1364.538 C 820.223 1366.483, 824.472 1367.826, 824.965 1367.521 C 825.458 1367.217, 826.150 1367.433, 826.502 1368.003 C 827.353 1369.381, 836.535 1374, 838.423 1374 C 839.242 1374, 842.202 1375.350, 845 1377 C 847.798 1378.650, 850.680 1380, 851.403 1380 C 852.127 1380, 855.248 1381.350, 858.340 1383 C 861.432 1384.650, 864.810 1386, 865.846 1386 C 866.882 1386, 868.863 1386.891, 870.247 1387.980 C 872.530 1389.776, 876.307 1391.604, 878.260 1391.860 C 879.629 1392.039, 885.462 1395.208, 887.162 1396.696 C 888.077 1397.496, 889.427 1398.242, 890.162 1398.354 C 890.898 1398.465, 892.168 1398.973, 892.984 1399.482 C 896.941 1401.949, 903 1404.874, 903 1404.317 C 903 1403.972, 903.788 1404.386, 904.750 1405.236 C 905.712 1406.086, 910.550 1408.812, 915.500 1411.294 C 920.450 1413.776, 926.288 1417.030, 928.473 1418.524 C 930.658 1420.019, 932.999 1421.324, 933.675 1421.423 C 934.351 1421.522, 935.730 1422.350, 936.739 1423.263 C 937.748 1424.177, 940.675 1425.854, 943.245 1426.990 C 945.815 1428.127, 948.159 1429.448, 948.454 1429.925 C 948.749 1430.402, 950.905 1431.791, 953.245 1433.011 C 955.585 1434.230, 959.075 1436.465, 961 1437.977 C 964.763 1440.932, 971.109 1444.513, 972.117 1444.250 C 972.457 1444.161, 973.773 1445.194, 975.042 1446.544 C 976.310 1447.895, 977.879 1449, 978.528 1449 C 979.177 1449, 980.850 1450.058, 982.245 1451.351 C 983.640 1452.644, 985.540 1453.993, 986.468 1454.349 C 987.395 1454.705, 991.156 1457.257, 994.827 1460.020 C 1006.795 1469.030, 1014.263 1474.479, 1016.219 1475.627 C 1017.275 1476.247, 1018.808 1477.709, 1019.626 1478.877 C 1020.444 1480.045, 1021.679 1481, 1022.370 1481 C 1023.061 1481, 1024.919 1482.350, 1026.500 1484 C 1028.081 1485.650, 1029.852 1487.008, 1030.437 1487.017 C 1031.022 1487.026, 1033.300 1488.878, 1035.500 1491.133 C 1037.700 1493.388, 1041.188 1496.311, 1043.250 1497.629 C 1045.313 1498.947, 1047 1500.469, 1047 1501.013 C 1047 1501.556, 1047.642 1502, 1048.427 1502 C 1049.213 1502, 1050.677 1503.013, 1051.682 1504.250 C 1052.686 1505.487, 1055.532 1508.135, 1058.004 1510.132 C 1060.477 1512.130, 1068.903 1520.118, 1076.729 1527.882 C 1090.518 1541.563, 1094.261 1544.089, 1095.594 1540.617 C 1096.401 1538.512, 1093.091 1531.781, 1088.250 1525.681 C 1087.013 1524.122, 1086 1522.426, 1086 1521.913 C 1086 1520.855, 1079.708 1511.565, 1076.871 1508.436 C 1075.842 1507.300, 1075 1506.083, 1075 1505.730 C 1075 1505.069, 1068.477 1495.557, 1066.243 1492.961 C 1065.551 1492.158, 1062.458 1488.350, 1059.369 1484.500 C 1056.280 1480.650, 1053.424 1477.275, 1053.024 1477 C 1052.623 1476.725, 1050.123 1473.800, 1047.466 1470.500 C 1038.873 1459.823, 1028.750 1449, 1027.358 1449 C 1026.611 1449, 1026 1448.601, 1026 1448.114 C 1026 1447.339, 1004.047 1426.939, 997.359 1421.500 C 996.007 1420.400, 992.960 1417.813, 990.588 1415.750 C 988.217 1413.688, 985.993 1412, 985.647 1412 C 985.301 1412, 983.727 1410.650, 982.150 1409 C 980.574 1407.350, 978.937 1406, 978.513 1406 C 978.089 1406, 976.034 1404.537, 973.946 1402.750 C 971.858 1400.963, 967.847 1397.925, 965.032 1396 C 962.218 1394.075, 956.504 1389.912, 952.336 1386.750 C 948.168 1383.588, 944.245 1381, 943.618 1381 C 942.992 1381, 941.359 1379.987, 939.990 1378.750 C 937.279 1376.300, 926.391 1369, 925.447 1369 C 925.126 1369, 920.765 1366.300, 915.756 1363 C 910.747 1359.700, 906.273 1357, 905.813 1357 C 905.353 1357, 902.340 1355.200, 899.117 1353 C 895.894 1350.800, 892.820 1349, 892.286 1349 C 891.752 1349, 889.331 1347.890, 886.907 1346.534 C 884.483 1345.177, 881.063 1343.411, 879.307 1342.609 C 877.551 1341.806, 874.409 1339.991, 872.325 1338.575 C 870.241 1337.159, 867.663 1336, 866.597 1336 C 865.530 1336, 863.931 1335.343, 863.043 1334.539 C 860.075 1331.853, 825.732 1315.353, 821.519 1314.589 C 819.925 1314.300, 816.450 1312.714, 813.796 1311.064 C 811.142 1309.414, 807.965 1307.901, 806.735 1307.701 C 804.353 1307.313, 800.204 1305.667, 795.806 1303.364 C 794.325 1302.588, 789.715 1300.844, 785.562 1299.489 C 781.409 1298.133, 777.221 1296.558, 776.255 1295.988 C 774.144 1294.742, 749.496 1286.080, 746.111 1285.394 C 744.796 1285.128, 742.096 1284.215, 740.111 1283.366 C 734.040 1280.769, 722.058 1277, 719.873 1277 C 718.738 1277, 716.614 1276.353, 715.154 1275.562 C 711.534 1273.600, 699.616 1270, 696.741 1270 C 695.453 1270, 693.972 1269.623, 693.450 1269.162 C 691.770 1267.680, 641.681 1254.764, 632.500 1253.446 C 629.750 1253.051, 626.375 1252.295, 625 1251.766 C 622.049 1250.630, 601.667 1246.430, 594.500 1245.480 C 591.750 1245.115, 587.725 1244.367, 585.555 1243.818 C 583.385 1243.268, 579.560 1242.451, 577.055 1242.004 C 574.550 1241.556, 568.900 1240.434, 564.500 1239.511 C 560.100 1238.588, 552.900 1237.455, 548.500 1236.994 C 537.772 1235.871, 516.127 1232.460, 515.454 1231.788 C 514.859 1231.192, 518.021 1228.548, 526.562 1222.500 C 529.668 1220.300, 535.074 1216.138, 538.575 1213.250 C 542.076 1210.362, 545.274 1208, 545.682 1208 C 546.090 1208, 548.241 1206.250, 550.462 1204.110 C 552.683 1201.971, 557.650 1198.092, 561.500 1195.491 C 565.350 1192.891, 568.725 1190.479, 569 1190.131 C 569.884 1189.015, 579.428 1181.500, 579.962 1181.500 C 580.246 1181.500, 582.508 1179.592, 584.989 1177.260 C 587.470 1174.929, 590.332 1172.747, 591.349 1172.412 C 593.358 1171.750, 593.994 1171.260, 601.604 1164.520 C 604.411 1162.034, 607.132 1160, 607.651 1160 C 608.170 1160, 610.352 1158.200, 612.500 1156 C 614.648 1153.800, 616.990 1152, 617.703 1152 C 618.416 1152, 619 1151.622, 619 1151.161 C 619 1150.699, 620.013 1149.853, 621.250 1149.280 C 622.487 1148.707, 625.722 1146.273, 628.437 1143.869 C 631.153 1141.466, 633.403 1139.704, 633.437 1139.954 C 633.509 1140.477, 636.575 1138.062, 642.418 1132.880 C 644.663 1130.890, 647.400 1128.978, 648.500 1128.633 C 649.600 1128.287, 652.300 1126.321, 654.500 1124.262 C 656.700 1122.204, 659.223 1120.065, 660.107 1119.510 C 665.821 1115.919, 669.827 1112.879, 672 1110.484 C 673.375 1108.968, 676.926 1106.160, 679.892 1104.243 C 682.857 1102.326, 687.018 1099.124, 689.137 1097.129 C 691.256 1095.133, 693.376 1093.500, 693.848 1093.500 C 694.321 1093.500, 698.993 1090.125, 704.232 1086 C 709.471 1081.875, 714.804 1077.825, 716.084 1077 C 717.363 1076.175, 720.680 1073.421, 723.455 1070.879 C 726.230 1068.338, 729.850 1065.570, 731.500 1064.727 C 733.150 1063.885, 737.604 1060.452, 741.398 1057.098 C 745.192 1053.744, 748.844 1051, 749.512 1051 C 750.180 1051, 751.801 1049.958, 753.114 1048.684 C 756.067 1045.818, 768.528 1036.061, 772.255 1033.696 C 773.770 1032.734, 778.063 1029.372, 781.795 1026.224 C 785.527 1023.076, 789.294 1020.050, 790.167 1019.500 C 791.039 1018.950, 795.241 1015.800, 799.503 1012.500 C 803.766 1009.200, 809.784 1004.703, 812.877 1002.508 C 815.970 1000.312, 820.391 996.599, 822.702 994.258 C 825.013 991.916, 827.376 990, 827.952 990 C 828.528 990, 829.788 989.212, 830.751 988.250 C 831.714 987.288, 835.652 984.301, 839.501 981.614 C 848.270 975.491, 850.948 973.440, 856.259 968.777 C 861.086 964.539, 863.107 964.275, 873 966.593 C 876.575 967.430, 880.625 968.348, 882 968.632 C 897.744 971.881, 907.857 974.304, 909.500 975.219 C 911.329 976.238, 917.023 977.950, 935.012 982.890 C 938.593 983.873, 943.993 985.597, 947.012 986.720 C 950.030 987.842, 954.387 989.075, 956.692 989.459 C 958.998 989.842, 961.416 990.796, 962.065 991.578 C 962.714 992.360, 963.752 993, 964.372 993.001 C 964.993 993.001, 968.425 994.394, 972 996.095 C 979.658 999.740, 991.109 1004, 993.249 1004 C 994.077 1004, 995.255 1004.602, 995.866 1005.338 C 996.476 1006.074, 998.894 1007.246, 1001.238 1007.941 C 1003.582 1008.637, 1005.950 1009.558, 1006.500 1009.988 C 1009.734 1012.517, 1025.501 1020.006, 1027.989 1020.196 C 1029.616 1020.320, 1031.163 1020.981, 1031.425 1021.666 C 1031.688 1022.350, 1033.780 1023.868, 1036.075 1025.038 C 1038.371 1026.209, 1042.091 1028.502, 1044.344 1030.134 C 1046.596 1031.766, 1050.453 1033.991, 1052.914 1035.080 C 1055.376 1036.169, 1058.990 1038.284, 1060.945 1039.780 C 1062.900 1041.276, 1066.075 1043.346, 1068 1044.380 C 1069.925 1045.414, 1072.772 1047.326, 1074.327 1048.630 C 1075.881 1049.933, 1077.940 1051, 1078.902 1051 C 1079.864 1051, 1081.742 1052.167, 1083.076 1053.594 C 1084.409 1055.021, 1088.313 1058.258, 1091.750 1060.787 C 1095.188 1063.316, 1098 1065.776, 1098 1066.252 C 1098 1066.728, 1098.412 1066.863, 1098.916 1066.552 C 1099.420 1066.241, 1101.107 1067.227, 1102.666 1068.744 C 1104.225 1070.261, 1107.300 1072.813, 1109.500 1074.415 C 1111.700 1076.018, 1115.075 1078.840, 1117 1080.686 C 1128.608 1091.822, 1133.708 1095.985, 1135.750 1095.992 C 1138.826 1096.003, 1138.684 1093.031, 1135.442 1089.532 C 1134.036 1088.014, 1129.952 1082.777, 1126.368 1077.895 C 1122.785 1073.012, 1119.311 1068.675, 1118.649 1068.258 C 1117.987 1067.841, 1116.033 1065.682, 1114.306 1063.461 C 1107.572 1054.798, 1084.025 1030.883, 1075 1023.541 C 1071.425 1020.632, 1066.684 1016.508, 1064.465 1014.376 C 1059.419 1009.529, 1055.681 1006.440, 1054.901 1006.474 C 1054.571 1006.488, 1053.221 1005.506, 1051.901 1004.291 C 1046.046 998.903, 1030.216 987.047, 1028.835 987.015 C 1028.155 987, 1014.681 978.272, 1007.500 973.196 C 1005.300 971.640, 1001.250 969.273, 998.500 967.934 C 995.750 966.595, 993.350 965.163, 993.167 964.750 C 992.983 964.337, 992.071 964, 991.139 964 C 990.207 964, 988.332 963.220, 986.973 962.267 C 982.886 959.402, 961.690 949, 959.938 949 C 959.043 949, 957.495 948.100, 956.500 947 C 955.505 945.900, 953.955 945, 953.056 945 C 952.158 945, 949.676 944.109, 947.541 943.021 C 945.406 941.932, 940.023 939.857, 935.580 938.409 C 931.136 936.961, 923.559 934.251, 918.743 932.388 C 913.927 930.525, 909.330 929, 908.527 929 C 907.724 929, 905.590 928.388, 903.784 927.641 C 897.845 925.182, 887.581 922.147, 883 921.495 C 880.525 921.143, 877.150 920.249, 875.500 919.508 C 873.850 918.768, 869.575 917.638, 866 916.998 C 862.425 916.357, 857.043 915.195, 854.040 914.416 C 844.673 911.986, 834.821 912.497, 831.941 915.562 M 1538.500 913.999 C 1523.463 916.816, 1503.340 921.742, 1489.500 925.996 C 1475.303 930.360, 1473.330 931.009, 1465 934.063 C 1460.325 935.777, 1455.375 937.425, 1454 937.724 C 1452.625 938.023, 1451.050 938.606, 1450.500 939.019 C 1449.950 939.431, 1447.962 940.098, 1446.083 940.501 C 1444.204 940.903, 1441.279 942.078, 1439.583 943.112 C 1437.887 944.146, 1435.768 944.994, 1434.872 944.996 C 1433.977 944.998, 1432.723 945.629, 1432.085 946.397 C 1431.448 947.165, 1428.671 948.531, 1425.916 949.433 C 1420.885 951.078, 1400.922 960.990, 1398.366 963.111 C 1397.615 963.735, 1396.993 963.852, 1396.985 963.372 C 1396.976 962.893, 1396.639 962.974, 1396.235 963.553 C 1395.831 964.132, 1393.025 965.651, 1390 966.928 C 1386.975 968.205, 1381.350 971.328, 1377.500 973.866 C 1373.650 976.405, 1369.746 978.796, 1368.825 979.181 C 1367.904 979.565, 1364.954 981.424, 1362.269 983.311 C 1359.584 985.198, 1356.453 987.039, 1355.312 987.401 C 1353.297 988.040, 1336.674 1000.091, 1332.359 1004.041 C 1331.182 1005.118, 1329.794 1006, 1329.275 1006 C 1328.757 1006, 1326.345 1007.847, 1323.916 1010.104 C 1321.487 1012.362, 1315 1017.718, 1309.500 1022.007 C 1299.154 1030.076, 1274.215 1054.228, 1258.500 1071.400 C 1253.550 1076.809, 1248.320 1082.419, 1246.878 1083.867 C 1238.674 1092.105, 1238.216 1102.677, 1246.395 1095.032 C 1247.553 1093.950, 1251.917 1089.870, 1256.093 1085.967 C 1260.270 1082.063, 1264.995 1078.063, 1266.593 1077.078 C 1268.192 1076.092, 1270.400 1074.267, 1271.500 1073.022 C 1272.600 1071.776, 1276.200 1068.937, 1279.500 1066.713 C 1282.800 1064.488, 1286.978 1061.393, 1288.785 1059.834 C 1290.591 1058.275, 1292.650 1057, 1293.360 1057 C 1294.070 1057, 1295.742 1055.836, 1297.076 1054.413 C 1298.409 1052.990, 1300.905 1051.237, 1302.622 1050.517 C 1304.340 1049.797, 1306.836 1048.260, 1308.171 1047.099 C 1309.505 1045.939, 1312.150 1044.155, 1314.048 1043.134 C 1315.947 1042.114, 1321.325 1039.128, 1326 1036.500 C 1330.675 1033.872, 1335.874 1030.977, 1337.554 1030.068 C 1339.233 1029.159, 1342.003 1027.422, 1343.708 1026.208 C 1345.413 1024.994, 1347.270 1024, 1347.833 1024 C 1348.396 1024, 1349.626 1023.231, 1350.567 1022.290 C 1351.507 1021.350, 1353.227 1020.450, 1354.388 1020.289 C 1356.320 1020.023, 1364.628 1016.409, 1369.500 1013.717 C 1376.354 1009.928, 1382.553 1007, 1383.718 1007 C 1384.462 1007, 1386.082 1006.337, 1387.319 1005.527 C 1388.556 1004.716, 1390.452 1003.896, 1391.534 1003.703 C 1392.615 1003.510, 1395.242 1002.598, 1397.372 1001.676 C 1399.502 1000.754, 1401.582 1000, 1401.995 1000 C 1402.984 1000, 1411.784 996.288, 1415.154 994.448 C 1416.614 993.652, 1418.682 993, 1419.749 993 C 1420.817 993, 1422.505 992.100, 1423.500 991 C 1424.499 989.896, 1426.580 989, 1428.144 989 C 1429.703 989, 1433.796 987.881, 1437.239 986.514 C 1440.683 985.147, 1444.400 983.864, 1445.500 983.664 C 1446.600 983.464, 1448.175 983.037, 1449 982.715 C 1449.825 982.393, 1452.525 981.684, 1455 981.139 C 1462.346 979.520, 1471.427 976.873, 1472.500 976.037 C 1473.050 975.608, 1475.975 974.691, 1479 973.998 C 1482.025 973.305, 1487.768 971.897, 1491.761 970.869 C 1495.755 969.841, 1500.086 969, 1501.385 969 C 1502.685 969, 1505.670 968.322, 1508.018 967.494 C 1510.366 966.665, 1515.260 965.720, 1518.894 965.394 L 1525.500 964.802 1531.500 970.378 C 1534.800 973.445, 1537.836 975.965, 1538.247 975.977 C 1538.658 975.990, 1540.862 977.688, 1543.145 979.750 C 1545.428 981.813, 1547.494 983.340, 1547.736 983.146 C 1548.269 982.716, 1555.236 988.332, 1559.446 992.585 C 1563.226 996.403, 1571 1002.404, 1571 1001.504 C 1571 1001.139, 1573.511 1003.238, 1576.580 1006.170 C 1579.649 1009.101, 1582.877 1011.903, 1583.753 1012.397 C 1585.425 1013.338, 1588.620 1016.004, 1595.558 1022.250 C 1597.849 1024.313, 1600.123 1026.010, 1600.612 1026.023 C 1601.100 1026.036, 1603.150 1027.498, 1605.166 1029.273 C 1607.183 1031.048, 1611.669 1034.750, 1615.135 1037.500 C 1618.602 1040.250, 1623.445 1044.412, 1625.898 1046.750 C 1628.351 1049.088, 1630.840 1051.010, 1631.429 1051.022 C 1632.018 1051.034, 1635.200 1053.579, 1638.500 1056.678 C 1641.800 1059.777, 1647 1064.022, 1650.056 1066.111 C 1653.111 1068.201, 1656.761 1070.943, 1658.167 1072.205 C 1659.573 1073.467, 1661.419 1074.950, 1662.269 1075.500 C 1664.867 1077.181, 1682.478 1092.340, 1682.835 1093.203 C 1683.020 1093.648, 1683.531 1093.790, 1683.972 1093.517 C 1684.412 1093.245, 1687.541 1095.492, 1690.924 1098.511 C 1694.307 1101.530, 1697.396 1104.005, 1697.788 1104.010 C 1698.180 1104.016, 1700.763 1106.153, 1703.529 1108.760 C 1709.347 1114.244, 1727.466 1129, 1728.381 1129 C 1728.721 1129, 1729.821 1129.787, 1730.824 1130.750 C 1734.249 1134.037, 1740.603 1139.498, 1742.168 1140.500 C 1743.027 1141.050, 1748.118 1145.100, 1753.480 1149.500 C 1758.843 1153.900, 1764.191 1158.175, 1765.365 1159 C 1766.539 1159.825, 1768.945 1161.794, 1770.711 1163.375 C 1772.477 1164.957, 1775.233 1167.207, 1776.835 1168.375 C 1785.817 1174.926, 1791.007 1179.183, 1791.915 1180.741 C 1792.478 1181.709, 1792.953 1182.157, 1792.970 1181.738 C 1792.986 1181.320, 1795.588 1183.050, 1798.750 1185.584 C 1801.912 1188.118, 1807.399 1192.511, 1810.941 1195.346 C 1814.484 1198.181, 1819.019 1202.075, 1821.019 1204 C 1823.018 1205.925, 1827.049 1209.300, 1829.976 1211.500 C 1832.903 1213.700, 1837.594 1217.426, 1840.399 1219.780 C 1843.205 1222.134, 1846.628 1224.554, 1848.007 1225.158 C 1856.945 1229.070, 1855.036 1232.637, 1843.293 1233.967 C 1838.243 1234.539, 1832.908 1235.465, 1831.437 1236.024 C 1829.965 1236.584, 1826.452 1237.070, 1823.630 1237.106 C 1820.809 1237.142, 1809.500 1238.958, 1798.500 1241.142 C 1787.500 1243.326, 1775.800 1245.492, 1772.500 1245.956 C 1762.519 1247.359, 1748.611 1250.151, 1746.718 1251.133 C 1745.738 1251.641, 1741.013 1252.739, 1736.218 1253.573 C 1731.423 1254.407, 1723.225 1256.231, 1718 1257.626 C 1712.775 1259.021, 1704.900 1260.997, 1700.500 1262.017 C 1690.569 1264.319, 1678.471 1267.517, 1674.500 1268.890 C 1672.850 1269.460, 1667.238 1271.077, 1662.030 1272.484 C 1656.821 1273.890, 1652.119 1275.481, 1651.580 1276.020 C 1651.041 1276.559, 1649.072 1277, 1647.204 1277 C 1645.337 1277, 1642.614 1277.609, 1641.154 1278.354 C 1639.694 1279.098, 1634.450 1280.954, 1629.500 1282.477 C 1620.675 1285.193, 1618.783 1285.854, 1606.360 1290.561 C 1602.983 1291.840, 1599.994 1292.661, 1599.718 1292.385 C 1599.442 1292.108, 1596.180 1293.259, 1592.470 1294.941 C 1588.759 1296.624, 1585.291 1298, 1584.763 1298 C 1584.235 1298, 1582.384 1298.636, 1580.651 1299.414 C 1578.918 1300.191, 1575.700 1301.385, 1573.500 1302.065 C 1571.300 1302.746, 1568.600 1303.875, 1567.500 1304.573 C 1566.400 1305.272, 1562.944 1306.576, 1559.821 1307.472 C 1556.697 1308.368, 1553.097 1309.901, 1551.821 1310.880 C 1549.248 1312.852, 1546.705 1313.949, 1543.114 1314.633 C 1541.802 1314.884, 1537.527 1316.614, 1533.614 1318.479 C 1529.701 1320.345, 1522.225 1323.781, 1517 1326.116 C 1511.775 1328.452, 1505.343 1331.631, 1502.706 1333.181 C 1500.069 1334.731, 1497.317 1336, 1496.591 1336 C 1495.864 1336, 1494.197 1336.808, 1492.885 1337.795 C 1491.573 1338.783, 1488.475 1340.442, 1486 1341.483 C 1483.525 1342.524, 1480.825 1343.902, 1480 1344.545 C 1479.175 1345.188, 1475.350 1347.172, 1471.500 1348.952 C 1467.650 1350.733, 1463.600 1352.974, 1462.500 1353.933 C 1461.400 1354.892, 1458.700 1356.551, 1456.500 1357.619 C 1451.816 1359.893, 1441.403 1365.902, 1435 1370.026 C 1432.525 1371.621, 1429.150 1373.549, 1427.500 1374.311 C 1425.850 1375.073, 1423.085 1376.890, 1421.356 1378.348 C 1419.626 1379.807, 1417.544 1381, 1416.728 1381 C 1415.912 1381, 1414.694 1381.664, 1414.020 1382.476 C 1413.346 1383.288, 1407.103 1387.758, 1400.147 1392.409 C 1393.191 1397.060, 1386.506 1401.796, 1385.292 1402.933 C 1384.077 1404.070, 1382.681 1405, 1382.188 1405 C 1381.695 1405, 1380.168 1406.013, 1378.794 1407.250 C 1372.537 1412.887, 1368.755 1416.001, 1368.154 1416.013 C 1367.794 1416.021, 1365.025 1418.265, 1362 1421 C 1358.975 1423.735, 1356.195 1425.979, 1355.821 1425.987 C 1355.448 1425.994, 1354.548 1426.563, 1353.821 1427.250 C 1353.094 1427.938, 1350.699 1430.014, 1348.499 1431.864 C 1331.380 1446.261, 1295.560 1482.032, 1290.211 1490.071 C 1288.236 1493.039, 1287.570 1493.860, 1282.063 1500.112 C 1279.828 1502.648, 1278 1505.031, 1278 1505.406 C 1278 1505.781, 1275.075 1509.682, 1271.500 1514.074 C 1267.925 1518.466, 1265 1522.526, 1265 1523.097 C 1265 1524.219, 1260.256 1530.873, 1258.295 1532.500 C 1256.128 1534.299, 1254.832 1539.093, 1256.101 1540.622 C 1258.243 1543.203, 1258.446 1543.065, 1274.625 1528.093 C 1289.967 1513.895, 1295.782 1508.811, 1298.720 1507.024 C 1300.402 1506.001, 1301.941 1504.790, 1302.139 1504.332 C 1302.999 1502.349, 1329.218 1482, 1330.913 1482 C 1331.376 1482, 1332.337 1481.299, 1333.049 1480.441 C 1334.802 1478.328, 1345.816 1470, 1346.856 1470 C 1347.315 1470, 1348.505 1469.100, 1349.500 1468 C 1350.495 1466.900, 1351.815 1466, 1352.432 1466 C 1353.049 1466, 1354.972 1464.763, 1356.705 1463.250 C 1361.718 1458.876, 1378.244 1448, 1379.879 1448 C 1380.325 1448, 1381.505 1447.100, 1382.500 1446 C 1383.495 1444.900, 1384.648 1444, 1385.061 1444 C 1385.474 1444, 1389.567 1441.739, 1394.156 1438.976 C 1405.545 1432.119, 1406.142 1431.745, 1408.873 1429.750 C 1410.191 1428.787, 1411.902 1428, 1412.674 1428 C 1413.447 1428, 1416.418 1426.425, 1419.276 1424.500 C 1422.135 1422.575, 1424.981 1421, 1425.602 1421 C 1426.222 1421, 1427.803 1420.176, 1429.115 1419.169 C 1430.427 1418.162, 1434.875 1415.625, 1439 1413.531 C 1447.896 1409.015, 1447.946 1408.989, 1459.667 1402.822 C 1464.709 1400.170, 1469.369 1398, 1470.023 1398 C 1470.676 1398, 1472.548 1396.875, 1474.182 1395.500 C 1475.816 1394.125, 1477.933 1393, 1478.886 1393 C 1479.838 1393, 1483.233 1391.425, 1486.430 1389.500 C 1489.627 1387.575, 1493.500 1386, 1495.038 1386 C 1496.575 1386, 1497.983 1385.648, 1498.167 1385.217 C 1498.657 1384.065, 1505.894 1380, 1507.455 1380 C 1508.192 1380, 1511.516 1378.650, 1514.841 1377 C 1518.167 1375.350, 1521.476 1373.992, 1522.194 1373.981 C 1522.912 1373.971, 1526.592 1372.396, 1530.370 1370.481 C 1534.149 1368.567, 1537.890 1367, 1538.684 1367 C 1539.478 1367, 1542.562 1365.887, 1545.537 1364.526 C 1548.513 1363.165, 1552.196 1361.741, 1553.723 1361.361 C 1555.251 1360.981, 1558.075 1359.772, 1560 1358.675 C 1561.925 1357.578, 1565.750 1356.105, 1568.500 1355.401 C 1571.250 1354.698, 1575.300 1353.449, 1577.500 1352.626 C 1598.243 1344.863, 1606.639 1341.932, 1609.500 1341.456 C 1612.439 1340.967, 1623.198 1337.219, 1625.405 1335.915 C 1626.452 1335.296, 1628.252 1334.666, 1629.405 1334.515 C 1632.726 1334.080, 1645.573 1330.299, 1647.824 1329.094 C 1648.948 1328.492, 1651.495 1328, 1653.484 1328 C 1655.472 1328, 1658.330 1327.364, 1659.834 1326.586 C 1661.338 1325.808, 1664.354 1324.857, 1666.535 1324.473 C 1668.716 1324.090, 1671.497 1323.151, 1672.715 1322.388 C 1673.933 1321.624, 1676.123 1321, 1677.581 1321 C 1680.099 1321, 1683.224 1320.133, 1696.103 1315.859 C 1699.184 1314.837, 1703.272 1314, 1705.186 1314 C 1707.100 1314, 1709.001 1313.662, 1709.410 1313.250 C 1709.819 1312.838, 1713.607 1311.757, 1717.827 1310.848 C 1722.047 1309.939, 1727.525 1308.663, 1730 1308.011 C 1732.475 1307.360, 1736.075 1306.678, 1738 1306.496 C 1743.581 1305.968, 1759.362 1302.412, 1761.717 1301.151 C 1762.901 1300.518, 1766.142 1300, 1768.920 1300 C 1771.698 1300, 1775.890 1299.547, 1778.236 1298.994 C 1780.581 1298.441, 1786.325 1297.090, 1791 1295.993 C 1795.675 1294.895, 1806.475 1293.058, 1815 1291.911 C 1841.036 1288.405, 1843.042 1288.092, 1844.237 1287.353 C 1844.873 1286.960, 1851.267 1286.101, 1858.447 1285.444 C 1878.909 1283.572, 1892.151 1281.989, 1896.500 1280.896 C 1902.122 1279.483, 1934.257 1277.304, 1969 1275.980 C 2001.723 1274.733, 2001 1274.820, 2001 1272.161 C 2001 1270.160, 1984.010 1254.765, 1981.374 1254.379 C 1980.575 1254.261, 1978.445 1252.553, 1976.640 1250.583 C 1974.835 1248.612, 1972.912 1247, 1972.366 1247 C 1971.821 1247, 1970.052 1245.599, 1968.437 1243.887 C 1966.822 1242.174, 1963.925 1239.748, 1962 1238.496 C 1960.075 1237.243, 1956.956 1234.819, 1955.070 1233.109 C 1953.183 1231.399, 1951.208 1230, 1950.679 1230 C 1949.465 1230, 1942.250 1223.938, 1936.100 1217.750 C 1933.504 1215.138, 1930.922 1213, 1930.364 1213 C 1929.806 1213, 1928.265 1211.847, 1926.941 1210.438 C 1925.617 1209.028, 1922.951 1206.917, 1921.017 1205.746 C 1917.541 1203.641, 1907.072 1195.282, 1905.888 1193.665 C 1905.552 1193.205, 1905.074 1192.980, 1904.827 1193.165 C 1904.580 1193.349, 1901.348 1190.807, 1897.644 1187.515 C 1893.941 1184.223, 1890.143 1181.113, 1889.205 1180.605 C 1887.761 1179.822, 1876.455 1170.289, 1872.180 1166.250 C 1871.452 1165.563, 1870.327 1164.995, 1869.679 1164.988 C 1869.030 1164.982, 1866.475 1163.056, 1864 1160.708 C 1861.525 1158.361, 1857.238 1154.839, 1854.474 1152.883 C 1847.884 1148.218, 1833.172 1136.767, 1830 1133.833 C 1828.625 1132.562, 1827.185 1131.517, 1826.800 1131.511 C 1826.415 1131.505, 1824.600 1129.925, 1822.767 1128 C 1819.502 1124.572, 1806.281 1113.476, 1803.106 1111.500 C 1802.223 1110.950, 1801.275 1110.272, 1801 1109.994 C 1800.725 1109.716, 1798.700 1108.173, 1796.500 1106.564 C 1794.300 1104.956, 1790.866 1102.258, 1788.868 1100.570 C 1778.358 1091.687, 1775.534 1089.375, 1773.610 1088.078 C 1772.449 1087.296, 1769.445 1084.821, 1766.934 1082.578 C 1764.423 1080.335, 1756.773 1074.386, 1749.934 1069.358 C 1743.095 1064.330, 1736.643 1059.267, 1735.595 1058.108 C 1734.547 1056.948, 1733.085 1056, 1732.345 1056 C 1731.605 1056, 1729.300 1054.313, 1727.223 1052.250 C 1725.146 1050.188, 1721.096 1046.720, 1718.223 1044.545 C 1715.350 1042.369, 1713 1040.231, 1713 1039.795 C 1713 1039.358, 1712.647 1039.112, 1712.215 1039.250 C 1711.784 1039.387, 1709.421 1037.624, 1706.965 1035.332 C 1704.509 1033.039, 1701.150 1030.123, 1699.500 1028.850 C 1697.850 1027.578, 1696.350 1026.191, 1696.167 1025.768 C 1695.983 1025.346, 1695.265 1025, 1694.570 1025 C 1693.875 1025, 1691.685 1023.425, 1689.703 1021.500 C 1687.721 1019.575, 1685.736 1018, 1685.292 1018 C 1684.848 1018, 1681.647 1015.525, 1678.179 1012.500 C 1674.710 1009.475, 1671.281 1007, 1670.559 1007 C 1669.836 1007, 1668.627 1006.244, 1667.872 1005.321 C 1665.225 1002.082, 1644.755 985.033, 1644.043 985.474 C 1643.646 985.718, 1640.908 983.687, 1637.956 980.959 C 1635.005 978.232, 1632.062 976, 1631.417 976 C 1629.880 976, 1627.683 973.322, 1628.344 972.252 C 1629.028 971.145, 1611.629 954, 1609.821 954 C 1609.049 954, 1606.429 951.975, 1604 949.500 C 1601.571 947.025, 1599.184 945, 1598.695 945 C 1598.207 945, 1595.762 943.200, 1593.263 941 C 1590.067 938.187, 1587.796 936.994, 1585.609 936.981 C 1583.171 936.966, 1580.516 935.239, 1573.310 928.981 C 1568.255 924.591, 1563.734 921, 1563.262 921 C 1562.791 921, 1560.648 919.200, 1558.500 917 C 1554.297 912.696, 1549.390 911.960, 1538.500 913.999" stroke="none" fill="#9ba364" fill-rule="evenodd"/></svg>