<svg id="svg" version="1.1" xmlns="http://www.w3.org/2000/svg" xmlns:xlink="http://www.w3.org/1999/xlink" width="400" height="400" viewBox="0, 0, 400,400"><g id="svgg"><path id="path0" d="M278.049 43.375 C 266.902 49.641,257.488 61.427,255.285 71.873 C 254.574 75.247,254.475 82.117,255.094 85.192 C 255.149 85.463,255.245 86.048,255.308 86.492 C 255.804 90.003,258.478 97.439,260.749 101.629 C 260.788 101.700,260.478 101.707,260.060 101.645 C 257.015 101.187,249.305 101.555,245.800 102.326 C 238.815 103.861,233.260 106.893,229.700 111.114 C 229.260 111.635,228.803 112.162,228.684 112.283 C 226.166 114.855,223.499 120.732,222.413 126.100 C 222.034 127.975,222.269 135.625,222.776 137.900 C 225.548 150.346,231.989 163.832,243.053 180.355 C 248.549 188.562,248.958 188.735,254.900 185.353 C 256.660 184.352,258.595 183.217,259.200 182.831 C 260.548 181.972,261.372 181.457,262.800 180.579 C 267.484 177.699,277.335 170.602,280.122 168.100 C 280.245 167.990,281.206 167.180,282.258 166.300 C 286.751 162.541,292.867 155.929,295.457 152.031 C 305.576 136.803,300.338 117.492,283.729 108.785 L 281.758 107.752 283.829 106.973 C 298.257 101.552,305.258 91.223,305.232 75.400 C 305.212 63.222,304.066 61.987,294.843 64.208 C 293.492 64.534,292.306 64.800,292.207 64.800 C 292.109 64.800,291.926 64.283,291.802 63.650 C 290.780 58.468,287.095 49.737,284.014 45.200 C 282.417 42.848,280.196 42.168,278.049 43.375 M280.152 54.805 C 281.641 57.770,282.713 60.636,283.618 64.074 C 284.596 67.791,284.596 67.870,283.650 68.468 C 279.672 70.983,278.368 71.992,276.046 74.351 C 271.692 78.775,268.682 85.757,267.920 93.200 C 267.858 93.805,267.750 94.885,267.680 95.600 C 267.610 96.315,267.532 96.924,267.506 96.953 C 267.230 97.273,264.520 90.042,263.703 86.804 C 260.478 74.032,264.761 63.816,277.700 53.419 C 278.985 52.386,278.919 52.349,280.152 54.805 M154.290 58.881 C 153.591 59.186,152.655 60.223,152.289 61.100 C 151.975 61.850,152.060 63.360,152.692 68.300 C 152.959 70.390,153.234 72.640,153.303 73.300 C 153.372 73.960,153.555 75.580,153.709 76.900 C 153.863 78.220,154.039 79.795,154.100 80.400 C 154.162 81.005,154.250 81.815,154.297 82.200 C 154.343 82.585,154.433 83.485,154.497 84.200 C 154.560 84.915,154.653 85.815,154.702 86.200 C 154.803 86.990,154.937 88.438,155.100 90.500 C 155.160 91.270,155.263 92.350,155.328 92.900 C 155.392 93.450,155.400 93.855,155.344 93.800 C 154.972 93.432,147.649 78.376,144.353 71.200 C 140.803 63.473,139.640 62.389,136.500 63.878 C 134.857 64.658,134.276 65.775,133.523 69.600 C 133.085 71.827,132.870 73.177,132.688 74.848 C 132.625 75.427,132.528 76.035,132.472 76.200 C 132.286 76.751,132.226 84.479,132.396 86.100 C 132.632 88.358,132.803 89.562,133.034 90.600 C 133.144 91.095,133.274 91.725,133.323 92.000 C 134.336 97.701,138.151 104.702,143.163 110.056 C 146.488 113.608,146.394 112.968,143.911 115.151 C 135.438 122.600,132.733 135.852,137.698 145.590 C 138.509 147.181,149.964 167.034,158.994 182.500 C 159.187 182.830,160.180 184.540,161.201 186.300 C 162.222 188.060,163.346 189.995,163.699 190.600 C 164.052 191.205,165.141 193.078,166.120 194.763 C 167.099 196.448,168.070 198.113,168.278 198.463 C 168.486 198.813,168.882 199.505,169.159 200.000 C 169.435 200.495,170.143 201.701,170.731 202.680 C 171.319 203.659,171.800 204.484,171.800 204.514 C 171.800 204.543,172.352 205.497,173.026 206.634 C 173.700 207.770,174.478 209.105,174.755 209.600 C 175.031 210.095,175.402 210.725,175.579 211.001 C 176.244 212.038,176.406 212.308,176.538 212.600 C 176.613 212.765,177.287 213.920,178.037 215.168 C 178.787 216.415,179.400 217.464,179.400 217.499 C 179.400 217.554,182.258 222.415,184.515 226.200 C 184.876 226.805,185.380 227.705,185.635 228.200 C 189.545 235.775,201.821 232.678,201.888 224.100 C 201.904 221.976,201.596 208.973,201.500 207.700 C 201.458 207.150,201.366 204.630,201.295 202.100 C 201.225 199.570,201.139 196.870,201.104 196.100 C 201.070 195.330,200.985 192.630,200.915 190.100 C 200.846 187.570,200.747 184.600,200.697 183.500 C 200.647 182.400,200.557 179.925,200.497 178.000 C 200.437 176.075,200.348 173.465,200.298 172.200 C 200.249 170.935,200.160 168.325,200.100 166.400 C 200.041 164.475,199.951 161.730,199.901 160.300 C 199.850 158.870,199.761 156.260,199.702 154.500 C 199.643 152.740,199.553 150.355,199.503 149.200 C 199.452 148.045,199.357 145.435,199.292 143.400 C 199.227 141.365,199.140 139.070,199.099 138.300 C 199.057 137.530,198.968 135.100,198.900 132.900 C 198.832 130.700,198.684 128.180,198.572 127.300 C 197.070 115.528,186.847 105.856,175.278 105.261 L 173.055 105.147 173.338 104.223 C 177.869 89.415,173.349 74.255,160.554 61.348 C 157.846 58.616,156.299 58.006,154.290 58.881 M85.689 59.377 C 84.415 59.956,82.846 62.059,80.303 66.600 C 79.444 68.135,76.801 73.525,76.799 73.747 C 76.798 73.831,76.666 74.151,76.506 74.459 C 72.594 81.958,70.392 96.743,71.986 104.800 C 74.719 118.609,86.650 132.537,102.827 140.801 C 103.542 141.166,103.871 141.506,104.267 142.287 C 105.459 144.634,107.760 148.890,109.248 151.500 C 110.126 153.040,111.072 154.705,111.350 155.200 C 111.627 155.695,112.112 156.487,112.427 156.960 C 112.742 157.433,113.000 157.867,113.000 157.924 C 113.000 158.034,114.420 160.231,117.507 164.900 C 122.410 172.314,122.983 173.018,124.420 173.405 C 127.991 174.367,130.653 170.749,128.786 167.470 C 128.193 166.428,122.273 157.404,120.781 155.267 C 120.462 154.809,120.200 154.390,120.200 154.336 C 120.200 154.282,119.525 153.141,118.700 151.800 C 117.875 150.459,117.200 149.338,117.200 149.307 C 117.200 149.276,116.696 148.362,116.079 147.276 C 115.463 146.189,114.505 144.445,113.951 143.400 C 113.397 142.355,112.774 141.215,112.566 140.867 C 112.156 140.179,112.216 139.980,113.408 138.100 C 114.419 136.504,115.926 133.715,116.919 131.600 C 117.409 130.555,117.885 129.564,117.977 129.399 C 119.097 127.364,121.618 120.335,122.280 117.400 C 122.466 116.575,122.699 115.585,122.798 115.200 C 123.828 111.204,124.071 101.163,123.238 97.041 C 120.342 82.713,108.812 69.516,91.253 60.434 C 88.423 58.971,87.126 58.725,85.689 59.377 M92.500 70.463 C 105.504 78.508,113.673 88.665,115.530 99.100 C 116.755 105.983,115.095 116.538,111.590 124.148 C 111.376 124.614,111.200 125.053,111.200 125.123 C 111.200 125.546,108.354 131.000,108.133 131.000 C 107.824 131.000,107.820 130.992,105.955 126.600 C 103.949 121.878,102.594 118.324,100.881 113.300 C 98.551 106.464,97.371 102.510,95.601 95.610 C 94.400 90.928,93.647 89.954,91.140 89.843 C 88.701 89.735,87.201 90.955,87.040 93.178 C 86.865 95.597,91.417 111.562,94.786 120.350 C 95.113 121.202,95.882 123.195,96.496 124.778 C 97.109 126.361,97.566 127.701,97.512 127.755 C 97.246 128.021,91.325 122.651,88.492 119.577 C 76.625 106.695,76.501 89.301,88.133 69.043 L 88.626 68.185 89.763 68.829 C 90.388 69.184,91.620 69.919,92.500 70.463 M297.315 73.129 C 297.859 76.761,296.685 83.331,294.763 87.400 C 294.425 88.115,294.017 89.009,293.856 89.387 C 292.715 92.066,288.214 95.976,283.596 98.302 C 281.869 99.172,277.142 100.794,276.323 100.797 L 275.746 100.800 275.874 96.950 C 276.290 84.493,281.931 76.926,293.724 73.007 C 296.937 71.940,297.137 71.946,297.315 73.129 M213.397 74.093 C 203.574 76.084,198.540 87.907,203.928 96.331 C 211.737 108.537,230.543 103.660,231.154 89.270 C 231.564 79.610,222.864 72.175,213.397 74.093 M162.707 77.200 C 167.519 85.730,168.395 96.707,164.902 104.700 C 164.757 105.030,164.603 105.480,164.558 105.700 C 164.514 105.920,164.408 105.043,164.324 103.752 C 164.240 102.460,164.142 101.155,164.107 100.852 C 164.071 100.548,163.981 99.490,163.907 98.500 C 163.833 97.510,163.739 96.385,163.699 96.000 C 163.660 95.615,163.573 94.535,163.506 93.600 C 163.440 92.665,163.347 91.585,163.299 91.200 C 163.251 90.815,163.165 89.960,163.107 89.300 C 163.049 88.640,162.861 86.705,162.690 85.000 C 162.011 78.258,161.803 76.363,161.678 75.800 C 161.532 75.139,161.586 75.214,162.707 77.200 M140.663 82.650 C 143.291 88.054,148.048 97.610,149.150 99.700 C 149.904 101.130,151.138 103.470,151.892 104.900 C 152.646 106.330,153.435 107.748,153.645 108.050 C 155.471 110.678,148.378 104.170,146.300 101.310 C 146.080 101.007,145.605 100.365,145.244 99.884 C 142.681 96.463,140.649 90.157,140.296 84.528 C 140.233 83.523,140.143 82.453,140.096 82.150 C 139.973 81.363,140.085 81.461,140.663 82.650 M218.834 82.315 C 221.165 83.080,223.200 86.008,223.200 88.597 C 223.200 93.765,217.094 97.060,212.868 94.174 C 206.217 89.630,211.164 79.798,218.834 82.315 M321.878 99.227 C 311.955 100.386,306.096 111.392,310.632 120.352 C 315.224 129.423,326.948 131.393,334.121 124.300 C 344.208 114.325,336.029 97.573,321.878 99.227 M326.071 107.525 C 330.185 108.977,331.809 114.267,329.202 117.721 C 326.669 121.076,322.158 121.486,319.231 118.627 C 314.093 113.610,319.312 105.140,326.071 107.525 M261.700 109.999 C 269.984 111.259,276.278 113.518,281.754 117.194 C 290.806 123.271,294.370 132.192,291.464 141.495 C 289.321 148.352,281.901 156.657,270.000 165.518 C 266.962 167.780,265.739 168.679,265.262 169.000 C 264.204 169.713,258.174 173.747,256.846 174.632 C 256.047 175.164,255.361 175.600,255.322 175.600 C 255.283 175.600,254.363 176.144,253.276 176.809 L 251.300 178.018 250.741 177.359 C 247.886 173.992,238.995 158.549,236.199 152.100 C 235.913 151.440,235.469 150.450,235.212 149.900 C 233.409 146.036,230.882 138.221,230.491 135.300 C 230.417 134.750,230.287 133.857,230.203 133.315 C 228.835 124.573,234.645 114.868,243.300 111.438 C 247.623 109.724,255.728 109.091,261.700 109.999 M176.100 113.476 C 177.367 113.750,177.832 113.885,179.100 114.346 C 186.018 116.861,190.421 122.731,190.915 130.100 C 191.323 136.177,191.319 138.246,190.900 138.423 C 190.680 138.516,187.800 139.368,184.500 140.316 C 177.268 142.394,177.471 142.332,176.600 142.758 C 174.930 143.574,174.301 146.819,175.519 148.331 C 176.930 150.083,178.336 150.330,181.637 149.409 C 182.442 149.185,184.963 148.474,187.239 147.829 L 191.378 146.657 191.485 147.679 C 191.544 148.240,191.641 150.050,191.700 151.700 C 191.759 153.350,191.853 155.915,191.909 157.400 C 192.006 159.991,192.686 180.258,192.899 186.900 C 192.955 188.660,193.047 191.360,193.101 192.900 C 193.156 194.440,193.244 197.050,193.296 198.700 C 193.530 206.137,193.632 209.233,193.701 211.000 C 194.221 224.405,194.080 225.809,192.442 223.529 C 191.857 222.714,188.286 216.656,186.944 214.200 C 186.613 213.595,186.275 213.010,186.192 212.900 C 186.109 212.790,185.816 212.295,185.540 211.800 C 185.264 211.305,183.848 208.830,182.395 206.300 C 180.941 203.770,179.524 201.295,179.246 200.800 C 178.622 199.690,174.687 192.739,174.182 191.856 L 173.813 191.212 174.657 190.994 C 178.348 190.042,184.529 188.013,185.095 187.568 C 186.877 186.166,186.864 183.261,185.068 181.563 C 183.629 180.202,182.937 180.251,176.200 182.194 C 174.605 182.653,172.509 183.240,171.543 183.496 L 169.785 183.962 168.546 182.131 C 167.865 181.124,167.029 179.850,166.688 179.300 C 166.347 178.750,165.101 176.739,163.919 174.832 C 162.736 172.925,161.818 171.315,161.878 171.255 C 161.939 171.195,163.668 170.662,165.722 170.070 C 171.782 168.324,173.083 167.079,172.215 163.854 C 171.322 160.540,169.613 160.377,161.100 162.792 C 157.317 163.865,157.598 163.867,156.850 162.769 C 156.493 162.245,156.200 161.763,156.200 161.698 C 156.200 161.634,155.885 161.088,155.500 160.487 C 155.115 159.885,154.800 159.365,154.800 159.331 C 154.800 159.297,153.843 157.611,152.674 155.585 C 149.860 150.706,149.877 150.736,148.888 148.953 C 148.416 148.102,148.091 147.371,148.165 147.329 C 148.239 147.287,148.975 147.055,149.800 146.813 C 155.957 145.006,156.647 144.677,157.409 143.183 C 158.829 140.399,156.759 137.390,153.610 137.662 C 152.305 137.774,147.258 139.023,144.662 139.875 C 143.448 140.274,142.852 133.492,143.801 130.083 C 145.817 122.843,149.938 119.114,158.700 116.602 C 162.973 115.377,164.950 114.832,169.300 113.680 C 171.020 113.224,174.461 113.121,176.100 113.476 M247.100 115.560 C 245.624 116.083,244.425 117.406,242.516 120.615 C 237.223 129.512,237.365 139.476,242.987 153.800 C 244.976 158.866,246.141 159.954,249.106 159.509 C 252.087 159.063,252.867 156.226,251.088 152.300 C 246.610 142.414,245.505 133.214,248.101 127.431 C 248.968 125.499,249.819 123.978,250.748 122.700 C 252.445 120.365,252.594 118.609,251.234 116.964 C 250.326 115.864,248.239 115.156,247.100 115.560 M357.124 120.217 C 354.113 120.945,352.084 122.911,349.373 127.724 C 347.166 131.644,346.626 132.615,345.442 134.800 C 345.054 135.515,344.559 136.415,344.342 136.800 C 344.126 137.185,343.003 139.210,341.847 141.300 C 340.692 143.390,339.734 145.118,339.718 145.139 C 339.687 145.181,339.200 145.062,336.760 144.422 C 329.316 142.468,320.794 144.083,314.540 148.634 C 313.433 149.439,309.098 153.649,301.200 161.589 C 289.199 173.653,286.948 175.841,282.100 180.161 C 280.560 181.534,278.985 182.938,278.600 183.282 C 277.989 183.829,272.971 187.977,271.924 188.800 C 271.714 188.965,271.263 189.335,270.921 189.621 C 269.543 190.778,261.499 196.670,258.500 198.721 C 254.861 201.208,249.387 204.777,247.200 206.087 C 246.705 206.383,245.850 206.902,245.300 207.240 C 244.750 207.578,244.030 208.009,243.700 208.197 C 242.229 209.036,238.436 211.188,237.800 211.544 C 237.144 211.912,236.166 212.443,233.000 214.149 C 232.285 214.534,231.160 215.144,230.500 215.505 C 228.430 216.636,227.348 217.221,225.800 218.044 C 224.151 218.920,222.439 219.849,220.900 220.701 C 220.350 221.006,219.225 221.615,218.400 222.056 C 205.247 229.074,194.646 240.560,189.610 253.250 L 189.154 254.400 179.527 254.389 C 174.232 254.383,160.426 254.420,148.847 254.471 L 127.794 254.564 128.292 253.973 C 129.098 253.015,129.411 251.665,129.101 250.483 C 128.686 248.902,127.445 244.550,127.134 243.586 C 126.977 243.099,126.605 241.890,126.308 240.900 C 125.808 239.238,124.892 236.227,123.995 233.300 C 123.793 232.640,123.221 230.795,122.724 229.200 C 117.624 212.841,116.955 210.605,117.074 210.295 C 117.124 210.164,117.451 210.000,117.799 209.930 C 120.005 209.489,123.894 207.247,125.865 205.281 C 140.738 190.441,124.181 166.651,104.868 175.110 L 103.836 175.562 103.303 174.331 C 101.070 169.172,96.123 164.404,90.695 162.178 C 76.785 156.474,60.915 165.198,58.457 179.900 C 58.402 180.230,58.296 180.905,58.222 181.400 C 58.101 182.213,58.041 182.294,57.594 182.234 C 53.059 181.626,47.873 182.051,44.300 183.325 C 36.886 185.968,30.442 193.480,29.308 200.800 C 29.249 201.185,29.144 201.770,29.076 202.100 C 28.231 206.173,29.166 211.413,31.681 216.704 L 32.750 218.953 32.185 220.236 C 31.086 222.730,29.974 228.511,30.291 230.076 C 30.339 230.309,30.428 231.162,30.489 231.972 C 32.129 253.722,61.519 260.907,73.803 242.561 L 74.967 240.822 76.153 242.361 C 76.805 243.208,79.143 246.308,81.349 249.250 L 85.359 254.600 76.529 254.615 C 71.673 254.624,67.554 254.659,67.375 254.694 C 66.482 254.868,66.120 255.113,65.392 256.034 L 64.600 257.036 64.600 261.068 C 64.601 264.576,64.812 268.933,65.090 271.200 C 65.138 271.585,65.237 272.395,65.312 273.000 C 65.386 273.605,65.471 274.235,65.500 274.400 C 65.529 274.565,65.615 275.195,65.691 275.800 C 65.767 276.405,65.955 277.620,66.110 278.500 C 66.265 279.380,66.442 280.415,66.504 280.800 C 67.050 284.196,68.374 289.619,69.897 294.700 C 72.219 302.449,77.548 313.880,81.768 320.163 C 81.966 320.458,82.662 321.510,83.313 322.500 C 87.727 329.206,94.668 337.115,101.808 343.574 C 107.049 348.314,114.018 353.310,121.100 357.404 C 121.430 357.595,122.285 358.088,123.000 358.500 C 127.002 360.805,136.078 364.974,140.900 366.722 C 149.414 369.809,158.905 372.404,165.752 373.516 C 166.054 373.565,166.705 373.691,167.200 373.796 C 167.695 373.901,168.460 374.039,168.900 374.103 C 169.340 374.167,170.825 374.389,172.200 374.596 C 173.575 374.804,175.285 375.029,176.000 375.095 C 176.715 375.162,177.525 375.254,177.800 375.298 C 178.075 375.343,178.840 375.431,179.500 375.493 C 180.160 375.556,181.015 375.646,181.400 375.695 C 181.785 375.743,182.910 375.834,183.900 375.896 C 184.890 375.958,186.645 376.105,187.800 376.223 C 189.930 376.440,203.850 376.373,207.200 376.129 C 208.135 376.061,209.620 375.958,210.500 375.901 C 214.456 375.644,215.463 375.561,218.000 375.280 C 220.551 374.999,224.035 374.531,225.250 374.306 C 226.226 374.126,228.078 373.811,228.900 373.684 C 229.340 373.616,231.140 373.258,232.900 372.887 C 239.438 371.510,241.622 370.934,248.600 368.744 C 256.358 366.310,266.622 361.786,273.986 357.556 C 280.856 353.610,289.858 347.125,294.100 343.064 C 294.430 342.749,295.611 341.658,296.724 340.642 C 303.828 334.153,311.950 323.608,317.091 314.200 C 318.258 312.065,320.627 307.206,321.309 305.553 C 321.593 304.864,321.947 304.030,322.097 303.700 C 323.692 300.180,326.439 291.698,327.603 286.700 C 328.711 281.942,329.798 275.556,330.106 272.000 C 330.178 271.175,330.271 270.275,330.314 270.000 C 330.502 268.803,330.700 264.014,330.700 260.685 C 330.700 255.328,330.292 254.817,325.828 254.579 C 324.327 254.500,323.073 254.427,323.039 254.417 C 323.006 254.408,324.367 251.678,326.065 248.350 C 327.763 245.023,331.115 238.430,333.514 233.700 C 335.913 228.970,339.572 221.770,341.644 217.700 C 360.433 180.799,360.261 181.203,360.285 173.800 C 360.304 167.949,359.836 165.740,357.585 161.049 C 356.405 158.591,356.421 158.895,357.380 157.133 C 357.810 156.345,358.382 155.295,358.651 154.800 C 358.921 154.305,359.770 152.775,360.537 151.400 C 361.816 149.109,362.482 147.889,364.303 144.500 C 364.657 143.840,365.240 142.760,365.599 142.100 C 370.283 133.471,370.403 133.174,370.398 130.223 C 370.386 123.650,363.716 118.623,357.124 120.217 M51.300 124.342 C 42.573 125.887,36.970 135.102,39.728 143.376 C 43.968 156.094,61.048 157.364,67.031 145.404 C 72.291 134.891,62.881 122.293,51.300 124.342 M361.105 128.485 C 362.934 129.683,362.771 130.543,359.623 136.283 C 358.180 138.913,357.000 141.097,357.000 141.137 C 357.000 141.176,356.791 141.544,356.535 141.954 C 356.280 142.364,355.603 143.577,355.032 144.649 C 354.460 145.722,353.782 146.982,353.524 147.449 C 353.266 147.917,352.761 148.840,352.401 149.500 C 352.041 150.160,351.683 150.790,351.604 150.900 C 351.526 151.010,351.005 151.955,350.447 153.000 C 349.889 154.045,349.157 155.395,348.820 156.000 C 347.971 157.524,347.912 160.120,348.700 161.281 C 348.975 161.686,349.200 162.046,349.200 162.081 C 349.200 162.116,349.559 162.798,349.998 163.597 C 352.123 167.462,352.935 172.169,352.310 177.000 C 352.038 179.105,350.736 182.307,347.926 187.777 L 346.756 190.054 345.709 187.946 C 343.380 183.258,339.577 179.835,335.300 178.578 C 334.530 178.352,333.150 177.936,332.232 177.654 C 329.379 176.777,327.442 174.996,325.903 171.835 C 323.417 166.727,318.895 163.226,313.433 162.183 L 312.167 161.941 313.933 160.149 C 322.045 151.919,328.664 149.968,337.567 153.182 C 340.852 154.368,342.987 154.268,344.231 152.871 C 344.571 152.489,348.400 145.882,348.400 145.677 C 348.400 145.613,348.566 145.323,348.768 145.031 C 349.094 144.561,349.516 143.806,351.338 140.434 C 351.828 139.528,352.790 137.789,353.460 136.600 C 353.677 136.215,354.100 135.450,354.401 134.900 C 358.216 127.924,359.042 127.133,361.105 128.485 M55.902 132.615 C 59.489 133.723,61.461 138.003,59.973 141.451 C 57.830 146.421,51.071 147.111,48.238 142.649 C 44.778 137.199,49.734 130.710,55.902 132.615 M83.269 168.606 C 90.563 169.442,95.847 174.787,97.092 182.589 C 97.795 186.994,101.053 188.156,104.420 185.200 C 106.097 183.728,107.138 182.970,108.100 182.520 C 118.676 177.570,128.218 191.103,120.010 199.410 C 117.848 201.598,116.235 202.182,111.580 202.466 C 107.499 202.715,106.883 204.648,108.829 211.100 C 110.021 215.052,112.883 224.306,114.303 228.800 C 115.022 231.075,116.973 237.271,117.609 239.300 C 117.919 240.290,118.672 242.675,119.283 244.600 C 120.812 249.422,120.978 248.770,117.800 250.433 C 116.315 251.210,114.815 251.969,114.467 252.119 L 113.833 252.391 113.243 251.346 C 112.919 250.771,111.325 247.690,109.701 244.500 C 98.798 223.079,99.379 224.082,97.595 223.595 C 95.850 223.118,93.675 224.126,92.960 225.744 C 92.138 227.601,92.082 227.456,99.037 241.533 C 104.784 253.167,105.307 254.309,104.932 254.407 C 104.706 254.465,102.446 254.534,99.910 254.559 L 95.300 254.605 93.314 251.952 C 75.329 227.929,75.821 228.532,73.968 228.278 C 71.302 227.913,70.048 229.178,69.087 233.200 C 66.443 244.273,52.388 248.974,44.088 241.562 C 37.879 236.017,36.580 229.372,40.240 221.872 C 41.786 218.704,41.774 217.572,40.168 215.159 C 36.026 208.935,35.797 202.452,39.531 197.078 C 44.248 190.289,51.186 188.451,59.859 191.692 C 63.476 193.044,66.282 191.560,66.088 188.400 C 65.667 181.531,66.337 178.318,68.934 174.759 C 71.245 171.592,76.141 168.772,79.600 168.615 C 80.205 168.588,80.738 168.528,80.783 168.483 C 80.906 168.361,81.306 168.381,83.269 168.606 M307.500 169.483 C 314.702 169.994,316.340 171.008,319.485 176.900 C 321.934 181.490,327.803 185.767,331.700 185.801 C 333.578 185.817,336.823 188.579,338.043 191.200 C 338.324 191.805,339.273 193.837,340.150 195.716 L 341.744 199.132 339.610 203.416 C 337.215 208.223,319.917 242.542,316.231 249.800 L 313.844 254.500 255.822 254.500 C 223.910 254.500,197.800 254.451,197.800 254.390 C 197.800 254.329,197.879 254.194,197.975 254.090 C 198.139 253.912,198.671 252.983,199.688 251.100 C 200.163 250.220,200.323 249.954,201.614 247.900 C 205.622 241.521,212.835 234.658,219.443 230.936 C 220.684 230.237,222.035 229.474,222.444 229.240 C 222.853 229.005,223.753 228.505,224.444 228.127 C 225.135 227.749,227.050 226.698,228.700 225.792 C 230.350 224.885,232.449 223.743,233.365 223.253 C 234.801 222.485,242.914 217.989,245.900 216.306 C 248.361 214.919,250.791 213.471,251.839 212.766 C 252.465 212.345,253.032 212.000,253.097 212.000 C 253.163 212.000,253.460 211.831,253.758 211.625 C 254.056 211.418,256.190 210.004,258.500 208.481 C 262.762 205.672,267.202 202.612,269.200 201.107 C 269.805 200.652,271.245 199.567,272.400 198.698 C 281.271 192.021,288.554 185.572,299.590 174.624 C 303.968 170.282,305.240 169.165,305.664 169.296 C 305.794 169.336,306.620 169.420,307.500 169.483 M299.100 186.563 C 298.442 186.874,296.380 188.354,296.000 188.787 C 295.945 188.850,295.090 189.572,294.100 190.392 C 293.110 191.212,291.809 192.292,291.210 192.791 C 289.761 193.999,285.647 197.214,282.815 199.351 C 277.383 203.450,276.733 204.603,278.363 207.241 C 280.451 210.619,283.297 209.559,292.800 201.864 C 292.965 201.730,294.135 200.795,295.400 199.785 C 297.523 198.090,300.793 195.387,301.326 194.889 C 301.450 194.773,302.021 194.278,302.594 193.789 C 305.263 191.515,305.362 188.650,302.830 186.935 C 301.721 186.185,300.216 186.034,299.100 186.563 M51.877 206.817 C 50.640 207.175,49.062 209.467,49.272 210.600 C 50.366 216.512,56.653 222.100,63.565 223.306 C 70.599 224.532,78.026 221.495,81.939 215.791 C 85.316 210.869,79.042 206.423,75.377 211.142 C 70.335 217.636,61.240 216.820,57.218 209.514 C 55.891 207.103,54.068 206.182,51.877 206.817 M149.400 211.201 C 136.547 212.937,131.713 228.229,141.265 236.936 C 148.939 243.931,161.763 240.509,165.016 230.598 C 167.959 221.633,162.054 212.435,152.564 211.202 C 150.941 210.992,150.950 210.992,149.400 211.201 M249.800 220.065 C 247.655 221.196,245.045 222.575,244.000 223.131 C 242.955 223.687,241.110 224.663,239.900 225.301 C 233.817 228.506,230.718 230.289,228.839 231.668 C 226.521 233.370,224.967 234.588,223.600 235.775 C 221.277 237.793,216.720 242.401,216.083 243.378 C 214.522 245.770,216.240 249.249,219.100 249.485 C 220.741 249.620,220.719 249.635,225.329 245.275 C 230.070 240.792,233.138 238.397,236.700 236.399 C 237.724 235.824,247.717 230.355,249.300 229.503 C 257.658 225.003,257.864 224.871,258.305 223.715 C 259.434 220.759,257.538 217.988,254.400 218.006 C 253.903 218.009,252.566 218.608,249.800 220.065 M153.643 219.754 C 158.939 222.100,158.963 229.951,153.681 232.008 C 147.302 234.493,141.636 227.440,145.594 221.940 C 147.317 219.545,150.947 218.559,153.643 219.754 M322.715 264.250 C 322.454 267.805,321.959 272.862,321.692 274.700 C 321.644 275.030,321.549 275.750,321.481 276.300 L 321.357 277.300 197.647 277.200 C 74.130 277.100,73.938 277.099,73.879 276.700 C 73.846 276.480,73.720 275.490,73.600 274.500 C 73.479 273.510,73.346 272.430,73.303 272.100 C 73.108 270.596,72.900 268.362,72.698 265.600 C 72.630 264.665,72.534 263.563,72.485 263.150 L 72.395 262.400 197.623 262.400 L 322.852 262.400 322.715 264.250 M319.722 285.516 C 319.655 285.689,319.414 286.567,319.186 287.466 C 317.923 292.451,315.994 298.274,314.588 301.348 C 314.375 301.814,314.200 302.239,314.200 302.293 C 314.200 302.644,310.476 310.185,309.426 311.959 C 309.082 312.541,308.800 313.058,308.800 313.107 C 308.800 313.156,308.410 313.804,307.933 314.548 C 307.457 315.292,307.029 315.997,306.983 316.116 C 306.574 317.178,300.835 325.007,298.346 327.900 C 296.907 329.572,288.743 337.722,287.226 339.000 C 286.639 339.495,285.999 340.035,285.806 340.200 C 285.612 340.365,285.156 340.725,284.792 341.000 C 284.428 341.275,283.673 341.868,283.115 342.318 C 280.050 344.789,273.024 349.366,268.691 351.715 C 265.708 353.332,259.025 356.600,258.700 356.600 C 258.651 356.600,258.136 356.822,257.555 357.093 C 256.526 357.575,254.333 358.438,251.100 359.634 C 249.039 360.396,243.244 362.219,240.800 362.873 C 237.042 363.880,236.460 364.023,233.700 364.622 C 232.160 364.957,230.720 365.269,230.500 365.317 C 230.280 365.365,229.830 365.451,229.500 365.508 C 228.149 365.742,226.670 366.007,226.200 366.100 C 225.925 366.155,225.295 366.250,224.800 366.313 C 224.305 366.375,223.765 366.463,223.600 366.507 C 223.435 366.552,221.725 366.773,219.800 366.998 C 217.875 367.223,215.985 367.446,215.600 367.493 C 215.215 367.541,214.090 367.641,213.100 367.715 C 212.110 367.790,211.075 367.877,210.800 367.910 C 206.473 368.417,187.338 368.408,184.129 367.898 C 183.893 367.860,182.890 367.772,181.900 367.702 C 180.910 367.632,179.920 367.539,179.700 367.495 C 179.480 367.451,178.666 367.366,177.892 367.304 C 177.118 367.243,176.308 367.160,176.092 367.119 C 175.876 367.079,175.205 366.989,174.600 366.919 C 173.995 366.849,173.275 366.753,173.000 366.706 C 172.725 366.659,170.840 366.337,168.810 365.991 C 166.781 365.645,164.981 365.332,164.810 365.295 C 164.640 365.259,163.866 365.092,163.090 364.926 C 162.315 364.759,161.460 364.582,161.190 364.532 C 155.845 363.544,142.919 359.419,137.300 356.909 C 132.723 354.863,129.367 353.215,125.500 351.112 C 121.029 348.680,111.520 342.117,108.680 339.502 C 108.560 339.391,107.930 338.855,107.280 338.312 C 97.036 329.738,86.833 315.725,81.252 302.565 C 79.014 297.286,75.600 286.866,75.600 285.314 C 75.600 285.251,130.555 285.200,197.721 285.200 C 308.894 285.200,319.832 285.228,319.722 285.516 M99.583 291.586 C 96.495 293.266,96.858 295.798,101.106 302.200 C 103.242 305.418,105.684 306.044,107.859 303.929 C 109.896 301.949,109.628 300.614,106.043 294.900 C 103.786 291.302,101.891 290.330,99.583 291.586 M112.428 308.754 C 110.169 309.926,109.373 312.400,110.577 314.500 C 111.574 316.237,118.579 323.065,123.200 326.804 C 123.805 327.294,124.345 327.752,124.400 327.822 C 125.274 328.941,139.550 338.600,140.328 338.600 C 140.389 338.600,140.680 338.772,140.974 338.982 C 146.514 342.926,150.957 342.695,151.343 338.442 C 151.565 335.992,150.687 334.990,146.174 332.540 C 135.639 326.822,127.520 320.637,118.500 311.458 C 115.508 308.413,114.205 307.832,112.428 308.754 " stroke="none" fill="#7c7c7c" fill-rule="evenodd"></path><path id="path1" d="M119.500 312.600 C 119.930 313.040,120.326 313.400,120.381 313.400 C 120.436 313.400,120.130 313.040,119.700 312.600 C 119.270 312.160,118.874 311.800,118.819 311.800 C 118.764 311.800,119.070 312.160,119.500 312.600 " stroke="none" fill="#848482" fill-rule="evenodd"></path><path id="path2" d="" stroke="none" fill="#7c847c" fill-rule="evenodd"></path></g></svg>