<svg xmlns="http://www.w3.org/2000/svg" width="2379" height="2379" viewBox="0 0 2379 2379" version="1.1"><path d="M 868.200 452.200 C 866.447 453.953, 866.676 457.187, 869.979 477.331 C 877.652 524.118, 880.784 593.094, 876.920 630.144 C 874.342 654.857, 875.679 700.856, 879.503 719 C 880.257 722.575, 881.147 727.525, 881.482 730 C 883.073 741.754, 891.708 766.998, 899.095 781.487 C 917.446 817.483, 944.767 840.027, 996 861.450 C 999.575 862.945, 1003.850 864.770, 1005.500 865.506 C 1032.124 877.377, 1038.631 880.490, 1047 885.361 C 1050.025 887.122, 1054.025 889.448, 1055.889 890.531 C 1072.546 900.207, 1097.168 925.864, 1104.323 941 C 1104.713 941.825, 1106.362 944.525, 1107.987 947 C 1109.613 949.475, 1111.940 953.525, 1113.160 956 C 1114.380 958.475, 1116.324 962.075, 1117.480 964 C 1118.636 965.925, 1120.422 969.525, 1121.449 972 C 1122.476 974.475, 1124.417 978.975, 1125.763 982 C 1129.563 990.543, 1129.796 991.119, 1132.031 997.500 C 1142.276 1026.747, 1150.885 1059.406, 1155.490 1086.500 C 1160.339 1115.031, 1161.829 1124.977, 1163.432 1139.500 C 1164.221 1146.650, 1165.335 1156.775, 1165.909 1162 C 1168.534 1185.922, 1172.360 1241.163, 1173.942 1278 C 1174.913 1300.618, 1176.561 1308.212, 1180.625 1308.800 C 1192.457 1310.512, 1193.937 1168.886, 1183.088 1073 C 1182.062 1063.925, 1181.448 1055.037, 1181.724 1053.250 C 1182.008 1051.418, 1181.791 1050, 1181.229 1050 C 1180.680 1050, 1179.911 1047.412, 1179.521 1044.250 C 1178.142 1033.070, 1166.637 995.933, 1161.438 985.880 C 1160.619 984.296, 1160.159 983, 1160.416 983 C 1161.321 983, 1150.324 959.909, 1143.033 946.500 C 1138.848 938.803, 1122.642 914.675, 1115.228 905.105 C 1112.078 901.038, 1109.050 896.988, 1108.500 896.105 C 1107.950 895.222, 1105.700 892.454, 1103.500 889.954 C 1082.493 866.077, 1055.062 831.736, 1052 825.478 C 1051.725 824.916, 1050.112 822.441, 1048.417 819.978 C 1045.105 815.169, 1036.496 799.734, 1033.928 794 C 1033.065 792.075, 1031.378 788.475, 1030.178 786 C 1027.221 779.899, 1021.923 765.226, 1017.540 751 C 1014.819 742.167, 1007.753 710.914, 1008.343 710.324 C 1008.539 710.128, 1010.618 715.712, 1012.964 722.734 C 1015.310 729.755, 1017.628 735.927, 1018.115 736.450 C 1018.602 736.972, 1019 737.990, 1019 738.711 C 1019 739.432, 1019.941 742.154, 1021.091 744.761 C 1028.450 761.445, 1031.269 767.679, 1032.051 769 C 1032.539 769.825, 1033.841 772.300, 1034.944 774.500 C 1036.048 776.700, 1037.339 779.175, 1037.815 780 C 1038.290 780.825, 1039.943 783.975, 1041.488 787 C 1043.033 790.025, 1044.793 793.121, 1045.399 793.880 C 1046.004 794.640, 1047.850 797.634, 1049.500 800.534 C 1054.840 809.919, 1060.294 818.405, 1063.685 822.603 C 1065.508 824.860, 1067 827.094, 1067 827.568 C 1067 828.042, 1067.892 829.345, 1068.982 830.465 C 1070.072 831.584, 1074.857 837.450, 1079.615 843.500 C 1096.560 865.044, 1106.789 875.910, 1110.182 875.970 C 1111.918 876.001, 1124 860.700, 1124 858.471 C 1124 857.797, 1124.722 856.646, 1125.604 855.914 C 1126.486 855.181, 1127.613 853.664, 1128.108 852.541 C 1128.603 851.418, 1130.581 847.649, 1132.504 844.165 C 1134.427 840.681, 1136 837.342, 1136 836.744 C 1136 836.147, 1136.607 834.947, 1137.348 834.079 C 1138.090 833.210, 1139.390 830.475, 1140.237 828 C 1141.084 825.525, 1142.993 820.350, 1144.479 816.500 C 1145.966 812.650, 1147.866 806.575, 1148.701 803 C 1149.537 799.425, 1150.882 793.800, 1151.689 790.500 C 1155.162 776.300, 1154.409 735.473, 1150.389 720 C 1149.603 716.975, 1148.751 713.375, 1148.496 712 C 1148.241 710.625, 1146.648 705.450, 1144.956 700.500 C 1143.263 695.550, 1141.286 689.699, 1140.561 687.497 C 1138.919 682.504, 1130.327 664.650, 1125.404 656 C 1123.369 652.425, 1121.068 648.375, 1120.290 647 C 1110.018 628.842, 1082.794 595.702, 1061.694 575.670 C 1049.438 564.033, 1029.753 546.543, 1024.281 542.426 C 1021.411 540.267, 1013.986 534.630, 1007.781 529.900 C 977.891 507.115, 939.606 484.081, 895.500 462.347 C 871.965 450.750, 870.277 450.123, 868.200 452.200 M 618.500 905.653 C 616.300 907.616, 611.350 911.586, 607.500 914.474 C 603.650 917.363, 599.409 920.913, 598.076 922.363 C 596.742 923.813, 595.211 925, 594.672 925 C 594.134 925, 591.362 927.138, 588.513 929.750 C 578.094 939.303, 570.115 946, 569.153 946 C 568.610 946, 568.017 946.337, 567.833 946.750 C 567.650 947.163, 565.025 949.510, 562 951.967 C 558.975 954.424, 553.887 958.811, 550.693 961.717 C 547.499 964.623, 544.269 967, 543.516 967 C 542.762 967, 541.325 968.013, 540.323 969.250 C 538.053 972.052, 519.376 987.985, 518.293 988.042 C 517.857 988.065, 515.250 990.311, 512.500 993.033 C 509.750 995.756, 507.035 997.987, 506.466 997.991 C 505.897 997.996, 502.987 1000.475, 500 1003.500 C 497.013 1006.525, 494.196 1009, 493.741 1009 C 493.285 1009, 491.142 1010.638, 488.978 1012.641 C 486.813 1014.643, 484.020 1016.970, 482.771 1017.811 C 481.522 1018.652, 478.231 1021.401, 475.459 1023.920 C 468.705 1030.056, 457.163 1039.401, 455.711 1039.910 C 455.068 1040.135, 452.558 1042.160, 450.134 1044.410 C 443.955 1050.142, 444.054 1050.056, 438.500 1054.597 C 435.750 1056.845, 432.750 1059.093, 431.833 1059.592 C 430.916 1060.092, 427.879 1062.668, 425.083 1065.318 C 422.287 1067.968, 420 1069.858, 420 1069.518 C 420 1069.177, 418.538 1070.299, 416.750 1072.010 C 414.962 1073.722, 408.325 1079.306, 402 1084.420 C 395.675 1089.535, 389.643 1094.682, 388.595 1095.859 C 387.547 1097.037, 386.264 1098, 385.744 1098 C 385.223 1098, 382.567 1100.138, 379.841 1102.750 C 377.115 1105.362, 374.689 1107.391, 374.450 1107.258 C 374.210 1107.124, 371.268 1109.599, 367.911 1112.758 C 364.554 1115.916, 361.063 1118.920, 360.154 1119.433 C 359.244 1119.946, 356.301 1122.100, 353.613 1124.220 C 349.100 1127.780, 345.571 1130.746, 333.056 1141.500 C 328.591 1145.337, 323.062 1150.011, 314.524 1157.167 C 312.337 1159, 309.552 1161.465, 308.335 1162.644 C 307.117 1163.823, 305.930 1164.597, 305.696 1164.363 C 305.462 1164.129, 302.322 1166.539, 298.719 1169.719 C 295.115 1172.898, 289.127 1177.975, 285.412 1181 C 281.696 1184.025, 276.934 1188.206, 274.828 1190.292 C 272.723 1192.378, 270.993 1193.728, 270.985 1193.292 C 270.976 1192.856, 270.639 1192.974, 270.235 1193.553 C 269.566 1194.511, 237.941 1220.757, 225.618 1230.579 C 222.803 1232.823, 219.882 1235.411, 219.128 1236.329 C 218.373 1237.248, 217.298 1238, 216.739 1238 C 216.181 1238, 213.822 1239.688, 211.498 1241.750 C 209.174 1243.813, 204.263 1247.975, 200.585 1251 C 196.907 1254.025, 191.076 1258.975, 187.626 1262 C 184.177 1265.025, 177.397 1270.650, 172.561 1274.500 C 167.724 1278.350, 162.695 1282.533, 161.384 1283.795 C 160.073 1285.058, 159 1285.845, 159 1285.545 C 159 1285.245, 158.160 1285.787, 157.134 1286.750 C 155.100 1288.658, 146.986 1295.629, 143 1298.893 C 141.625 1300.019, 138.925 1302.309, 137 1303.981 C 125.966 1313.569, 124.191 1315, 123.334 1315 C 122.816 1315, 120.866 1316.575, 119 1318.500 C 117.134 1320.425, 115.044 1322, 114.355 1322 C 113.666 1322, 111.978 1323.463, 110.605 1325.250 C 108.323 1328.220, 105.995 1330.197, 93.632 1339.664 C 91.360 1341.405, 87.925 1344.215, 86 1345.910 C 78.908 1352.153, 72.237 1357.716, 68.419 1360.570 C 66.264 1362.181, 63.680 1364.513, 62.677 1365.750 C 61.675 1366.987, 60.402 1368, 59.849 1368 C 59.296 1368, 55.569 1370.942, 51.567 1374.538 C 38.563 1386.223, 43.036 1388.643, 66.500 1382.619 C 82.653 1378.473, 98.983 1374.956, 106.551 1373.995 C 110.430 1373.502, 116.955 1372.450, 121.051 1371.656 C 128.365 1370.239, 136.597 1369.090, 154.500 1366.987 C 159.450 1366.406, 167.325 1365.476, 172 1364.921 C 240.223 1356.819, 363.259 1357.098, 447.500 1365.547 C 481.095 1368.916, 490.405 1369.931, 497.500 1371.001 C 500.800 1371.498, 507.100 1372.359, 511.500 1372.914 C 515.900 1373.469, 523.550 1374.435, 528.500 1375.061 C 533.450 1375.688, 539.525 1376.558, 542 1376.995 C 544.475 1377.432, 550.325 1378.336, 555 1379.004 C 559.675 1379.672, 570.025 1381.488, 578 1383.040 C 585.975 1384.592, 594.975 1386.161, 598 1386.527 C 601.025 1386.893, 606.650 1387.999, 610.500 1388.985 C 616.812 1390.602, 620.123 1391.291, 628 1392.628 C 629.375 1392.862, 635.086 1394.183, 640.691 1395.564 C 646.296 1396.946, 652.596 1398.296, 654.691 1398.564 C 656.786 1398.832, 659.850 1399.462, 661.500 1399.964 C 668.850 1402.200, 679.990 1405.007, 680.710 1404.805 C 681.144 1404.683, 685.325 1405.763, 690 1407.205 C 694.675 1408.647, 700.704 1410.128, 703.397 1410.497 C 708.105 1411.141, 709.020 1411.432, 713.538 1413.720 C 714.660 1414.288, 717.585 1415.061, 720.038 1415.439 C 724.137 1416.069, 734.285 1419.087, 749.500 1424.202 C 752.800 1425.311, 757.750 1426.796, 760.500 1427.502 C 763.250 1428.209, 767.975 1429.678, 771 1430.768 C 774.025 1431.858, 778.300 1433.294, 780.500 1433.959 C 782.700 1434.624, 786.408 1436.030, 788.739 1437.084 C 791.071 1438.138, 793.771 1439.003, 794.739 1439.006 C 795.708 1439.010, 797.799 1439.690, 799.388 1440.518 C 800.976 1441.346, 804.753 1442.745, 807.782 1443.625 C 810.811 1444.506, 815.587 1446.296, 818.395 1447.603 C 821.203 1448.911, 824.513 1449.985, 825.750 1449.990 C 826.987 1449.996, 828 1450.398, 828 1450.883 C 828 1451.369, 829.013 1452.007, 830.250 1452.301 C 833.489 1453.071, 840.857 1455.834, 845.500 1458.021 C 850.021 1460.150, 861.980 1465.008, 863.500 1465.333 C 864.050 1465.450, 866.694 1466.773, 869.376 1468.273 C 872.058 1469.773, 874.664 1471, 875.168 1471 C 875.671 1471, 879.006 1472.366, 882.578 1474.037 C 886.150 1475.707, 889.448 1476.841, 889.906 1476.558 C 890.364 1476.275, 892.035 1477.161, 893.620 1478.528 C 895.204 1479.894, 897.400 1481.271, 898.500 1481.589 C 899.600 1481.906, 902.975 1483.336, 906 1484.766 C 909.025 1486.197, 913.075 1488.072, 915 1488.934 C 916.925 1489.795, 918.650 1490.838, 918.833 1491.250 C 919.017 1491.662, 919.743 1492, 920.448 1492 C 921.153 1492, 922.874 1492.900, 924.273 1494 C 925.671 1495.100, 927.419 1496.012, 928.158 1496.026 C 928.896 1496.040, 931.954 1497.615, 934.954 1499.526 C 943.873 1505.208, 952.791 1503.665, 946.952 1497.449 C 945.687 1496.102, 944.138 1495, 943.511 1495 C 942.884 1495, 939.164 1492.300, 935.243 1489 C 931.323 1485.700, 927.752 1482.998, 927.308 1482.995 C 926.863 1482.993, 925.062 1481.643, 923.304 1479.995 C 921.547 1478.348, 919.704 1477, 919.209 1477 C 918.715 1477, 917.495 1476.100, 916.500 1475 C 915.505 1473.900, 914.152 1473, 913.495 1473 C 912.838 1473, 910.320 1471.549, 907.900 1469.775 C 905.480 1468.001, 903.205 1466.538, 902.845 1466.525 C 902.485 1466.511, 900.883 1465.375, 899.285 1464 C 897.687 1462.625, 895.884 1461.401, 895.277 1461.279 C 894.671 1461.158, 892.497 1459.920, 890.448 1458.529 C 888.398 1457.138, 886.264 1456, 885.705 1456 C 885.146 1456, 883.214 1454.875, 881.411 1453.500 C 879.608 1452.125, 877.808 1451, 877.411 1451 C 877.014 1451, 875.296 1449.944, 873.594 1448.654 C 871.892 1447.364, 868.700 1445.484, 866.500 1444.477 C 864.300 1443.469, 861.263 1441.794, 859.750 1440.754 C 858.237 1439.715, 857 1439.150, 857 1439.500 C 857 1439.850, 855.763 1439.255, 854.250 1438.179 C 852.737 1437.102, 847.675 1434.320, 843 1431.997 C 838.325 1429.674, 833.375 1427.122, 832 1426.327 C 829.412 1424.831, 821.821 1421.258, 814 1417.855 C 811.525 1416.778, 807.864 1415.020, 805.864 1413.948 C 803.864 1412.877, 801.700 1412, 801.054 1412 C 800.409 1412, 795.971 1410.147, 791.191 1407.882 C 786.411 1405.616, 781.600 1403.414, 780.500 1402.988 C 779.400 1402.561, 774.900 1400.766, 770.500 1399 C 761.555 1395.408, 748.812 1390.627, 742 1388.306 C 739.525 1387.462, 733.900 1385.424, 729.500 1383.776 C 725.100 1382.128, 720.468 1380.592, 719.207 1380.362 C 717.946 1380.133, 713.552 1378.610, 709.443 1376.977 C 705.334 1375.345, 701.641 1374.092, 701.236 1374.193 C 700.831 1374.294, 696.107 1372.942, 690.738 1371.188 C 685.369 1369.435, 680.194 1368, 679.238 1367.999 C 678.282 1367.999, 675.133 1367.099, 672.239 1365.999 C 669.346 1364.900, 665.948 1364, 664.689 1364 C 663.430 1364, 661.934 1363.534, 661.364 1362.964 C 660.794 1362.394, 658.487 1361.706, 656.237 1361.435 C 653.987 1361.164, 648.176 1359.611, 643.323 1357.983 C 638.470 1356.356, 633.375 1355.010, 632 1354.993 C 629.506 1354.963, 611.707 1350.555, 610.122 1349.576 C 609.663 1349.292, 607.310 1348.822, 604.894 1348.532 C 602.477 1348.242, 595.100 1346.697, 588.500 1345.099 C 581.900 1343.500, 573.800 1341.634, 570.500 1340.950 C 567.200 1340.267, 561.350 1338.889, 557.500 1337.890 C 553.650 1336.890, 546.900 1335.592, 542.500 1335.006 C 538.100 1334.419, 532.475 1333.563, 530 1333.102 C 518.772 1331.012, 499.506 1327.915, 489 1326.510 C 482.675 1325.665, 470.975 1324.098, 463 1323.029 C 455.025 1321.959, 438.600 1320.143, 426.500 1318.992 C 414.400 1317.842, 400.675 1316.474, 396 1315.953 C 361.372 1312.092, 248.510 1312.506, 223.152 1316.587 C 218.894 1317.272, 218.832 1317.242, 220.142 1315.143 C 220.879 1313.965, 221.935 1312.990, 222.491 1312.977 C 223.046 1312.964, 225.141 1311.502, 227.147 1309.727 C 229.153 1307.952, 233.130 1304.700, 235.984 1302.500 C 250.670 1291.180, 262.697 1281.329, 264.323 1279.288 C 265.325 1278.030, 266.694 1277, 267.364 1277 C 268.035 1277, 270.571 1274.975, 273 1272.500 C 275.429 1270.025, 277.909 1268, 278.512 1268 C 279.115 1268, 281.128 1266.432, 282.985 1264.515 C 284.843 1262.598, 286.577 1261.244, 286.838 1261.505 C 287.100 1261.766, 289.420 1260.072, 291.995 1257.740 C 294.570 1255.408, 299.560 1251.250, 303.084 1248.500 C 306.608 1245.750, 311.406 1241.755, 313.746 1239.623 C 316.086 1237.490, 318 1236.023, 318 1236.363 C 318 1236.988, 319.896 1235.541, 325.024 1231 C 326.577 1229.625, 331.092 1226.025, 335.058 1223 C 339.024 1219.975, 345.784 1214.491, 350.082 1210.814 C 354.379 1207.137, 360.281 1202.586, 363.198 1200.700 C 366.114 1198.814, 369.591 1196.086, 370.924 1194.636 C 372.258 1193.186, 373.789 1192, 374.328 1192 C 374.866 1192, 377.618 1189.862, 380.442 1187.250 C 383.267 1184.638, 389.557 1179.350, 394.420 1175.500 C 399.283 1171.650, 404.936 1167.046, 406.982 1165.268 C 409.028 1163.490, 410.995 1162.328, 411.351 1162.685 C 411.708 1163.041, 412 1162.557, 412 1161.608 C 412 1160.659, 412.381 1160.118, 412.847 1160.405 C 413.313 1160.693, 415 1159.544, 416.597 1157.851 C 418.194 1156.158, 421.300 1153.630, 423.500 1152.232 C 425.700 1150.834, 430.250 1147.285, 433.611 1144.345 C 436.972 1141.405, 440.124 1139, 440.615 1139 C 441.107 1139, 443.757 1136.730, 446.504 1133.955 C 450.917 1129.498, 455.725 1125.678, 460.921 1122.500 C 461.820 1121.950, 466.526 1118.125, 471.377 1114 C 476.229 1109.875, 481.104 1105.983, 482.212 1105.352 C 483.319 1104.720, 486.312 1102.194, 488.862 1099.738 C 491.413 1097.282, 495.975 1093.461, 499 1091.247 C 502.025 1089.034, 506.051 1085.598, 507.946 1083.611 C 509.842 1081.625, 511.909 1080, 512.541 1080 C 513.173 1080, 514.505 1079.100, 515.500 1078 C 516.495 1076.900, 517.820 1076, 518.443 1076 C 519.066 1076, 521.781 1073.760, 524.477 1071.023 C 527.173 1068.286, 529.554 1066.221, 529.768 1066.435 C 529.982 1066.649, 532.484 1064.622, 535.329 1061.932 C 538.173 1059.241, 540.950 1057.026, 541.500 1057.011 C 542.050 1056.995, 544.157 1055.412, 546.183 1053.491 C 548.209 1051.571, 550.187 1050, 550.580 1050 C 550.972 1050, 553.416 1048.088, 556.011 1045.750 C 562.844 1039.595, 568.728 1035, 569.778 1035 C 570.280 1035, 571.547 1034.053, 572.595 1032.895 C 573.642 1031.738, 580.286 1026.225, 587.358 1020.645 C 594.430 1015.065, 603.880 1007.433, 608.358 1003.685 C 612.836 999.937, 617.175 996.612, 618 996.295 C 618.825 995.979, 621.823 993.475, 624.662 990.731 C 627.501 987.987, 631.404 984.788, 633.334 983.621 C 638.449 980.530, 650.728 970.860, 656.500 965.376 C 659.250 962.764, 661.725 960.560, 662 960.479 C 664.628 959.707, 667.826 957.914, 668.914 956.604 C 671.069 954.007, 683.448 955.040, 710.500 960.073 C 713.800 960.687, 718.525 961.403, 721 961.664 C 726.997 962.296, 745.084 967.465, 752.229 970.589 C 757.833 973.039, 762 972.801, 762 970.032 C 762 969.539, 762.788 968.879, 763.750 968.566 C 764.712 968.253, 767.241 966.343, 769.370 964.322 C 771.498 962.301, 774.873 959.549, 776.870 958.207 C 781.666 954.981, 790.356 948.214, 794.322 944.617 C 796.070 943.031, 798.962 941.112, 800.750 940.353 C 805.636 938.278, 793.081 929, 785.387 929 C 784.609 929, 783.191 928.559, 782.236 928.020 C 778.803 926.083, 752.287 917.876, 743.500 916.030 C 740.200 915.337, 736.150 914.424, 734.500 914 C 732.850 913.576, 728.800 912.694, 725.500 912.040 C 722.200 911.386, 717.925 910.455, 716 909.972 C 712.160 909.008, 697.968 907.169, 694 907.121 C 692.625 907.105, 684.975 906.411, 677 905.579 C 629.756 900.649, 624.099 900.657, 618.500 905.653 M 1745.917 902.403 C 1745.688 902.625, 1737.850 903.331, 1728.500 903.971 C 1719.150 904.611, 1709.925 905.519, 1708 905.990 C 1706.075 906.460, 1700.225 907.112, 1695 907.438 C 1675.862 908.632, 1648.217 914.329, 1623 922.273 C 1606.157 927.580, 1595.523 931.269, 1594.550 932.145 C 1594.027 932.615, 1592.875 933, 1591.989 933 C 1591.102 933, 1589.461 933.854, 1588.340 934.897 C 1587.220 935.941, 1585.448 936.961, 1584.402 937.163 C 1582.967 937.441, 1583.606 938.107, 1587 939.873 C 1589.475 941.161, 1594.200 944.553, 1597.500 947.412 C 1600.800 950.271, 1605.075 953.677, 1607 954.981 C 1610.580 957.406, 1616.492 962.625, 1623.095 969.191 L 1626.807 972.881 1632.153 970.804 C 1655.441 961.754, 1714.321 952.065, 1718.128 956.655 C 1718.882 957.565, 1720.963 958.921, 1722.750 959.668 C 1724.537 960.416, 1726 961.423, 1726 961.907 C 1726 962.390, 1730.357 966.547, 1735.682 971.143 C 1741.007 975.739, 1747.466 981.413, 1750.036 983.750 C 1752.605 986.087, 1755.031 988, 1755.428 988 C 1756.346 988, 1774.541 1003.126, 1784.296 1012 C 1787.017 1014.475, 1789.833 1016.725, 1790.554 1017 C 1791.275 1017.275, 1795.910 1021.212, 1800.854 1025.750 C 1805.798 1030.287, 1810.162 1034, 1810.552 1034 C 1810.942 1034, 1814.690 1036.937, 1818.881 1040.526 C 1823.071 1044.115, 1826.950 1047.386, 1827.500 1047.794 C 1829.938 1049.603, 1846.615 1064.422, 1847.659 1065.707 C 1848.296 1066.491, 1849.022 1066.991, 1849.272 1066.817 C 1849.522 1066.642, 1852.205 1068.750, 1855.235 1071.500 C 1862.724 1078.297, 1865 1080.108, 1865 1079.272 C 1865 1078.882, 1867.588 1081.058, 1870.750 1084.107 C 1873.912 1087.157, 1877.625 1090.354, 1879 1091.211 C 1881.078 1092.506, 1888.096 1098.556, 1899.500 1108.881 C 1905.374 1114.199, 1933.540 1137.744, 1935.766 1139.197 C 1937.196 1140.130, 1940.402 1142.830, 1942.891 1145.197 C 1945.380 1147.564, 1948.716 1150.480, 1950.305 1151.678 C 1951.894 1152.876, 1955.175 1155.714, 1957.597 1157.983 C 1960.019 1160.253, 1962 1161.792, 1962 1161.403 C 1962 1160.796, 1967.262 1165.314, 1977 1174.283 C 1978.375 1175.549, 1982.200 1178.654, 1985.500 1181.182 C 1988.800 1183.710, 1992.591 1186.953, 1993.924 1188.389 C 1995.258 1189.825, 1996.878 1191, 1997.525 1191 C 1998.172 1191, 2000.990 1193.362, 2003.787 1196.250 C 2009.409 1202.052, 2016.339 1208, 2017.477 1208 C 2017.881 1208, 2022.379 1211.825, 2027.472 1216.500 C 2032.565 1221.175, 2037.158 1225, 2037.679 1225 C 2038.200 1225, 2039.948 1226.390, 2041.563 1228.089 C 2043.178 1229.788, 2046.372 1232.282, 2048.659 1233.631 C 2050.946 1234.980, 2053.057 1236.705, 2053.348 1237.465 C 2053.640 1238.225, 2056.493 1240.775, 2059.689 1243.131 C 2062.885 1245.488, 2068.650 1250.276, 2072.500 1253.772 C 2083.170 1263.462, 2089.011 1268.537, 2094.500 1272.886 C 2097.250 1275.065, 2100.850 1278.109, 2102.500 1279.649 C 2104.150 1281.190, 2108.200 1284.586, 2111.500 1287.197 C 2118.107 1292.423, 2122.249 1296.021, 2132 1305.004 C 2135.575 1308.298, 2139.683 1311.530, 2141.128 1312.186 C 2146.079 1314.435, 2146.881 1317.394, 2142.348 1316.684 C 2136.733 1315.804, 2116.835 1313.975, 2114.500 1314.124 C 2113.400 1314.194, 2099.450 1313.923, 2083.500 1313.522 C 2066.624 1313.097, 2038.404 1313.254, 2016 1313.899 C 1979.871 1314.938, 1967.021 1315.796, 1932.500 1319.475 C 1924.800 1320.296, 1915.125 1321.197, 1911 1321.477 C 1906.875 1321.758, 1901.250 1322.403, 1898.500 1322.910 C 1895.750 1323.418, 1889.900 1324.344, 1885.500 1324.968 C 1881.100 1325.592, 1875.025 1326.510, 1872 1327.008 C 1868.975 1327.505, 1863.983 1328.153, 1860.906 1328.447 C 1857.829 1328.741, 1850.854 1329.844, 1845.406 1330.899 C 1835.521 1332.814, 1828.288 1334.054, 1816 1335.941 C 1812.425 1336.490, 1805.675 1337.846, 1801 1338.954 C 1796.325 1340.062, 1789.575 1341.447, 1786 1342.031 C 1782.425 1342.615, 1774.775 1344.249, 1769 1345.661 C 1763.225 1347.074, 1757.375 1348.352, 1756 1348.501 C 1754.625 1348.650, 1747.650 1350.210, 1740.500 1351.967 C 1733.350 1353.724, 1725.250 1355.633, 1722.500 1356.210 C 1719.750 1356.786, 1717.050 1357.569, 1716.500 1357.949 C 1715.352 1358.742, 1710.502 1360.134, 1700.500 1362.542 C 1696.650 1363.468, 1690.800 1365.059, 1687.500 1366.076 C 1668.299 1371.993, 1660.333 1374.358, 1659 1374.538 C 1658.175 1374.649, 1653.787 1376.137, 1649.250 1377.845 C 1644.713 1379.553, 1641 1380.743, 1641 1380.489 C 1641 1380.236, 1638.638 1380.968, 1635.750 1382.116 C 1632.862 1383.264, 1628.250 1384.888, 1625.500 1385.726 C 1622.750 1386.564, 1617.350 1388.471, 1613.500 1389.964 C 1609.650 1391.456, 1604.475 1393.292, 1602 1394.042 C 1599.525 1394.793, 1596.024 1396.216, 1594.220 1397.204 C 1592.415 1398.192, 1590.165 1399.010, 1589.220 1399.022 C 1588.274 1399.035, 1584.800 1400.375, 1581.500 1402 C 1578.200 1403.625, 1575.107 1404.965, 1574.626 1404.978 C 1573.674 1405.002, 1559.926 1410.880, 1553.500 1414.011 C 1551.300 1415.082, 1547.482 1416.661, 1545.016 1417.518 C 1542.550 1418.375, 1539.400 1419.829, 1538.016 1420.749 C 1536.632 1421.669, 1534.957 1422.509, 1534.293 1422.616 C 1533.201 1422.792, 1531.796 1423.437, 1525.500 1426.654 C 1519.273 1429.836, 1511.995 1433.194, 1511.300 1433.206 C 1510.860 1433.214, 1509.306 1434.070, 1507.846 1435.110 C 1506.386 1436.149, 1504.753 1437, 1504.218 1437 C 1503.683 1437, 1502.689 1437.670, 1502.009 1438.489 C 1501.329 1439.308, 1500.428 1439.764, 1500.005 1439.503 C 1499.583 1439.242, 1497.593 1440.144, 1495.584 1441.508 C 1493.574 1442.871, 1490.259 1444.815, 1488.215 1445.826 C 1482.683 1448.566, 1474.705 1453.095, 1473 1454.464 C 1472.175 1455.127, 1469.475 1456.715, 1467 1457.993 C 1464.525 1459.271, 1461.369 1460.900, 1459.987 1461.613 C 1458.604 1462.327, 1456.579 1463.743, 1455.487 1464.761 C 1454.394 1465.779, 1453.050 1466.753, 1452.500 1466.926 C 1449.037 1468.012, 1447.248 1468.996, 1446 1470.500 C 1445.220 1471.440, 1443.664 1472.621, 1442.541 1473.124 C 1431.967 1477.869, 1414.400 1491.870, 1413.839 1496 C 1413.093 1501.500, 1421.919 1498.606, 1449.147 1484.421 C 1451.703 1483.089, 1454.481 1482, 1455.321 1482 C 1456.160 1482, 1458.221 1480.844, 1459.901 1479.430 C 1461.581 1478.017, 1464.365 1476.682, 1466.088 1476.464 C 1467.811 1476.245, 1470.850 1475.106, 1472.840 1473.932 C 1474.830 1472.758, 1477.215 1471.651, 1478.140 1471.473 C 1479.064 1471.295, 1482.224 1470.039, 1485.160 1468.681 C 1493.893 1464.645, 1502.685 1461, 1503.687 1461 C 1504.203 1461, 1506.502 1460.093, 1508.797 1458.984 C 1511.092 1457.875, 1516.239 1455.803, 1520.235 1454.379 C 1524.231 1452.954, 1527.927 1451.387, 1528.450 1450.895 C 1528.972 1450.403, 1530.359 1450, 1531.531 1450 C 1532.702 1450, 1535.875 1448.866, 1538.581 1447.479 C 1541.286 1446.093, 1544.923 1444.722, 1546.662 1444.432 C 1548.400 1444.142, 1552.111 1442.801, 1554.907 1441.452 C 1557.703 1440.104, 1560.780 1439.002, 1561.745 1439.005 C 1562.710 1439.008, 1566.875 1437.723, 1571 1436.149 C 1575.125 1434.574, 1582.550 1432.068, 1587.500 1430.578 C 1592.450 1429.088, 1600.550 1426.602, 1605.500 1425.053 C 1610.450 1423.504, 1617.875 1421.248, 1622 1420.039 C 1626.125 1418.831, 1630.534 1417.427, 1631.797 1416.921 C 1633.060 1416.414, 1634.957 1416, 1636.012 1416 C 1638.084 1416, 1646.227 1413.527, 1649.543 1411.891 C 1650.667 1411.337, 1654.042 1410.498, 1657.043 1410.028 C 1660.044 1409.557, 1665.875 1408.213, 1670 1407.043 C 1674.125 1405.872, 1678.625 1404.737, 1680 1404.521 C 1681.375 1404.305, 1685.200 1403.414, 1688.500 1402.542 C 1699.885 1399.531, 1701.520 1399.142, 1707 1398.136 C 1710.025 1397.581, 1714.300 1396.671, 1716.500 1396.112 C 1720.828 1395.015, 1728.987 1393.228, 1733 1392.500 C 1734.375 1392.250, 1737.525 1391.633, 1740 1391.128 C 1758.881 1387.274, 1766.591 1385.791, 1781.500 1383.145 C 1810.866 1377.935, 1828.138 1375.343, 1849 1373.013 C 1854.775 1372.368, 1862.200 1371.449, 1865.500 1370.971 C 1882.042 1368.576, 1888.046 1367.856, 1894 1367.552 C 1897.575 1367.370, 1909.725 1366.301, 1921 1365.176 C 1981.347 1359.157, 2055.676 1357.480, 2128 1360.505 C 2160.285 1361.856, 2170.305 1362.578, 2189 1364.904 C 2193.125 1365.417, 2201.225 1366.337, 2207 1366.948 C 2225.089 1368.863, 2256.419 1373.880, 2270.500 1377.117 C 2272.700 1377.623, 2277.875 1378.687, 2282 1379.482 C 2286.125 1380.276, 2292.650 1381.871, 2296.500 1383.024 C 2306 1385.871, 2312.934 1387.239, 2314.609 1386.597 C 2318.380 1385.149, 2313.995 1376.260, 2308.329 1373.866 C 2307.853 1373.665, 2306.489 1372.239, 2305.297 1370.698 C 2304.106 1369.158, 2302.989 1367.994, 2302.816 1368.113 C 2302.051 1368.637, 2298 1365.395, 2298 1364.259 C 2298 1363.567, 2297.607 1363, 2297.126 1363 C 2296.183 1363, 2286.354 1354.617, 2278.879 1347.438 C 2276.337 1344.997, 2273.790 1343, 2273.218 1343 C 2272.646 1343, 2270.955 1341.537, 2269.460 1339.750 C 2267.966 1337.963, 2266.155 1336.275, 2265.438 1336 C 2264.720 1335.725, 2261.004 1332.463, 2257.179 1328.750 C 2253.354 1325.037, 2249.777 1322, 2249.231 1322 C 2248.684 1322, 2247.036 1320.425, 2245.568 1318.500 C 2244.100 1316.575, 2242.293 1315, 2241.553 1315 C 2240.813 1315, 2238.824 1313.425, 2237.134 1311.500 C 2235.444 1309.575, 2233.655 1308, 2233.158 1308 C 2232.661 1308, 2230.909 1306.425, 2229.265 1304.500 C 2227.621 1302.575, 2225.857 1301, 2225.346 1301 C 2224.835 1301, 2222.832 1299.537, 2220.894 1297.750 C 2218.957 1295.963, 2213.588 1291.125, 2208.962 1287 C 2204.337 1282.875, 2199.347 1278.375, 2197.874 1277 C 2192.813 1272.277, 2190.171 1270.163, 2189.797 1270.537 C 2189.591 1270.743, 2186.319 1267.781, 2182.527 1263.956 C 2178.735 1260.130, 2175.217 1257, 2174.709 1257 C 2174.201 1257, 2171.358 1254.454, 2168.393 1251.343 C 2165.427 1248.231, 2163 1246.024, 2163 1246.438 C 2163 1247.127, 2146.476 1232.916, 2139.584 1226.299 C 2137.980 1224.760, 2135.402 1222.562, 2133.853 1221.415 C 2132.305 1220.268, 2128.656 1217.113, 2125.744 1214.403 C 2122.833 1211.693, 2116.636 1206.285, 2111.975 1202.385 C 2107.314 1198.486, 2101.956 1193.847, 2100.070 1192.078 C 2098.183 1190.309, 2095.798 1188.271, 2094.768 1187.550 C 2093.739 1186.829, 2090.557 1184.027, 2087.698 1181.324 C 2084.839 1178.620, 2079.575 1174.002, 2076 1171.061 C 2072.425 1168.121, 2069.169 1165.216, 2068.765 1164.607 C 2068.361 1163.998, 2068.024 1163.840, 2068.015 1164.257 C 2068.007 1164.673, 2065.339 1162.310, 2062.086 1159.007 C 2058.833 1155.703, 2055.777 1153, 2055.294 1153 C 2054.811 1153, 2052.429 1150.975, 2050 1148.500 C 2047.571 1146.025, 2045.208 1144, 2044.749 1144 C 2044.289 1144, 2041.288 1141.300, 2038.079 1138 C 2034.870 1134.700, 2031.762 1132, 2031.172 1132 C 2030.582 1132, 2029.740 1131.437, 2029.300 1130.748 C 2028.860 1130.059, 2024.675 1126.276, 2020 1122.342 C 2015.325 1118.407, 2008.079 1112.108, 2003.897 1108.344 C 1999.716 1104.580, 1995.216 1100.643, 1993.897 1099.596 C 1991.148 1097.413, 1979.060 1086.727, 1974.121 1082.113 C 1972.288 1080.401, 1970.605 1079, 1970.380 1079 C 1970.156 1079, 1968.741 1077.658, 1967.236 1076.017 C 1965.731 1074.377, 1963.073 1072.015, 1961.328 1070.767 C 1956.465 1067.291, 1941.360 1054.281, 1933.444 1046.750 C 1929.542 1043.037, 1925.985 1040, 1925.540 1040 C 1925.095 1040, 1920.442 1036.063, 1915.199 1031.250 C 1909.957 1026.438, 1905.301 1022.500, 1904.853 1022.500 C 1904.404 1022.500, 1901.217 1019.516, 1897.769 1015.868 C 1894.321 1012.221, 1890.775 1008.846, 1889.888 1008.368 C 1889.002 1007.891, 1884.586 1004.125, 1880.075 1000 C 1875.564 995.875, 1870.661 991.981, 1869.178 991.346 C 1867.696 990.711, 1865.630 989.248, 1864.587 988.096 C 1863.543 986.943, 1862.163 986, 1861.519 986 C 1860.875 986, 1859.292 984.875, 1858 983.500 C 1856.708 982.125, 1856.025 981, 1856.481 981 C 1856.937 981, 1856.495 980.100, 1855.500 979 C 1854.505 977.900, 1853.155 977, 1852.500 977 C 1851.845 977, 1850.495 976.100, 1849.500 975 C 1848.505 973.900, 1848.055 973, 1848.500 973 C 1848.945 973, 1848.495 972.100, 1847.500 971 C 1846.505 969.900, 1845.261 969, 1844.738 969 C 1844.214 969, 1838.096 964.003, 1831.143 957.895 C 1811.545 940.680, 1811.057 940.276, 1810.512 940.821 C 1810.231 941.103, 1810 940.583, 1810 939.667 C 1810 938.750, 1809.640 938.112, 1809.201 938.250 C 1808.762 938.387, 1803.345 933.775, 1797.163 928 C 1790.982 922.225, 1785.379 917.333, 1784.712 917.129 C 1784.045 916.925, 1781.925 915.274, 1780 913.460 C 1778.075 911.646, 1774.037 908.325, 1771.027 906.081 L 1765.554 902 1755.944 902 C 1750.658 902, 1746.146 902.182, 1745.917 902.403 M 450.199 1402.597 C 448.715 1403.242, 445.721 1405.622, 443.547 1407.885 C 441.373 1410.148, 439.043 1412, 438.370 1412 C 437.696 1412, 436.172 1413.237, 434.982 1414.750 C 433.792 1416.263, 432.416 1417.500, 431.923 1417.500 C 431.430 1417.500, 429.783 1418.764, 428.263 1420.310 C 426.744 1421.855, 421.900 1426.061, 417.500 1429.656 C 413.100 1433.251, 409.050 1436.722, 408.500 1437.369 C 407.628 1438.393, 397.323 1447.439, 388.429 1454.986 C 386.818 1456.353, 382.721 1459.841, 379.324 1462.736 C 375.927 1465.631, 372.697 1468, 372.147 1468 C 371.597 1468, 371.001 1468.598, 370.823 1469.330 C 370.492 1470.694, 362.126 1478.318, 358.017 1481 C 356.753 1481.825, 354.095 1483.967, 352.110 1485.761 C 350.124 1487.554, 345.012 1492.019, 340.750 1495.684 C 333.890 1501.581, 333 1502.740, 333 1505.770 L 333 1509.193 337.750 1508.713 C 343.742 1508.108, 349.786 1506.514, 353.565 1504.542 C 355.179 1503.700, 358.075 1502.741, 360 1502.412 C 361.925 1502.083, 365.881 1500.955, 368.792 1499.905 C 371.702 1498.856, 376.877 1497.365, 380.292 1496.592 C 383.706 1495.820, 389.200 1494.489, 392.500 1493.636 C 403.344 1490.830, 418.346 1487.736, 427.500 1486.415 C 432.450 1485.702, 438.750 1484.655, 441.500 1484.089 C 447.319 1482.893, 466.596 1480.283, 479.404 1478.958 C 484.301 1478.452, 489.026 1477.830, 489.904 1477.578 C 490.782 1477.325, 496.900 1476.846, 503.500 1476.512 C 510.100 1476.178, 523.600 1475.160, 533.500 1474.249 C 559.448 1471.861, 634.280 1471.872, 664 1474.268 C 675.825 1475.222, 692.025 1476.467, 700 1477.035 C 707.975 1477.602, 718.100 1478.457, 722.500 1478.934 C 742.705 1481.122, 751.179 1482.178, 760 1483.609 C 765.225 1484.456, 773.325 1485.596, 778 1486.143 C 782.675 1486.689, 790.475 1488.037, 795.333 1489.138 C 800.191 1490.239, 807.166 1491.504, 810.833 1491.949 C 814.500 1492.395, 820.875 1493.703, 825 1494.856 C 839.886 1499.018, 848.287 1495, 837 1489.117 C 834.800 1487.970, 833 1487.287, 833 1487.598 C 833 1487.909, 831.537 1487.282, 829.750 1486.206 C 827.962 1485.130, 822.450 1482.587, 817.500 1480.556 C 812.550 1478.524, 806.025 1475.793, 803 1474.485 C 799.975 1473.177, 795.700 1471.572, 793.500 1470.918 C 791.300 1470.264, 787.813 1468.881, 785.750 1467.844 C 783.688 1466.808, 782 1466.188, 782 1466.467 C 782 1466.746, 779.574 1465.902, 776.610 1464.591 C 773.645 1463.280, 769.708 1461.881, 767.860 1461.483 C 766.012 1461.085, 761.800 1459.751, 758.500 1458.518 C 755.200 1457.285, 748 1454.856, 742.500 1453.120 C 737 1451.385, 728.955 1448.848, 724.622 1447.482 C 720.290 1446.117, 716.074 1445, 715.254 1445 C 713.621 1445, 701.786 1441.326, 698.349 1439.753 C 697.165 1439.211, 695.590 1438.976, 694.849 1439.230 C 694.107 1439.485, 691.025 1438.825, 688 1437.764 C 684.975 1436.703, 678.675 1434.983, 674 1433.942 C 669.325 1432.901, 661.675 1431.143, 657 1430.036 C 638.630 1425.686, 622.222 1422.062, 616.500 1421.091 C 613.200 1420.531, 607.350 1419.375, 603.500 1418.523 C 599.650 1417.670, 594.475 1416.733, 592 1416.441 C 589.525 1416.148, 583 1415.012, 577.500 1413.915 C 572 1412.819, 563.450 1411.487, 558.500 1410.956 C 553.550 1410.425, 547.025 1409.539, 544 1408.986 C 531.824 1406.761, 524.936 1405.881, 513 1405.023 C 506.125 1404.529, 495.775 1403.665, 490 1403.102 C 473.581 1401.501, 453.312 1401.243, 450.199 1402.597 M 1887 1402 C 1864.375 1402.932, 1844.878 1404.709, 1824.500 1407.694 C 1814.600 1409.145, 1803.125 1410.673, 1799 1411.090 C 1794.875 1411.507, 1786.550 1412.754, 1780.500 1413.861 C 1774.450 1414.968, 1765.225 1416.609, 1760 1417.507 C 1754.775 1418.405, 1747.575 1419.771, 1744 1420.543 C 1740.425 1421.314, 1733.900 1422.684, 1729.500 1423.587 C 1725.100 1424.491, 1719.700 1425.644, 1717.500 1426.150 C 1715.300 1426.656, 1710.037 1427.726, 1705.804 1428.528 C 1701.572 1429.330, 1696.172 1430.635, 1693.804 1431.427 C 1691.437 1432.219, 1687.475 1433.148, 1685 1433.490 C 1682.525 1433.832, 1678.025 1434.960, 1675 1435.997 C 1671.975 1437.033, 1667.700 1438.172, 1665.500 1438.527 C 1663.300 1438.882, 1657.225 1440.446, 1652 1442.004 C 1646.775 1443.561, 1639.575 1445.572, 1636 1446.473 C 1632.425 1447.373, 1628.375 1448.541, 1627 1449.068 C 1625.625 1449.595, 1623.534 1450.211, 1622.354 1450.436 C 1619.375 1451.004, 1604.776 1455.761, 1597.230 1458.622 C 1593.782 1459.930, 1590.299 1461, 1589.491 1461 C 1588.682 1461, 1584.979 1462.227, 1581.261 1463.726 C 1577.542 1465.225, 1573.971 1466.338, 1573.325 1466.199 C 1572.679 1466.060, 1571.865 1466.409, 1571.516 1466.973 C 1571.167 1467.538, 1570.229 1468, 1569.430 1468 C 1568.632 1468, 1566.071 1468.861, 1563.739 1469.913 C 1561.408 1470.965, 1557.700 1472.373, 1555.500 1473.042 C 1553.300 1473.711, 1550.375 1474.831, 1549 1475.531 C 1547.625 1476.231, 1542.900 1478.249, 1538.500 1480.014 C 1529.493 1483.628, 1524.963 1485.566, 1517 1489.214 C 1513.975 1490.599, 1511.158 1491.784, 1510.740 1491.846 C 1507.882 1492.272, 1504 1495.328, 1504 1497.153 C 1504 1499.811, 1514.524 1498.737, 1533.310 1494.162 C 1537.815 1493.064, 1544.425 1491.691, 1548 1491.109 C 1551.575 1490.527, 1556.750 1489.573, 1559.500 1488.989 C 1562.250 1488.405, 1567.875 1487.500, 1572 1486.978 C 1576.125 1486.457, 1584.900 1485.137, 1591.500 1484.045 C 1598.100 1482.954, 1608.450 1481.576, 1614.500 1480.985 C 1620.550 1480.393, 1628.875 1479.503, 1633 1479.006 C 1637.125 1478.509, 1650.554 1477.417, 1662.842 1476.580 C 1675.130 1475.743, 1692.860 1474.334, 1702.242 1473.448 C 1722.383 1471.547, 1810.452 1471.846, 1827 1473.871 C 1832.225 1474.510, 1843.475 1475.677, 1852 1476.463 C 1877.062 1478.775, 1901.587 1481.907, 1915.258 1484.541 C 1922.274 1485.894, 1929.024 1486.999, 1930.258 1486.999 C 1932.426 1486.998, 1948.181 1490.445, 1960.500 1493.616 C 1963.800 1494.465, 1968.525 1495.594, 1971 1496.123 C 1976.138 1497.223, 1989.654 1501.174, 1998.500 1504.163 C 2014.553 1509.587, 2019.947 1509.962, 2021.088 1505.735 C 2021.708 1503.439, 2021.402 1502.674, 2019.285 1501.235 C 2017.883 1500.281, 2014.377 1497.250, 2011.494 1494.500 C 2008.612 1491.750, 2003.433 1487.025, 1999.985 1484 C 1996.537 1480.975, 1992.293 1477.150, 1990.554 1475.500 C 1988.815 1473.850, 1983.440 1468.900, 1978.609 1464.500 C 1973.778 1460.100, 1968.377 1455.150, 1966.608 1453.500 C 1964.838 1451.850, 1959.417 1446.900, 1954.560 1442.500 C 1949.704 1438.100, 1944.296 1433.150, 1942.544 1431.500 C 1940.792 1429.850, 1936.275 1425.800, 1932.508 1422.500 C 1928.740 1419.200, 1924.753 1415.487, 1923.648 1414.250 C 1922.543 1413.013, 1921.124 1412, 1920.494 1412 C 1919.154 1412, 1915.004 1407.802, 1914.992 1406.436 C 1914.980 1404.933, 1907.320 1400.983, 1904.802 1401.181 C 1903.536 1401.280, 1895.525 1401.648, 1887 1402 M 1624.667 1665.667 C 1624.300 1666.033, 1624 1705.633, 1624 1753.667 L 1624 1841 1626.500 1841 L 1629 1841 1629.021 1827.750 L 1629.041 1814.500 1632.181 1820.783 C 1651.415 1859.268, 1698.762 1848.137, 1707.605 1803.052 C 1719.612 1741.829, 1658.564 1702.174, 1632.503 1754.267 L 1629 1761.269 1629 1713.134 C 1629 1662.376, 1628.913 1661.421, 1624.667 1665.667 M 1543 1753.500 L 1543 1841 1545.500 1841 L 1548 1841 1548 1813.417 L 1548 1785.835 1571.637 1813.417 C 1594.264 1839.822, 1595.423 1841, 1598.792 1841 C 1602.059 1841, 1602.201 1840.875, 1600.780 1839.250 C 1599.938 1838.287, 1588.849 1825.438, 1576.136 1810.696 L 1553.022 1783.891 1575.011 1759.532 C 1599.092 1732.856, 1598.239 1734, 1594.050 1734 C 1591.454 1734, 1588.549 1736.891, 1569.800 1758.133 L 1548.500 1782.265 1548.242 1724.133 L 1547.984 1666 1545.492 1666 L 1543 1666 1543 1753.500 M 1959 1753.500 L 1959 1841 1961.500 1841 L 1964 1841 1964 1813.417 L 1964 1785.835 1987.637 1813.417 C 2010.264 1839.822, 2011.423 1841, 2014.792 1841 C 2018.059 1841, 2018.201 1840.875, 2016.780 1839.250 C 2015.938 1838.287, 2004.849 1825.438, 1992.136 1810.696 L 1969.022 1783.891 1991.011 1759.532 C 2015.092 1732.856, 2014.239 1734, 2010.050 1734 C 2007.454 1734, 2004.549 1736.891, 1985.800 1758.133 L 1964.500 1782.265 1964.242 1724.133 L 1963.984 1666 1961.492 1666 L 1959 1666 1959 1753.500 M 339 1759 L 339 1841 342 1841 L 345 1841 345 1800 L 345 1759 399.500 1759 L 454 1759 454 1800 L 454 1841 457 1841 L 460 1841 460 1759 L 460 1677 457 1677 L 454 1677 454 1715.500 L 454 1754 399.500 1754 L 345 1754 345 1715.500 L 345 1677 342 1677 L 339 1677 339 1759 M 507 1759 L 507 1841 557 1841 L 607 1841 607 1838.500 L 607 1836 560 1836 L 513 1836 513 1797.500 L 513 1759 555.500 1759 L 598 1759 598 1756.500 L 598 1754 555.500 1754 L 513 1754 513 1718 L 513 1682 558 1682 L 603 1682 603 1679.500 L 603 1677 555 1677 L 507 1677 507 1759 M 658.500 1758.012 C 639.250 1802.598, 623.339 1839.542, 623.143 1840.110 C 622.930 1840.724, 624.139 1841.012, 626.126 1840.821 L 629.467 1840.500 639.351 1817.240 L 649.235 1793.981 696.351 1794.240 L 743.466 1794.500 752.983 1817.726 L 762.500 1840.952 765.750 1840.976 C 769.724 1841.005, 774.547 1853.908, 735.107 1759 L 701.238 1677.500 697.369 1677.224 L 693.500 1676.947 658.500 1758.012 M 797 1759 L 797 1841 840.500 1841 L 884 1841 884 1838.500 L 884 1836 843.500 1836 L 803 1836 803 1756.500 L 803 1677 800 1677 L 797 1677 797 1759 M 869 1679.500 L 869 1682 896.500 1682 L 924 1682 924 1761.500 L 924 1841 927 1841 L 930 1841 930 1761.500 L 930 1682 958 1682 L 986 1682 986 1679.500 L 986 1677 927.500 1677 L 869 1677 869 1679.500 M 1014 1759 L 1014 1841 1017 1841 L 1020 1841 1020 1800 L 1020 1759 1074.500 1759 L 1129 1759 1129 1800 L 1129 1841 1132 1841 L 1135 1841 1135 1759 L 1135 1677 1132 1677 L 1129 1677 1129 1715.500 L 1129 1754 1074.500 1754 L 1020 1754 1020 1715.500 L 1020 1677 1017 1677 L 1014 1677 1014 1759 M 673.917 1735.277 L 651.333 1788.500 695.823 1788.760 C 720.292 1788.904, 740.526 1788.807, 740.787 1788.546 C 741.334 1788, 697.757 1681.999, 697 1682.032 C 696.725 1682.044, 686.337 1706.004, 673.917 1735.277 M 1258.005 1732.610 C 1211.180 1749.597, 1219.477 1841.922, 1268 1843.835 C 1282.026 1844.388, 1301.951 1833.673, 1296.759 1828.368 C 1295.094 1826.667, 1294.878 1826.726, 1291.759 1829.741 C 1271.590 1849.240, 1240.190 1834.988, 1233.473 1803.287 C 1223.637 1756.870, 1261.593 1717.693, 1289.722 1745.228 C 1293.881 1749.299, 1293.974 1749.333, 1296.001 1747.499 L 1298.059 1745.636 1293.918 1741.416 C 1284.691 1732.015, 1269.747 1728.350, 1258.005 1732.610 M 1344.892 1733.308 C 1321.896 1742.957, 1310.171 1772.120, 1316.553 1803.792 C 1327.362 1857.426, 1390.217 1857.553, 1401.604 1803.965 C 1411.196 1758.824, 1379.171 1718.925, 1344.892 1733.308 M 1454.892 1733.308 C 1431.896 1742.957, 1420.171 1772.120, 1426.553 1803.792 C 1437.362 1857.426, 1500.217 1857.553, 1511.604 1803.965 C 1521.196 1758.824, 1489.171 1718.925, 1454.892 1733.308 M 1760.892 1733.308 C 1737.896 1742.957, 1726.171 1772.120, 1732.553 1803.792 C 1743.362 1857.426, 1806.217 1857.553, 1817.604 1803.965 C 1827.196 1758.824, 1795.171 1718.925, 1760.892 1733.308 M 1871.892 1733.308 C 1848.896 1742.957, 1837.171 1772.120, 1843.553 1803.792 C 1854.362 1857.426, 1917.217 1857.553, 1928.604 1803.965 C 1938.196 1758.824, 1906.171 1718.925, 1871.892 1733.308 M 1352.732 1737.038 C 1305.177 1745.033, 1310.951 1838.263, 1359 1838.263 C 1409.018 1838.263, 1412.336 1742.049, 1362.500 1736.766 C 1359.750 1736.475, 1355.354 1736.597, 1352.732 1737.038 M 1462.732 1737.038 C 1415.177 1745.033, 1420.951 1838.263, 1469 1838.263 C 1519.018 1838.263, 1522.336 1742.049, 1472.500 1736.766 C 1469.750 1736.475, 1465.354 1736.597, 1462.732 1737.038 M 1661.223 1737.051 C 1622.954 1744.689, 1617.274 1818.240, 1653.573 1836.110 C 1678.913 1848.585, 1704.052 1824.887, 1703.983 1788.590 C 1703.920 1755.832, 1684.486 1732.409, 1661.223 1737.051 M 1768.732 1737.038 C 1721.177 1745.033, 1726.951 1838.263, 1775 1838.263 C 1825.018 1838.263, 1828.336 1742.049, 1778.500 1736.766 C 1775.750 1736.475, 1771.354 1736.597, 1768.732 1737.038 M 1879.732 1737.038 C 1832.177 1745.033, 1837.951 1838.263, 1886 1838.263 C 1936.018 1838.263, 1939.336 1742.049, 1889.500 1736.766 C 1886.750 1736.475, 1882.354 1736.597, 1879.732 1737.038" stroke="none" fill="#443c74" fill-rule="evenodd"/><path d="M 1437.500 648.067 C 1424.730 648.819, 1398.398 652.243, 1392.500 653.918 C 1390.850 654.387, 1386.800 655.339, 1383.500 656.034 C 1369.191 659.049, 1348.128 665.909, 1334 672.157 C 1320.525 678.115, 1300.856 688.749, 1295 693.241 C 1293.625 694.296, 1288.900 697.852, 1284.500 701.144 C 1264.070 716.428, 1243.803 740.405, 1233.061 762 C 1231.283 765.575, 1229.236 769.625, 1228.512 771 C 1214.215 798.172, 1210.091 850.456, 1218.879 893.104 C 1220.070 898.879, 1220.358 902.495, 1219.756 904.104 C 1212.948 922.310, 1184.971 1031.478, 1181.982 1051.500 C 1181.508 1054.672, 1181.902 1062.350, 1183.058 1072.500 C 1184.060 1081.300, 1186.145 1106.050, 1187.690 1127.500 C 1190.219 1162.601, 1190.567 1165.600, 1191.172 1157.500 C 1195.356 1101.510, 1204.894 1040.846, 1215.543 1002.500 C 1216.306 999.750, 1217.228 996.150, 1217.591 994.500 C 1217.954 992.850, 1219.994 986.276, 1222.125 979.891 C 1224.256 973.506, 1226 967.687, 1226 966.960 C 1226 965.729, 1230.100 954.735, 1234.004 945.500 C 1234.933 943.300, 1236.551 939.025, 1237.597 936.001 C 1239.773 929.714, 1258.428 892.307, 1260.577 889.921 C 1261.360 889.053, 1262 888.003, 1262 887.589 C 1262 886.969, 1273.961 868.662, 1280.680 859 C 1303.009 826.888, 1345.127 789.999, 1388 765.002 C 1407.259 753.774, 1446.385 734.912, 1460 730.292 C 1460.825 730.012, 1456.775 732.682, 1451 736.225 C 1426.849 751.044, 1401.248 768.476, 1387.472 779.483 C 1384.707 781.692, 1380.707 784.850, 1378.583 786.500 C 1376.459 788.150, 1374.219 789.950, 1373.604 790.500 C 1372.989 791.050, 1369.789 793.734, 1366.493 796.464 C 1351.890 808.559, 1330.093 831.685, 1314.500 851.626 C 1303.292 865.959, 1287.184 895.666, 1281.095 913.233 L 1278.068 921.966 1280.212 923.113 C 1283.594 924.924, 1319.139 924.569, 1333.500 922.581 C 1380.116 916.130, 1415.975 897.076, 1448.646 861.396 C 1453.126 856.503, 1457.995 851.206, 1459.465 849.624 C 1460.935 848.042, 1470.286 836.567, 1480.244 824.124 C 1524.481 768.847, 1543.262 750.887, 1575.905 732.644 C 1595.356 721.774, 1634.011 710, 1650.248 710 C 1659.220 710, 1651.722 702.953, 1629 690.031 C 1622.456 686.309, 1597.502 674, 1596.502 674 C 1596.117 674, 1594.384 673.335, 1592.651 672.522 C 1583.483 668.221, 1556.071 659.402, 1544.500 657.031 C 1542.300 656.580, 1536 655.295, 1530.500 654.176 C 1500.724 648.119, 1470.412 646.127, 1437.500 648.067 M 837.500 913.767 C 835.850 913.980, 833.375 915.187, 832 916.448 C 830.625 917.709, 828.150 919.580, 826.500 920.605 C 822.009 923.394, 805.719 936.007, 804 938.026 C 803.175 938.994, 801.580 940.061, 800.456 940.395 C 799.332 940.730, 796.774 942.465, 794.772 944.252 C 790.230 948.305, 781.656 954.988, 776.870 958.207 C 774.873 959.549, 771.498 962.301, 769.370 964.322 C 767.241 966.343, 764.712 968.253, 763.750 968.566 C 762.788 968.879, 762 969.577, 762 970.118 C 762 970.659, 760.393 971.774, 758.428 972.595 C 756.463 973.416, 753.426 975.433, 751.678 977.079 C 749.930 978.724, 743.325 983.907, 737 988.596 C 730.675 993.285, 723.083 999.007, 720.130 1001.311 C 717.176 1003.615, 714.008 1005.950, 713.090 1006.500 C 710.132 1008.272, 700.532 1015.418, 699.500 1016.616 C 698.950 1017.255, 694.675 1020.539, 690 1023.913 C 681.271 1030.214, 676.932 1033.511, 666.500 1041.766 C 657.481 1048.904, 653.272 1052.141, 647.992 1056 C 637.642 1063.566, 633.448 1066.721, 626.391 1072.250 C 622.355 1075.412, 618.764 1078, 618.412 1078 C 618.060 1078, 615.183 1080.242, 612.020 1082.983 C 608.856 1085.724, 604.204 1089.436, 601.681 1091.233 C 591.719 1098.329, 554.277 1126.927, 549.560 1131.043 C 547.327 1132.992, 544.375 1135.351, 543 1136.285 C 532.436 1143.466, 530 1145.310, 530 1146.129 C 530 1146.644, 529.166 1147.387, 528.146 1147.782 C 527.126 1148.177, 524.181 1150.075, 521.602 1152 C 515.771 1156.352, 496.402 1171.125, 486.174 1179.021 C 481.953 1182.280, 476.700 1186.323, 474.500 1188.006 C 455.392 1202.620, 451.124 1205.817, 448.550 1207.444 C 446.928 1208.469, 442.428 1211.870, 438.550 1215.002 C 432.444 1219.934, 409.685 1237.262, 386.500 1254.632 C 382.650 1257.516, 378.351 1260.916, 376.946 1262.188 C 375.542 1263.460, 373.120 1265.170, 371.566 1265.989 C 370.011 1266.807, 368.289 1268.466, 367.738 1269.675 C 365.567 1274.441, 366.335 1274.637, 389.657 1275.290 C 414.842 1275.996, 450.767 1278.448, 466 1280.501 C 471.775 1281.280, 480.325 1282.181, 485 1282.505 C 489.675 1282.828, 496.200 1283.566, 499.500 1284.144 C 502.800 1284.722, 508.650 1285.565, 512.500 1286.018 C 521.542 1287.081, 544.476 1290.575, 558.500 1293.026 C 564.550 1294.083, 576.025 1296.087, 584 1297.478 C 591.975 1298.869, 600.300 1300.470, 602.500 1301.036 C 604.700 1301.601, 612.286 1303.178, 619.359 1304.540 C 626.431 1305.902, 632.550 1307.222, 632.956 1307.473 C 633.362 1307.724, 638.601 1309.030, 644.597 1310.376 C 656.939 1313.146, 688.955 1321.343, 693.500 1322.897 C 696.647 1323.973, 713.581 1328.788, 725.500 1331.997 C 729.350 1333.033, 735.503 1335.013, 739.173 1336.396 C 742.843 1337.779, 746.893 1339.055, 748.173 1339.231 C 749.453 1339.407, 750.961 1339.840, 751.524 1340.195 C 752.087 1340.549, 758.387 1342.864, 765.524 1345.339 C 782.808 1351.333, 787.121 1352.883, 789.500 1353.957 C 790.600 1354.454, 793.300 1355.401, 795.500 1356.061 C 797.700 1356.721, 799.950 1357.600, 800.500 1358.014 C 801.384 1358.680, 807.538 1361.049, 820.500 1365.711 C 822.700 1366.503, 827.200 1368.418, 830.500 1369.969 C 839.719 1374.300, 846.503 1377.315, 858.500 1382.414 C 864.550 1384.985, 870.175 1387.520, 871 1388.047 C 871.825 1388.574, 873.510 1389.442, 874.744 1389.975 C 883.696 1393.847, 912.995 1409.132, 930.500 1419.063 C 949.507 1429.845, 972.664 1444.354, 986.740 1454.298 C 989.622 1456.334, 992.448 1458, 993.021 1458 C 993.594 1458, 994.322 1458.675, 994.638 1459.500 C 994.955 1460.325, 995.603 1461, 996.079 1461 C 996.555 1461, 1000.669 1463.818, 1005.222 1467.262 C 1009.775 1470.706, 1014.453 1474.193, 1015.618 1475.012 C 1020.551 1478.479, 1033.580 1488.593, 1034.500 1489.670 C 1035.050 1490.314, 1038.450 1493.239, 1042.056 1496.170 C 1053.126 1505.169, 1062.793 1513.916, 1077.234 1528 C 1095.389 1545.706, 1101.823 1546.292, 1090.572 1529.215 C 1088.058 1525.398, 1086 1521.946, 1086 1521.545 C 1086 1521.144, 1085.213 1519.784, 1084.250 1518.523 C 1083.287 1517.263, 1081.825 1515.217, 1081 1513.977 C 1080.175 1512.736, 1078.487 1510.482, 1077.250 1508.967 C 1076.013 1507.451, 1075 1505.920, 1075 1505.563 C 1075 1505.206, 1073.088 1502.402, 1070.750 1499.331 C 1068.412 1496.261, 1065.600 1492.531, 1064.500 1491.042 C 1062.087 1487.777, 1054.274 1478.427, 1051.500 1475.485 C 1050.400 1474.318, 1047.925 1471.379, 1046 1468.953 C 1040.388 1461.881, 1013.149 1435.002, 1005.025 1428.520 C 1000.929 1425.252, 996.837 1421.886, 995.930 1421.039 C 995.023 1420.193, 992.573 1418.150, 990.486 1416.500 C 988.398 1414.850, 985.298 1412.215, 983.595 1410.644 C 981.893 1409.073, 979.375 1407.048, 977.999 1406.144 C 976.624 1405.240, 972.643 1402.256, 969.152 1399.514 C 960.628 1392.818, 935.984 1375.890, 928.345 1371.484 C 924.960 1369.532, 921.642 1367.274, 920.973 1366.467 C 920.303 1365.660, 919.369 1365, 918.897 1365 C 918.425 1365, 915.577 1363.425, 912.567 1361.500 C 909.558 1359.575, 906.685 1358, 906.183 1358 C 905.681 1358, 904.192 1357.152, 902.874 1356.116 C 901.557 1355.079, 897.333 1352.544, 893.489 1350.482 C 889.645 1348.420, 884.025 1345.387, 881 1343.743 C 877.975 1342.099, 873.925 1339.989, 872 1339.053 C 870.075 1338.117, 867.150 1336.653, 865.500 1335.798 C 846.947 1326.189, 825.571 1316.002, 823.931 1315.987 C 823.144 1315.980, 819.800 1314.597, 816.500 1312.913 C 813.200 1311.229, 808.925 1309.257, 807 1308.530 C 805.075 1307.804, 799.450 1305.557, 794.500 1303.538 C 777.538 1296.619, 744.584 1284.686, 730.750 1280.453 C 720.358 1277.274, 716.078 1275.996, 706 1273.067 C 700.225 1271.388, 694.150 1269.528, 692.500 1268.933 C 689.057 1267.692, 667.437 1262.044, 652 1258.352 C 646.225 1256.971, 637 1254.715, 631.500 1253.340 C 626 1251.964, 618.125 1250.224, 614 1249.472 C 609.875 1248.721, 604.250 1247.637, 601.500 1247.063 C 576.736 1241.897, 567.906 1240.374, 526.607 1234.143 C 520.616 1233.240, 515.758 1232.147, 515.812 1231.715 C 516.008 1230.147, 519.574 1226.393, 522.694 1224.469 C 526.152 1222.337, 548.302 1205.536, 554 1200.722 C 555.925 1199.096, 560.011 1195.906, 563.081 1193.633 C 574.526 1185.158, 580.650 1180.437, 586 1175.968 C 589.025 1173.441, 593.075 1170.293, 595 1168.972 C 597.755 1167.082, 608.295 1158.914, 618.500 1150.760 C 619.050 1150.321, 624.225 1146.363, 630 1141.965 C 635.775 1137.567, 642.388 1132.513, 644.696 1130.734 C 647.003 1128.956, 653.742 1123.900, 659.671 1119.500 C 665.600 1115.100, 672.262 1109.893, 674.475 1107.929 C 676.689 1105.965, 680.185 1103.343, 682.244 1102.101 C 684.303 1100.860, 686.328 1099.317, 686.744 1098.672 C 687.160 1098.028, 688.250 1097.050, 689.166 1096.500 C 692.204 1094.677, 708.284 1082.539, 710.752 1080.206 C 712.087 1078.945, 714.826 1076.860, 716.839 1075.574 C 718.853 1074.288, 723.114 1070.932, 726.308 1068.118 C 729.503 1065.303, 732.460 1063, 732.880 1063 C 733.300 1063, 737.162 1060.075, 741.462 1056.500 C 745.762 1052.925, 749.677 1050, 750.163 1050 C 750.648 1050, 752.947 1048.284, 755.272 1046.187 C 757.598 1044.090, 763.775 1039.150, 769 1035.209 C 774.225 1031.268, 784.350 1023.526, 791.500 1018.004 C 798.650 1012.482, 808.775 1004.740, 814 1000.799 C 819.225 996.859, 824.456 992.704, 825.625 991.567 C 826.794 990.430, 829.386 988.375, 831.385 987 C 833.385 985.625, 840.709 980.112, 847.662 974.750 C 862.036 963.665, 861.813 963.726, 875.952 966.948 C 880.653 968.019, 889.900 970.071, 896.500 971.507 C 903.100 972.943, 909.400 974.544, 910.500 975.065 C 912.458 975.992, 923.554 979.168, 931.500 981.076 C 933.700 981.604, 936.400 982.466, 937.500 982.991 C 941.091 984.706, 948.380 987.138, 954.488 988.659 C 957.781 989.479, 960.931 990.510, 961.488 990.951 C 962.045 991.392, 966.775 993.430, 972 995.480 C 992.018 1003.336, 1005.962 1009.456, 1021.281 1017.111 C 1023.360 1018.150, 1025.951 1019, 1027.037 1019 C 1028.124 1019, 1029.991 1020.125, 1031.187 1021.500 C 1032.382 1022.875, 1033.842 1024.001, 1034.430 1024.002 C 1035.019 1024.003, 1039.240 1026.253, 1043.810 1029.002 C 1048.381 1031.751, 1052.314 1034, 1052.550 1034 C 1052.787 1034, 1056.022 1036.090, 1059.740 1038.644 C 1066.610 1043.363, 1070.895 1045.989, 1076.771 1049.083 C 1078.570 1050.031, 1081.720 1052.222, 1083.771 1053.954 C 1090.880 1059.956, 1100.511 1067.220, 1102.750 1068.268 C 1103.987 1068.847, 1105 1069.677, 1105 1070.112 C 1105 1070.548, 1106.912 1072.240, 1109.250 1073.873 C 1111.588 1075.507, 1118 1081.137, 1123.500 1086.385 C 1138.373 1100.578, 1142.023 1098.976, 1130.297 1083.402 C 1105.966 1051.085, 1059.778 1007.168, 1031.360 989.328 C 1028.006 987.223, 1022.039 983.362, 1018.099 980.750 C 1014.160 978.138, 1010.697 976, 1010.402 976 C 1010.108 976, 1008.392 974.875, 1006.589 973.500 C 1004.786 972.125, 1003.079 971, 1002.794 971 C 1002.316 971, 993.431 966.169, 984.887 961.263 C 980.558 958.777, 979.868 958.428, 969 953.224 C 957.298 947.621, 951.415 945, 950.542 945 C 950.135 945, 948.159 944.265, 946.151 943.367 C 944.143 942.470, 940.700 940.926, 938.500 939.938 C 933.941 937.891, 919.619 932.843, 910 929.893 C 906.425 928.797, 902.600 927.499, 901.500 927.008 C 900.400 926.518, 897.925 925.813, 896 925.443 C 894.075 925.072, 892.050 924.420, 891.500 923.993 C 890.950 923.566, 887.800 922.689, 884.500 922.044 C 881.200 921.399, 876.475 920.256, 874 919.504 C 871.525 918.753, 867.475 917.851, 865 917.501 C 862.525 917.151, 858.250 916.269, 855.500 915.541 C 849.656 913.994, 841.757 913.216, 837.500 913.767 M 1542.500 914.112 C 1528.857 915.783, 1503.511 921.803, 1486 927.530 C 1483.525 928.339, 1479.250 929.627, 1476.500 930.392 C 1470.493 932.062, 1452.753 938.442, 1448.349 940.516 C 1446.616 941.332, 1444.755 942, 1444.213 942 C 1443.672 942, 1441.940 942.672, 1440.364 943.494 C 1438.789 944.315, 1436.768 944.990, 1435.872 944.994 C 1434.977 944.997, 1433.745 945.602, 1433.134 946.338 C 1432.524 947.074, 1430.106 948.240, 1427.762 948.929 C 1422.772 950.395, 1402.692 960.328, 1395.554 964.860 C 1392.834 966.587, 1390.015 968, 1389.289 968 C 1388.074 968, 1380.557 972.085, 1374.162 976.222 C 1372.698 977.169, 1369.925 978.819, 1368 979.889 C 1366.075 980.960, 1362.251 983.447, 1359.503 985.418 C 1356.755 987.388, 1354.132 989, 1353.674 989 C 1352.530 989, 1321.694 1012.109, 1320.700 1013.711 C 1320.260 1014.420, 1318.685 1015.650, 1317.200 1016.444 C 1315.715 1017.239, 1312.901 1019.376, 1310.947 1021.194 C 1308.993 1023.012, 1305.698 1025.785, 1303.624 1027.356 C 1298.407 1031.309, 1286.592 1042.537, 1274.597 1054.941 C 1261.064 1068.935, 1258.868 1071.257, 1256.361 1074.226 C 1255.185 1075.619, 1253.835 1076.926, 1253.361 1077.130 C 1252.403 1077.542, 1245.735 1085.380, 1242.250 1090.190 C 1239.407 1094.114, 1239.306 1097, 1242.013 1097 C 1243.983 1097, 1247.431 1094.223, 1257.113 1084.836 C 1263.031 1079.098, 1275.402 1069.170, 1284.943 1062.500 C 1288.877 1059.750, 1294.311 1055.813, 1297.019 1053.750 C 1299.726 1051.688, 1302.317 1050, 1302.776 1050 C 1303.236 1050, 1305.161 1048.839, 1307.056 1047.421 C 1308.950 1046.003, 1312.525 1043.742, 1315 1042.397 C 1317.475 1041.052, 1321.075 1038.997, 1323 1037.831 C 1324.925 1036.664, 1328.975 1034.364, 1332 1032.719 C 1335.025 1031.074, 1340.034 1028.214, 1343.131 1026.364 C 1346.228 1024.514, 1349.040 1023, 1349.381 1023 C 1349.721 1023, 1350.900 1022.100, 1352 1021 C 1353.100 1019.900, 1354.820 1019, 1355.823 1019 C 1356.825 1019, 1360.538 1017.641, 1364.073 1015.980 C 1370.321 1013.043, 1371.297 1012.549, 1375.500 1010.190 C 1376.600 1009.572, 1380.650 1007.876, 1384.500 1006.420 C 1388.350 1004.964, 1393.300 1002.960, 1395.500 1001.967 C 1397.700 1000.974, 1404.450 998.278, 1410.500 995.976 C 1416.550 993.673, 1422.400 991.286, 1423.500 990.670 C 1424.600 990.054, 1427.750 989.014, 1430.500 988.360 C 1435.416 987.190, 1445.573 983.803, 1449.500 982.023 C 1450.600 981.524, 1453.075 980.814, 1455 980.444 C 1456.925 980.074, 1463.450 978.318, 1469.500 976.542 C 1486.850 971.448, 1516.082 965, 1521.822 965 C 1525.409 965, 1549.564 982.045, 1553 987 C 1553.275 987.396, 1554.963 988.470, 1556.750 989.386 C 1558.537 990.302, 1560 991.475, 1560 991.993 C 1560 992.511, 1562.588 994.862, 1565.750 997.218 C 1568.912 999.573, 1572.175 1002.144, 1573 1002.930 C 1574.606 1004.461, 1594.053 1020.250, 1604.495 1028.500 C 1615.345 1037.072, 1625.457 1045.369, 1626.500 1046.554 C 1627.050 1047.179, 1629.075 1048.769, 1631 1050.088 C 1632.925 1051.407, 1640.082 1057.137, 1646.904 1062.821 C 1653.726 1068.505, 1660.476 1073.900, 1661.904 1074.810 C 1663.332 1075.720, 1665.628 1077.597, 1667.007 1078.982 C 1670.332 1082.321, 1681.371 1090.965, 1685.682 1093.605 C 1687.572 1094.763, 1690.779 1097.276, 1692.809 1099.189 C 1694.839 1101.103, 1698.750 1104.431, 1701.500 1106.585 C 1704.250 1108.738, 1706.725 1110.778, 1707 1111.117 C 1707.978 1112.324, 1724.734 1125.779, 1727.556 1127.624 C 1729.135 1128.656, 1731.568 1130.572, 1732.963 1131.881 C 1734.359 1133.191, 1741.800 1139.346, 1749.500 1145.560 C 1757.200 1151.774, 1769.350 1161.632, 1776.500 1167.467 C 1783.650 1173.302, 1792.650 1180.550, 1796.500 1183.572 C 1811.592 1195.422, 1816.884 1199.643, 1821.107 1203.201 C 1826.222 1207.511, 1838.626 1217.480, 1844.762 1222.213 C 1849.545 1225.902, 1854.988 1231.176, 1854.995 1232.127 C 1854.998 1232.471, 1850.612 1233.270, 1845.250 1233.901 C 1839.888 1234.532, 1833.700 1235.479, 1831.500 1236.004 C 1829.300 1236.530, 1822.325 1237.672, 1816 1238.543 C 1805.376 1240.006, 1795.045 1241.874, 1760.500 1248.581 C 1748.239 1250.961, 1745.242 1251.635, 1735.500 1254.205 C 1733.300 1254.785, 1729.956 1255.474, 1728.068 1255.736 C 1720.675 1256.762, 1659.309 1272.992, 1653.496 1275.458 C 1651.844 1276.159, 1648.919 1277.044, 1646.996 1277.425 C 1645.073 1277.805, 1642.600 1278.479, 1641.500 1278.922 C 1640.400 1279.365, 1633.200 1281.789, 1625.500 1284.308 C 1601.291 1292.230, 1579.690 1299.910, 1578.625 1300.975 C 1578.061 1301.539, 1576.847 1302, 1575.927 1302 C 1574.409 1302, 1570.013 1303.683, 1561.349 1307.582 C 1559.616 1308.362, 1557.731 1309, 1557.160 1309 C 1556.589 1309, 1553.057 1310.573, 1549.311 1312.495 C 1545.565 1314.417, 1541.961 1315.992, 1541.303 1315.995 C 1539.525 1316.002, 1508.283 1330.706, 1486.500 1341.787 C 1481.550 1344.305, 1474.800 1347.702, 1471.500 1349.336 C 1468.200 1350.970, 1464.150 1353.300, 1462.500 1354.514 C 1460.850 1355.728, 1457.025 1357.918, 1454 1359.379 C 1448.218 1362.173, 1446.800 1362.973, 1440.797 1366.828 C 1438.761 1368.136, 1435.741 1369.947, 1434.087 1370.853 C 1424.272 1376.228, 1397.744 1393.769, 1388.271 1401.148 C 1384.846 1403.817, 1381.683 1406, 1381.244 1406 C 1380.804 1406, 1379.701 1406.787, 1378.793 1407.750 C 1377.884 1408.713, 1376.547 1409.957, 1375.820 1410.516 C 1375.094 1411.075, 1372.221 1413.437, 1369.436 1415.766 C 1366.650 1418.095, 1364.083 1420, 1363.731 1420 C 1363.379 1420, 1362.032 1421.013, 1360.738 1422.250 C 1359.443 1423.487, 1353.914 1428.100, 1348.451 1432.500 C 1333.557 1444.496, 1296.970 1481.356, 1287.355 1494.054 C 1284.626 1497.658, 1281.404 1501.596, 1280.196 1502.804 C 1278.988 1504.012, 1278 1505.450, 1278 1506 C 1278 1506.550, 1277.213 1507.788, 1276.250 1508.750 C 1273.606 1511.395, 1265.009 1522.732, 1264.934 1523.674 C 1264.897 1524.128, 1263.331 1526.525, 1261.454 1529 C 1255.897 1536.325, 1254.688 1538.919, 1256.060 1540.572 C 1258.042 1542.961, 1259.152 1542.307, 1268.925 1532.990 C 1274.109 1528.048, 1280.617 1522.091, 1283.387 1519.752 C 1286.156 1517.413, 1289.406 1514.554, 1290.609 1513.398 C 1291.811 1512.242, 1296.328 1508.456, 1300.647 1504.985 C 1304.966 1501.514, 1308.950 1498.177, 1309.500 1497.569 C 1310.865 1496.062, 1327.583 1483.090, 1332.143 1480 C 1334.172 1478.625, 1339.700 1474.688, 1344.427 1471.250 C 1349.155 1467.813, 1353.445 1465, 1353.962 1465 C 1354.478 1465, 1355.260 1464.432, 1355.700 1463.739 C 1356.540 1462.413, 1371.386 1452, 1372.435 1452 C 1373.271 1452, 1381.268 1446.865, 1382.500 1445.537 C 1383.050 1444.944, 1385.611 1443.343, 1388.192 1441.979 C 1390.772 1440.616, 1397.297 1436.815, 1402.692 1433.534 C 1408.086 1430.253, 1413.850 1426.849, 1415.500 1425.971 C 1424.993 1420.918, 1434.634 1415.595, 1435.515 1414.921 C 1437.305 1413.553, 1475.656 1394.202, 1481.176 1391.882 C 1484.104 1390.652, 1487.694 1388.825, 1489.154 1387.822 C 1490.614 1386.820, 1492.366 1386, 1493.047 1386 C 1493.727 1386, 1498.503 1383.975, 1503.659 1381.500 C 1508.816 1379.025, 1513.296 1377, 1513.616 1377 C 1513.936 1377, 1515.616 1376.353, 1517.349 1375.562 C 1519.082 1374.772, 1523.425 1372.925, 1527 1371.458 C 1530.575 1369.991, 1534.050 1368.344, 1534.722 1367.797 C 1535.394 1367.250, 1537.419 1366.437, 1539.222 1365.991 C 1543.505 1364.930, 1553.154 1361.400, 1558.367 1358.987 C 1560.640 1357.934, 1567.225 1355.531, 1573 1353.645 C 1582.572 1350.520, 1585.548 1349.435, 1591.500 1346.899 C 1592.600 1346.430, 1600.025 1344.009, 1608 1341.520 C 1615.975 1339.030, 1623.320 1336.520, 1624.323 1335.942 C 1625.326 1335.365, 1630.276 1333.815, 1635.323 1332.498 C 1644.857 1330.011, 1659.862 1325.895, 1668.500 1323.396 C 1671.250 1322.600, 1678.675 1320.606, 1685 1318.964 C 1691.325 1317.322, 1697.625 1315.582, 1699 1315.097 C 1700.375 1314.611, 1704.200 1313.662, 1707.500 1312.986 C 1710.800 1312.311, 1718.675 1310.516, 1725 1308.997 C 1731.325 1307.478, 1740.775 1305.491, 1746 1304.581 C 1751.225 1303.670, 1757.075 1302.421, 1759 1301.804 C 1763.050 1300.507, 1787.181 1296.250, 1814.500 1292.014 C 1824.950 1290.394, 1837.550 1288.388, 1842.500 1287.558 C 1856.431 1285.221, 1873.388 1283.049, 1885.788 1282.014 C 1891.996 1281.496, 1897.551 1280.778, 1898.132 1280.418 C 1898.714 1280.059, 1908.485 1279.133, 1919.845 1278.361 C 1931.205 1277.589, 1946.575 1276.539, 1954 1276.028 C 1961.425 1275.516, 1974.572 1275.076, 1983.215 1275.049 C 2001.111 1274.993, 2005.077 1273.302, 1998.493 1268.534 C 1996.948 1267.415, 1993.168 1264.311, 1990.092 1261.635 C 1987.016 1258.960, 1983.375 1256.048, 1982 1255.165 C 1980.625 1254.282, 1977.025 1251.472, 1974 1248.921 C 1970.975 1246.370, 1964.450 1241.216, 1959.500 1237.466 C 1954.550 1233.717, 1948.594 1229.041, 1946.263 1227.075 C 1943.933 1225.109, 1940.166 1221.925, 1937.892 1220 C 1935.618 1218.075, 1930.774 1214.175, 1927.129 1211.334 C 1923.483 1208.493, 1918.475 1204.544, 1916 1202.557 C 1902.147 1191.440, 1896.716 1187.147, 1892.523 1184 C 1889.959 1182.075, 1884.447 1177.596, 1880.275 1174.046 C 1876.104 1170.496, 1871.440 1166.671, 1869.912 1165.546 C 1864.369 1161.465, 1855.543 1154.438, 1852.583 1151.750 C 1850.917 1150.237, 1849.246 1149, 1848.870 1149 C 1848.494 1149, 1844.744 1146.075, 1840.538 1142.500 C 1836.331 1138.925, 1832.429 1136, 1831.868 1136 C 1831.306 1136, 1829.427 1134.581, 1827.693 1132.847 C 1825.958 1131.112, 1820.270 1126.275, 1815.053 1122.097 C 1809.835 1117.918, 1804.838 1113.825, 1803.948 1113 C 1803.058 1112.175, 1801.284 1110.825, 1800.006 1110 C 1797.677 1108.497, 1786.568 1099.700, 1780 1094.157 C 1778.075 1092.533, 1773.885 1089.105, 1770.688 1086.540 C 1767.491 1083.975, 1764.116 1081.199, 1763.188 1080.371 C 1761.460 1078.829, 1750.365 1070.319, 1744.718 1066.204 C 1742.985 1064.941, 1739.977 1062.624, 1738.034 1061.054 C 1736.090 1059.485, 1732.078 1056.243, 1729.118 1053.850 C 1726.157 1051.458, 1722.499 1048.600, 1720.987 1047.500 C 1719.475 1046.400, 1713.122 1041.194, 1706.869 1035.931 C 1700.616 1030.669, 1693.925 1025.294, 1692 1023.988 C 1690.075 1022.681, 1687.243 1020.415, 1685.708 1018.950 C 1684.172 1017.486, 1680.440 1014.536, 1677.416 1012.394 C 1674.391 1010.252, 1666.122 1003.775, 1659.039 998 C 1634.236 977.775, 1631.986 976, 1631.150 976 C 1630.687 976, 1627.651 973.461, 1624.404 970.358 C 1614.133 960.542, 1610.596 957.417, 1607 954.981 C 1605.075 953.677, 1600.800 950.294, 1597.500 947.463 C 1594.200 944.632, 1589.925 941.457, 1588 940.408 C 1586.075 939.359, 1582.900 937.150, 1580.945 935.500 C 1578.989 933.850, 1573.848 929.800, 1569.519 926.500 C 1565.191 923.200, 1560.041 919.095, 1558.075 917.378 C 1554.143 913.944, 1550.355 913.150, 1542.500 914.112" stroke="none" fill="#bbbbcc" fill-rule="evenodd"/></svg>